{"glyphs":{"0":{"ha":894,"x_min":65,"x_max":829,"o":"m 342 -7 q 135 64 206 -7 q 65 267 65 135 l 65 753 q 138 965 65 890 q 343 1039 210 1039 l 563 1039 q 761 965 693 1039 q 829 753 829 890 l 829 267 q 759 65 829 138 q 561 -7 689 -7 l 342 -7 m 496 208 q 566 231 543 208 q 589 303 589 254 l 589 728 q 567 802 589 781 q 506 824 546 824 l 392 824 q 306 728 306 824 l 306 304 q 329 231 306 254 q 400 208 353 208 l 496 208 z "},"1":{"ha":522,"x_min":36,"x_max":449,"o":"m 208 811 l 36 800 l 36 953 l 236 1039 l 449 1039 l 449 0 l 208 0 l 208 811 z "},"2":{"ha":811,"x_min":60,"x_max":767,"o":"m 60 192 l 390 525 q 472 622 446 579 q 497 711 497 665 q 468 787 497 763 q 372 811 439 811 l 79 811 l 79 1001 q 250 1029 175 1019 q 418 1039 325 1039 q 665 967 593 1039 q 738 753 738 896 q 699 578 738 654 q 579 419 661 501 l 376 215 l 767 215 l 767 0 l 60 0 l 60 192 z "},"3":{"ha":801,"x_min":50,"x_max":749,"o":"m 451 -8 q 50 25 232 -8 l 50 218 l 358 218 q 475 235 442 218 q 508 294 508 251 l 508 328 q 388 414 508 410 l 138 425 l 138 610 l 376 625 q 467 644 439 628 q 496 699 496 661 l 496 722 q 463 790 496 769 q 353 811 431 811 l 68 811 l 68 1003 q 433 1039 285 1039 q 656 974 578 1039 q 733 781 733 910 l 733 707 q 611 518 733 558 q 711 440 674 499 q 749 294 749 381 l 749 249 q 670 58 749 125 q 451 -8 592 -8 z "},"4":{"ha":872,"x_min":31,"x_max":846,"o":"m 513 203 l 74 203 l 31 313 l 346 1031 l 590 1031 l 315 407 l 513 407 l 513 582 l 558 708 l 753 708 l 753 407 l 846 407 l 846 240 l 753 203 l 753 0 l 513 0 l 513 203 z "},"5":{"ha":832,"x_min":71,"x_max":779,"o":"m 424 -8 q 71 18 311 -8 l 71 207 l 435 207 q 540 307 540 207 l 540 363 q 520 428 540 406 q 456 450 500 450 l 386 450 q 328 435 347 450 q 306 389 310 421 l 78 389 l 107 1031 l 739 1031 l 739 815 l 313 815 l 304 618 q 435 654 346 654 l 543 654 q 719 585 658 654 q 779 407 779 517 l 779 256 q 692 55 779 118 q 424 -8 604 -8 z "},"6":{"ha":836,"x_min":60,"x_max":783,"o":"m 378 -7 q 198 37 267 -7 q 94 190 129 81 q 60 496 60 300 q 106 818 60 699 q 240 988 153 938 q 458 1039 326 1039 q 722 1013 613 1039 l 722 824 l 485 824 q 344 769 388 824 q 300 608 300 715 q 390 629 342 624 q 514 635 438 635 q 723 571 663 635 q 783 390 783 507 l 783 242 q 715 53 783 114 q 524 -7 646 -7 l 378 -7 m 467 208 q 525 228 507 208 q 543 292 543 249 l 543 343 q 522 413 543 394 q 446 431 500 431 l 300 431 q 313 295 300 343 q 352 228 325 247 q 426 208 379 208 l 467 208 z "},"7":{"ha":775,"x_min":28,"x_max":746,"o":"m 436 790 l 28 790 l 28 1031 l 686 1031 l 746 932 l 418 0 l 151 0 l 436 790 z "},"8":{"ha":865,"x_min":68,"x_max":796,"o":"m 347 -7 q 144 42 221 -7 q 68 224 68 92 l 68 363 q 96 467 68 421 q 176 526 124 514 q 117 574 136 547 q 94 631 99 601 q 89 707 89 661 l 89 824 q 158 987 89 935 q 336 1039 228 1039 l 532 1039 q 708 987 639 1039 q 776 824 776 935 l 776 707 q 756 606 776 658 q 689 544 736 553 q 774 477 751 529 q 796 365 796 425 l 796 224 q 726 42 796 90 q 535 -7 657 -7 l 347 -7 m 476 628 q 529 647 517 628 q 542 711 542 667 l 542 765 q 526 822 542 808 q 478 835 510 835 l 390 835 q 339 821 354 835 q 324 765 324 807 l 324 711 q 338 644 324 661 q 390 628 353 628 l 476 628 m 476 196 q 540 214 524 196 q 557 271 557 232 l 557 347 q 537 404 557 383 q 478 425 517 425 l 390 425 q 331 404 354 425 q 308 347 308 383 l 308 271 q 328 213 308 229 q 390 196 347 196 l 476 196 z "},"9":{"ha":836,"x_min":56,"x_max":778,"o":"m 381 -8 q 117 18 226 -8 l 117 207 l 354 207 q 495 261 451 207 q 539 422 539 315 q 448 401 496 407 q 325 396 400 396 q 116 460 176 396 q 56 640 56 524 l 56 789 q 124 977 56 917 q 315 1038 193 1038 l 461 1038 q 640 994 572 1038 q 743 840 708 950 q 778 535 778 731 q 732 213 778 332 q 599 42 686 93 q 381 -8 513 -8 m 539 600 q 526 735 539 688 q 487 803 514 783 q 413 822 460 822 l 371 822 q 314 802 332 822 q 296 739 296 782 l 296 688 q 317 618 296 636 q 393 600 338 600 l 539 600 z "},"\r":{"ha":353,"x_min":0,"x_max":0,"o":""}," ":{"ha":353,"x_min":0,"x_max":0,"o":""},"A":{"ha":957,"x_min":14,"x_max":942,"o":"m 328 1031 l 628 1031 l 942 0 l 693 0 l 640 188 l 313 188 l 261 0 l 14 0 l 328 1031 m 585 403 l 476 825 l 368 403 l 585 403 z "},"Á":{"ha":957,"x_min":14,"x_max":942,"o":"m 328 1031 l 628 1031 l 942 0 l 693 0 l 640 188 l 313 188 l 261 0 l 14 0 l 328 1031 m 585 403 l 476 825 l 368 403 l 585 403 m 519 1296 l 711 1296 l 557 1099 l 415 1099 l 519 1296 z "},"Ă":{"ha":957,"x_min":14,"x_max":942,"o":"m 328 1031 l 628 1031 l 942 0 l 693 0 l 640 188 l 313 188 l 261 0 l 14 0 l 328 1031 m 585 403 l 476 825 l 368 403 l 585 403 m 467 1086 q 322 1140 372 1086 q 271 1300 271 1193 l 381 1300 q 404 1219 381 1244 q 464 1194 428 1194 q 530 1219 507 1194 q 553 1300 553 1243 l 667 1300 q 467 1086 667 1086 z "},"Ắ":{"ha":957,"x_min":14,"x_max":942,"o":"m 328 1031 l 628 1031 l 942 0 l 693 0 l 640 188 l 313 188 l 261 0 l 14 0 l 328 1031 m 585 403 l 476 825 l 368 403 l 585 403 m 503 1471 l 694 1471 l 540 1274 l 399 1274 l 503 1471 m 381 1233 q 405 1175 381 1193 q 467 1157 429 1157 q 553 1233 553 1157 l 665 1233 q 615 1104 665 1147 q 467 1061 564 1061 q 320 1104 371 1061 q 269 1233 269 1147 l 381 1233 z "},"Ặ":{"ha":957,"x_min":14,"x_max":942,"o":"m 328 1031 l 628 1031 l 942 0 l 693 0 l 640 188 l 313 188 l 261 0 l 14 0 l 328 1031 m 585 403 l 476 825 l 368 403 l 585 403 m 467 1086 q 322 1140 372 1086 q 271 1300 271 1193 l 381 1300 q 404 1219 381 1244 q 464 1194 428 1194 q 530 1219 507 1194 q 553 1300 553 1243 l 667 1300 q 467 1086 667 1086 m 421 -321 q 398 -312 407 -321 q 389 -290 389 -304 l 389 -146 q 421 -112 389 -112 l 532 -112 q 554 -122 546 -112 q 563 -146 563 -131 l 563 -290 q 532 -321 563 -321 l 421 -321 z "},"Ằ":{"ha":957,"x_min":14,"x_max":942,"o":"m 328 1031 l 628 1031 l 942 0 l 693 0 l 640 188 l 313 188 l 261 0 l 14 0 l 328 1031 m 585 403 l 476 825 l 368 403 l 585 403 m 249 1471 l 440 1471 l 544 1274 l 403 1274 l 249 1471 m 381 1233 q 405 1175 381 1193 q 467 1157 429 1157 q 553 1233 553 1157 l 665 1233 q 615 1104 665 1147 q 467 1061 564 1061 q 320 1104 371 1061 q 269 1233 269 1147 l 381 1233 z "},"Ẳ":{"ha":957,"x_min":14,"x_max":942,"o":"m 328 1031 l 628 1031 l 942 0 l 693 0 l 640 188 l 313 188 l 261 0 l 14 0 l 328 1031 m 585 403 l 476 825 l 368 403 l 585 403 m 436 1319 q 483 1367 483 1333 q 443 1396 483 1396 q 400 1388 431 1396 l 400 1481 q 475 1492 433 1492 q 574 1462 542 1492 q 607 1375 607 1432 q 567 1278 607 1315 q 436 1215 526 1240 l 436 1319 m 467 1061 q 320 1104 371 1061 q 269 1233 269 1147 l 381 1233 q 405 1175 381 1193 q 467 1157 429 1157 q 553 1233 553 1157 l 665 1233 q 615 1104 665 1147 q 467 1061 564 1061 z "},"Ẵ":{"ha":957,"x_min":14,"x_max":942,"o":"m 328 1031 l 628 1031 l 942 0 l 693 0 l 640 188 l 313 188 l 261 0 l 14 0 l 328 1031 m 585 403 l 476 825 l 368 403 l 585 403 m 368 1433 q 417 1428 392 1433 q 463 1415 442 1422 q 521 1401 504 1401 q 556 1413 543 1401 q 568 1443 568 1424 l 686 1443 q 651 1322 679 1354 q 565 1289 624 1289 q 504 1298 535 1289 q 468 1308 474 1307 q 413 1321 428 1321 q 378 1310 390 1321 q 364 1286 367 1300 l 244 1286 q 283 1403 253 1372 q 368 1433 314 1433 m 381 1233 q 405 1175 381 1193 q 467 1157 429 1157 q 553 1233 553 1157 l 665 1233 q 615 1104 665 1147 q 467 1061 564 1061 q 320 1104 371 1061 q 269 1233 269 1147 l 381 1233 z "},"Â":{"ha":957,"x_min":14,"x_max":942,"o":"m 328 1031 l 628 1031 l 942 0 l 693 0 l 640 188 l 313 188 l 261 0 l 14 0 l 328 1031 m 585 403 l 476 825 l 368 403 l 585 403 m 400 1299 l 563 1299 l 694 1099 l 556 1099 l 478 1193 l 394 1099 l 256 1099 l 400 1299 z "},"Ấ":{"ha":957,"x_min":14,"x_max":942,"o":"m 328 1031 l 628 1031 l 942 0 l 693 0 l 640 188 l 313 188 l 261 0 l 14 0 l 328 1031 m 585 403 l 476 825 l 368 403 l 585 403 m 846 1393 l 751 1221 l 611 1221 l 654 1393 l 846 1393 m 563 1256 l 693 1099 l 556 1099 l 476 1150 l 394 1099 l 256 1099 l 400 1256 l 563 1256 z "},"Ậ":{"ha":957,"x_min":14,"x_max":942,"o":"m 328 1031 l 628 1031 l 942 0 l 693 0 l 640 188 l 313 188 l 261 0 l 14 0 l 328 1031 m 585 403 l 476 825 l 368 403 l 585 403 m 400 1299 l 563 1299 l 694 1099 l 556 1099 l 478 1193 l 394 1099 l 256 1099 l 400 1299 m 421 -321 q 398 -312 407 -321 q 389 -290 389 -304 l 389 -146 q 421 -112 389 -112 l 532 -112 q 554 -122 546 -112 q 563 -146 563 -131 l 563 -290 q 532 -321 563 -321 l 421 -321 z "},"Ầ":{"ha":957,"x_min":14,"x_max":942,"o":"m 328 1031 l 628 1031 l 942 0 l 693 0 l 640 188 l 313 188 l 261 0 l 14 0 l 328 1031 m 585 403 l 476 825 l 368 403 l 585 403 m 301 1393 l 344 1221 l 203 1221 l 110 1393 l 301 1393 m 563 1256 l 693 1099 l 556 1099 l 476 1150 l 394 1099 l 256 1099 l 400 1256 l 563 1256 z "},"Ẩ":{"ha":957,"x_min":14,"x_max":942,"o":"m 328 1031 l 628 1031 l 942 0 l 693 0 l 640 188 l 313 188 l 261 0 l 14 0 l 328 1031 m 585 403 l 476 825 l 368 403 l 585 403 m 646 1281 q 679 1319 679 1290 q 653 1344 679 1344 q 610 1336 638 1344 l 610 1417 q 685 1428 643 1428 q 792 1335 792 1428 q 757 1237 792 1275 q 646 1176 722 1199 l 646 1281 m 400 1256 l 563 1256 l 693 1099 l 556 1099 l 476 1150 l 394 1099 l 256 1099 l 400 1256 z "},"Ẫ":{"ha":957,"x_min":14,"x_max":942,"o":"m 328 1031 l 628 1031 l 942 0 l 693 0 l 640 188 l 313 188 l 261 0 l 14 0 l 328 1031 m 585 403 l 476 825 l 368 403 l 585 403 m 368 1458 q 417 1453 392 1458 q 463 1440 442 1447 q 521 1426 504 1426 q 556 1437 543 1426 q 568 1467 568 1447 l 686 1467 q 651 1345 679 1378 q 565 1313 624 1313 q 460 1332 524 1313 q 400 1344 417 1344 q 376 1335 385 1344 q 364 1310 367 1325 l 244 1310 q 283 1428 253 1397 q 368 1458 314 1458 m 693 1099 l 556 1099 l 476 1150 l 394 1099 l 256 1099 l 400 1256 l 563 1256 l 693 1099 z "},"Ȁ":{"ha":957,"x_min":14,"x_max":942,"o":"m 328 1031 l 628 1031 l 942 0 l 693 0 l 640 188 l 313 188 l 261 0 l 14 0 l 328 1031 m 585 403 l 476 825 l 368 403 l 585 403 m 140 1296 l 332 1296 l 436 1099 l 296 1099 l 140 1296 m 404 1296 l 596 1296 l 700 1099 l 560 1099 l 404 1296 z "},"Ä":{"ha":957,"x_min":14,"x_max":942,"o":"m 328 1031 l 628 1031 l 942 0 l 693 0 l 640 188 l 313 188 l 261 0 l 14 0 l 328 1031 m 585 403 l 476 825 l 368 403 l 585 403 m 271 1100 q 248 1108 257 1100 q 239 1131 239 1117 l 239 1275 q 271 1308 239 1308 l 382 1308 q 404 1299 396 1308 q 413 1275 413 1290 l 413 1131 q 382 1100 413 1100 l 271 1100 m 554 1100 q 532 1108 540 1100 q 524 1131 524 1117 l 524 1275 q 554 1308 524 1308 l 665 1308 q 688 1299 679 1308 q 696 1275 696 1290 l 696 1131 q 665 1100 696 1100 l 554 1100 z "},"Ạ":{"ha":957,"x_min":14,"x_max":942,"o":"m 328 1031 l 628 1031 l 942 0 l 693 0 l 640 188 l 313 188 l 261 0 l 14 0 l 328 1031 m 585 403 l 476 825 l 368 403 l 585 403 m 421 -321 q 398 -312 407 -321 q 389 -290 389 -304 l 389 -146 q 421 -112 389 -112 l 532 -112 q 554 -122 546 -112 q 563 -146 563 -131 l 563 -290 q 532 -321 563 -321 l 421 -321 z "},"À":{"ha":957,"x_min":14,"x_max":942,"o":"m 328 1031 l 628 1031 l 942 0 l 693 0 l 640 188 l 313 188 l 261 0 l 14 0 l 328 1031 m 585 403 l 476 825 l 368 403 l 585 403 m 281 1296 l 472 1296 l 576 1099 l 435 1099 l 281 1296 z "},"Ả":{"ha":957,"x_min":14,"x_max":942,"o":"m 328 1031 l 628 1031 l 942 0 l 693 0 l 640 188 l 313 188 l 261 0 l 14 0 l 328 1031 m 585 403 l 476 825 l 368 403 l 585 403 m 432 1172 q 479 1219 479 1186 q 439 1249 479 1249 q 396 1240 426 1249 l 396 1333 q 471 1344 429 1344 q 570 1315 538 1344 q 603 1228 603 1285 q 563 1131 603 1168 q 432 1068 522 1093 l 432 1172 z "},"Ȃ":{"ha":957,"x_min":14,"x_max":942,"o":"m 328 1031 l 628 1031 l 942 0 l 693 0 l 640 188 l 313 188 l 261 0 l 14 0 l 328 1031 m 585 403 l 476 825 l 368 403 l 585 403 m 479 1303 q 624 1249 574 1303 q 675 1089 675 1196 l 565 1089 q 542 1169 565 1144 q 482 1194 518 1194 q 416 1170 439 1194 q 393 1089 393 1146 l 279 1089 q 479 1303 279 1303 z "},"Ā":{"ha":957,"x_min":14,"x_max":942,"o":"m 328 1031 l 628 1031 l 942 0 l 693 0 l 640 188 l 313 188 l 261 0 l 14 0 l 328 1031 m 585 403 l 476 825 l 368 403 l 585 403 m 269 1250 l 668 1250 l 668 1110 l 269 1110 l 269 1250 z "},"Ą":{"ha":957,"x_min":14,"x_max":942,"o":"m 328 1031 l 628 1031 l 942 0 l 693 0 l 640 188 l 313 188 l 261 0 l 14 0 l 328 1031 m 585 403 l 476 825 l 368 403 l 585 403 m 754 -269 q 642 -232 678 -269 q 606 -143 606 -194 q 693 0 606 -49 l 779 0 q 733 -42 747 -22 q 719 -87 719 -62 q 739 -134 719 -117 q 788 -151 758 -151 l 801 -151 l 801 -264 q 754 -269 789 -269 z "},"Å":{"ha":957,"x_min":14,"x_max":942,"o":"m 328 1031 l 628 1031 l 942 0 l 693 0 l 640 188 l 313 188 l 261 0 l 14 0 l 328 1031 m 585 403 l 476 825 l 368 403 l 585 403 m 478 1068 q 344 1104 389 1068 q 300 1228 300 1140 q 344 1351 300 1314 q 478 1389 389 1389 q 611 1352 568 1389 q 654 1228 654 1315 q 611 1104 654 1140 q 478 1068 568 1068 m 478 1154 q 529 1170 514 1154 q 544 1228 544 1186 q 529 1285 544 1268 q 478 1301 514 1301 q 426 1285 443 1301 q 410 1228 410 1268 q 426 1171 410 1188 q 478 1154 442 1154 z "},"Ǻ":{"ha":957,"x_min":14,"x_max":942,"o":"m 478 1068 q 344 1104 389 1068 q 300 1228 300 1140 q 331 1338 300 1300 q 424 1385 363 1375 l 519 1567 l 711 1567 l 564 1378 q 632 1326 610 1363 q 654 1228 654 1290 q 611 1104 654 1140 q 478 1068 568 1068 m 478 1301 q 426 1285 443 1301 q 410 1228 410 1268 q 426 1171 410 1188 q 478 1154 442 1154 q 529 1170 514 1154 q 544 1228 544 1186 q 529 1285 544 1268 q 478 1301 514 1301 m 942 0 l 693 0 l 640 188 l 313 188 l 261 0 l 14 0 l 328 1031 l 628 1031 l 942 0 m 585 403 l 476 825 l 368 403 l 585 403 z "},"Ã":{"ha":957,"x_min":14,"x_max":942,"o":"m 328 1031 l 628 1031 l 942 0 l 693 0 l 640 188 l 313 188 l 261 0 l 14 0 l 328 1031 m 585 403 l 476 825 l 368 403 l 585 403 m 207 1088 q 253 1233 213 1188 q 357 1279 294 1279 q 417 1271 392 1279 q 478 1246 443 1263 q 556 1221 522 1221 q 607 1288 603 1221 l 725 1288 q 579 1089 717 1089 q 516 1098 544 1089 q 453 1124 488 1107 q 411 1142 428 1136 q 379 1147 394 1147 q 342 1131 356 1147 q 326 1088 329 1115 l 207 1088 z "},"Æ":{"ha":1371,"x_min":14,"x_max":1315,"o":"m 910 -8 q 722 27 783 -8 q 649 156 660 63 l 647 188 l 358 188 l 249 0 l 14 0 l 406 736 q 530 913 463 849 q 684 1003 597 976 q 893 1031 771 1031 q 1315 1010 1094 1029 l 1315 808 l 940 808 q 881 791 899 808 q 863 738 863 774 l 863 622 l 1247 608 l 1247 419 l 863 407 l 863 299 q 888 232 863 247 q 958 217 913 217 l 1315 217 l 1315 18 q 910 -8 1108 -7 m 647 390 l 647 754 l 464 390 l 647 390 z "},"Ǽ":{"ha":1371,"x_min":14,"x_max":1315,"o":"m 910 -8 q 722 27 783 -8 q 649 156 660 63 l 647 188 l 358 188 l 249 0 l 14 0 l 406 736 q 530 913 463 849 q 684 1003 597 976 q 893 1031 771 1031 q 1315 1010 1094 1029 l 1315 808 l 940 808 q 881 791 899 808 q 863 738 863 774 l 863 622 l 1247 608 l 1247 419 l 863 407 l 863 299 q 888 232 863 247 q 958 217 913 217 l 1315 217 l 1315 18 q 910 -8 1108 -7 m 647 390 l 647 754 l 464 390 l 647 390 m 783 1296 l 975 1296 l 821 1099 l 679 1099 l 783 1296 z "},"B":{"ha":883,"x_min":82,"x_max":835,"o":"m 82 1031 l 499 1031 q 803 757 803 1031 q 767 610 803 667 q 661 535 731 553 q 785 453 736 517 q 835 283 835 389 q 756 66 835 132 q 518 0 678 0 l 82 0 l 82 1031 m 499 615 q 555 643 535 615 q 575 715 575 671 q 553 792 575 768 q 497 815 531 815 l 322 815 l 322 615 l 499 615 m 511 215 q 582 243 557 215 q 607 326 607 271 q 581 405 607 376 q 511 433 556 433 l 322 433 l 322 215 l 511 215 z "},"Ḃ":{"ha":883,"x_min":82,"x_max":835,"o":"m 82 1031 l 499 1031 q 803 757 803 1031 q 767 610 803 667 q 661 535 731 553 q 785 453 736 517 q 835 283 835 389 q 756 66 835 132 q 518 0 678 0 l 82 0 l 82 1031 m 499 615 q 555 643 535 615 q 575 715 575 671 q 553 792 575 768 q 497 815 531 815 l 322 815 l 322 615 l 499 615 m 511 215 q 582 243 557 215 q 607 326 607 271 q 581 405 607 376 q 511 433 556 433 l 322 433 l 322 215 l 511 215 m 349 1110 q 326 1118 335 1110 q 317 1140 317 1126 l 317 1285 q 349 1318 317 1318 l 460 1318 q 482 1309 474 1318 q 490 1285 490 1300 l 490 1140 q 460 1110 490 1110 l 349 1110 z "},"C":{"ha":817,"x_min":56,"x_max":764,"o":"m 432 -8 q 224 33 304 -8 q 99 190 143 75 q 56 518 56 304 q 101 839 56 725 q 228 997 146 953 q 433 1040 310 1040 q 624 1025 539 1040 q 764 988 708 1010 l 764 801 q 485 825 636 825 q 371 802 410 825 q 314 714 332 779 q 296 517 296 649 q 311 323 296 388 q 367 233 326 258 q 486 207 407 207 q 764 221 674 207 l 764 35 q 432 -8 646 -8 z "},"Ć":{"ha":817,"x_min":56,"x_max":764,"o":"m 432 -8 q 224 33 304 -8 q 99 190 143 75 q 56 518 56 304 q 101 839 56 725 q 228 997 146 953 q 433 1040 310 1040 q 624 1025 539 1040 q 764 988 708 1010 l 764 801 q 485 825 636 825 q 371 802 410 825 q 314 714 332 779 q 296 517 296 649 q 311 323 296 388 q 367 233 326 258 q 486 207 407 207 q 764 221 674 207 l 764 35 q 432 -8 646 -8 m 478 1296 l 669 1296 l 515 1099 l 374 1099 l 478 1296 z "},"Č":{"ha":817,"x_min":56,"x_max":764,"o":"m 432 -8 q 224 33 304 -8 q 99 190 143 75 q 56 518 56 304 q 101 839 56 725 q 228 997 146 953 q 433 1040 310 1040 q 624 1025 539 1040 q 764 988 708 1010 l 764 801 q 485 825 636 825 q 371 802 410 825 q 314 714 332 779 q 296 517 296 649 q 311 323 296 388 q 367 233 326 258 q 486 207 407 207 q 764 221 674 207 l 764 35 q 432 -8 646 -8 m 218 1299 l 356 1299 l 435 1204 l 518 1299 l 657 1299 l 513 1099 l 350 1099 l 218 1299 z "},"Ç":{"ha":817,"x_min":56,"x_max":764,"o":"m 485 825 q 371 802 410 825 q 314 714 332 779 q 296 517 296 649 q 311 323 296 388 q 367 233 326 258 q 486 207 407 207 q 764 221 674 207 l 764 35 q 542 -6 679 4 l 503 -68 q 567 -98 542 -74 q 592 -162 592 -122 q 553 -249 592 -218 q 439 -279 515 -279 l 364 -279 l 364 -181 l 386 -176 q 438 -135 438 -168 q 383 -87 438 -99 l 432 -8 q 224 33 304 -8 q 99 190 143 75 q 56 518 56 304 q 101 839 56 725 q 228 997 146 953 q 433 1040 310 1040 q 624 1025 539 1040 q 764 988 708 1010 l 764 801 q 485 825 636 825 z "},"Ḉ":{"ha":817,"x_min":56,"x_max":764,"o":"m 515 1099 l 374 1099 l 478 1296 l 669 1296 l 515 1099 m 485 825 q 371 802 410 825 q 314 714 332 779 q 296 517 296 649 q 311 323 296 388 q 367 233 326 258 q 486 207 407 207 q 764 221 674 207 l 764 35 q 542 -6 679 4 l 503 -68 q 567 -98 542 -74 q 592 -162 592 -122 q 553 -249 592 -218 q 439 -279 515 -279 l 364 -279 l 364 -181 l 386 -176 q 438 -135 438 -168 q 383 -87 438 -99 l 432 -8 q 224 33 304 -8 q 99 190 143 75 q 56 518 56 304 q 101 839 56 725 q 228 997 146 953 q 433 1040 310 1040 q 624 1025 539 1040 q 764 988 708 1010 l 764 801 q 485 825 636 825 z "},"Ĉ":{"ha":817,"x_min":56,"x_max":764,"o":"m 432 -8 q 224 33 304 -8 q 99 190 143 75 q 56 518 56 304 q 101 839 56 725 q 228 997 146 953 q 433 1040 310 1040 q 624 1025 539 1040 q 764 988 708 1010 l 764 801 q 485 825 636 825 q 371 802 410 825 q 314 714 332 779 q 296 517 296 649 q 311 323 296 388 q 367 233 326 258 q 486 207 407 207 q 764 221 674 207 l 764 35 q 432 -8 646 -8 m 358 1299 l 521 1299 l 653 1099 l 514 1099 l 436 1193 l 353 1099 l 214 1099 l 358 1299 z "},"Ċ":{"ha":817,"x_min":56,"x_max":764,"o":"m 432 -8 q 224 33 304 -8 q 99 190 143 75 q 56 518 56 304 q 101 839 56 725 q 228 997 146 953 q 433 1040 310 1040 q 624 1025 539 1040 q 764 988 708 1010 l 764 801 q 485 825 636 825 q 371 802 410 825 q 314 714 332 779 q 296 517 296 649 q 311 323 296 388 q 367 233 326 258 q 486 207 407 207 q 764 221 674 207 l 764 35 q 432 -8 646 -8 m 375 1110 q 352 1118 361 1110 q 343 1140 343 1126 l 343 1285 q 375 1318 343 1318 l 486 1318 q 508 1309 500 1318 q 517 1285 517 1300 l 517 1140 q 486 1110 517 1110 l 375 1110 z "},"D":{"ha":951,"x_min":82,"x_max":894,"o":"m 82 1031 l 528 1031 q 813 895 731 1031 q 894 514 894 760 q 804 125 894 250 q 528 0 714 0 l 82 0 l 82 1031 m 504 215 q 622 286 588 215 q 656 514 656 357 q 638 703 656 638 q 589 792 621 768 q 504 815 557 815 l 322 815 l 322 215 l 504 215 z "},"Ð":{"ha":951,"x_min":15,"x_max":894,"o":"m 528 1031 q 813 895 731 1031 q 894 514 894 760 q 804 125 894 250 q 528 0 714 0 l 82 0 l 82 440 l 15 440 l 15 596 l 82 596 l 82 1031 l 528 1031 m 504 215 q 622 286 588 215 q 656 514 656 357 q 638 703 656 638 q 589 792 621 768 q 504 815 557 815 l 322 815 l 322 596 l 461 596 l 461 440 l 322 440 l 322 215 l 504 215 z "},"Ď":{"ha":951,"x_min":82,"x_max":894,"o":"m 82 1031 l 528 1031 q 813 895 731 1031 q 894 514 894 760 q 804 125 894 250 q 528 0 714 0 l 82 0 l 82 1031 m 504 215 q 622 286 588 215 q 656 514 656 357 q 638 703 656 638 q 589 792 621 768 q 504 815 557 815 l 322 815 l 322 215 l 504 215 m 243 1299 l 381 1299 l 460 1204 l 543 1299 l 682 1299 l 538 1099 l 375 1099 l 243 1299 z "},"Đ":{"ha":951,"x_min":15,"x_max":894,"o":"m 528 1031 q 813 895 731 1031 q 894 514 894 760 q 804 125 894 250 q 528 0 714 0 l 82 0 l 82 440 l 15 440 l 15 596 l 82 596 l 82 1031 l 528 1031 m 504 215 q 622 286 588 215 q 656 514 656 357 q 638 703 656 638 q 589 792 621 768 q 504 815 557 815 l 322 815 l 322 596 l 461 596 l 461 440 l 322 440 l 322 215 l 504 215 z "},"Ḋ":{"ha":951,"x_min":82,"x_max":894,"o":"m 82 1031 l 528 1031 q 813 895 731 1031 q 894 514 894 760 q 804 125 894 250 q 528 0 714 0 l 82 0 l 82 1031 m 504 215 q 622 286 588 215 q 656 514 656 357 q 638 703 656 638 q 589 792 621 768 q 504 815 557 815 l 322 815 l 322 215 l 504 215 m 400 1110 q 377 1118 386 1110 q 368 1140 368 1126 l 368 1285 q 400 1318 368 1318 l 511 1318 q 533 1309 525 1318 q 542 1285 542 1300 l 542 1140 q 511 1110 542 1110 l 400 1110 z "},"Ḍ":{"ha":951,"x_min":82,"x_max":894,"o":"m 82 1031 l 528 1031 q 813 895 731 1031 q 894 514 894 760 q 804 125 894 250 q 528 0 714 0 l 82 0 l 82 1031 m 504 215 q 622 286 588 215 q 656 514 656 357 q 638 703 656 638 q 589 792 621 768 q 504 815 557 815 l 322 815 l 322 215 l 504 215 m 351 -321 q 328 -312 338 -321 q 319 -290 319 -304 l 319 -146 q 351 -112 319 -112 l 463 -112 q 485 -122 476 -112 q 493 -146 493 -131 l 493 -290 q 463 -321 493 -321 l 351 -321 z "},"Ḏ":{"ha":951,"x_min":82,"x_max":894,"o":"m 82 1031 l 528 1031 q 813 895 731 1031 q 894 514 894 760 q 804 125 894 250 q 528 0 714 0 l 82 0 l 82 1031 m 504 215 q 622 286 588 215 q 656 514 656 357 q 638 703 656 638 q 589 792 621 768 q 504 815 557 815 l 322 815 l 322 215 l 504 215 m 213 -167 l 611 -167 l 611 -307 l 213 -307 l 213 -167 z "},"E":{"ha":835,"x_min":82,"x_max":779,"o":"m 344 -8 q 82 229 82 -8 l 82 783 q 155 973 82 915 q 329 1031 228 1031 q 779 1011 560 1029 l 779 808 l 401 808 q 343 790 364 808 q 322 736 322 772 l 322 622 l 711 608 l 711 419 l 322 407 l 322 299 q 342 237 322 257 q 394 217 363 217 l 779 217 l 779 15 q 344 -8 613 -6 z "},"É":{"ha":835,"x_min":82,"x_max":779,"o":"m 344 -8 q 82 229 82 -8 l 82 783 q 155 973 82 915 q 329 1031 228 1031 q 779 1011 560 1029 l 779 808 l 401 808 q 343 790 364 808 q 322 736 322 772 l 322 622 l 711 608 l 711 419 l 322 407 l 322 299 q 342 237 322 257 q 394 217 363 217 l 779 217 l 779 15 q 344 -8 613 -6 m 479 1296 l 671 1296 l 517 1099 l 375 1099 l 479 1296 z "},"Ĕ":{"ha":835,"x_min":82,"x_max":779,"o":"m 344 -8 q 82 229 82 -8 l 82 783 q 155 973 82 915 q 329 1031 228 1031 q 779 1011 560 1029 l 779 808 l 401 808 q 343 790 364 808 q 322 736 322 772 l 322 622 l 711 608 l 711 419 l 322 407 l 322 299 q 342 237 322 257 q 394 217 363 217 l 779 217 l 779 15 q 344 -8 613 -6 m 426 1086 q 281 1140 332 1086 q 231 1300 231 1193 l 340 1300 q 364 1219 340 1244 q 424 1194 388 1194 q 490 1219 467 1194 q 513 1300 513 1243 l 626 1300 q 426 1086 626 1086 z "},"Ě":{"ha":835,"x_min":82,"x_max":779,"o":"m 344 -8 q 82 229 82 -8 l 82 783 q 155 973 82 915 q 329 1031 228 1031 q 779 1011 560 1029 l 779 808 l 401 808 q 343 790 364 808 q 322 736 322 772 l 322 622 l 711 608 l 711 419 l 322 407 l 322 299 q 342 237 322 257 q 394 217 363 217 l 779 217 l 779 15 q 344 -8 613 -6 m 219 1299 l 357 1299 l 436 1204 l 519 1299 l 658 1299 l 514 1099 l 351 1099 l 219 1299 z "},"Ḝ":{"ha":835,"x_min":82,"x_max":779,"o":"m 426 1086 q 281 1140 332 1086 q 231 1300 231 1193 l 340 1300 q 364 1219 340 1244 q 424 1194 388 1194 q 490 1219 467 1194 q 513 1300 513 1243 l 626 1300 q 426 1086 626 1086 m 401 808 q 343 790 364 808 q 322 736 322 772 l 322 622 l 711 608 l 711 419 l 322 407 l 322 299 q 342 237 322 257 q 394 217 363 217 l 779 217 l 779 15 q 540 -3 692 4 l 500 -68 q 564 -98 539 -74 q 589 -162 589 -122 q 551 -249 589 -218 q 436 -279 513 -279 l 361 -279 l 361 -181 l 383 -176 q 435 -135 435 -168 q 381 -87 435 -99 l 431 -7 l 344 -8 q 82 229 82 -8 l 82 783 q 155 973 82 915 q 329 1031 228 1031 q 779 1011 560 1029 l 779 808 l 401 808 z "},"Ê":{"ha":835,"x_min":82,"x_max":779,"o":"m 344 -8 q 82 229 82 -8 l 82 783 q 155 973 82 915 q 329 1031 228 1031 q 779 1011 560 1029 l 779 808 l 401 808 q 343 790 364 808 q 322 736 322 772 l 322 622 l 711 608 l 711 419 l 322 407 l 322 299 q 342 237 322 257 q 394 217 363 217 l 779 217 l 779 15 q 344 -8 613 -6 m 360 1299 l 522 1299 l 654 1099 l 515 1099 l 438 1193 l 354 1099 l 215 1099 l 360 1299 z "},"Ế":{"ha":835,"x_min":82,"x_max":806,"o":"m 344 -8 q 82 229 82 -8 l 82 783 q 155 973 82 915 q 329 1031 228 1031 q 779 1011 560 1029 l 779 808 l 401 808 q 343 790 364 808 q 322 736 322 772 l 322 622 l 711 608 l 711 419 l 322 407 l 322 299 q 342 237 322 257 q 394 217 363 217 l 779 217 l 779 15 q 344 -8 613 -6 m 806 1393 l 711 1221 l 571 1221 l 614 1393 l 806 1393 m 522 1256 l 653 1099 l 515 1099 l 436 1150 l 354 1099 l 215 1099 l 360 1256 l 522 1256 z "},"Ệ":{"ha":835,"x_min":82,"x_max":779,"o":"m 344 -8 q 82 229 82 -8 l 82 783 q 155 973 82 915 q 329 1031 228 1031 q 779 1011 560 1029 l 779 808 l 401 808 q 343 790 364 808 q 322 736 322 772 l 322 622 l 711 608 l 711 419 l 322 407 l 322 299 q 342 237 322 257 q 394 217 363 217 l 779 217 l 779 15 q 344 -8 613 -6 m 360 1299 l 522 1299 l 654 1099 l 515 1099 l 438 1193 l 354 1099 l 215 1099 l 360 1299 m 413 -321 q 390 -312 399 -321 q 381 -290 381 -304 l 381 -146 q 413 -112 381 -112 l 524 -112 q 546 -122 538 -112 q 554 -146 554 -131 l 554 -290 q 524 -321 554 -321 l 413 -321 z "},"Ề":{"ha":835,"x_min":69,"x_max":779,"o":"m 344 -8 q 82 229 82 -8 l 82 783 q 155 973 82 915 q 329 1031 228 1031 q 779 1011 560 1029 l 779 808 l 401 808 q 343 790 364 808 q 322 736 322 772 l 322 622 l 711 608 l 711 419 l 322 407 l 322 299 q 342 237 322 257 q 394 217 363 217 l 779 217 l 779 15 q 344 -8 613 -6 m 261 1393 l 304 1221 l 163 1221 l 69 1393 l 261 1393 m 522 1256 l 653 1099 l 515 1099 l 436 1150 l 354 1099 l 215 1099 l 360 1256 l 522 1256 z "},"Ể":{"ha":835,"x_min":82,"x_max":779,"o":"m 344 -8 q 82 229 82 -8 l 82 783 q 155 973 82 915 q 329 1031 228 1031 q 779 1011 560 1029 l 779 808 l 401 808 q 343 790 364 808 q 322 736 322 772 l 322 622 l 711 608 l 711 419 l 322 407 l 322 299 q 342 237 322 257 q 394 217 363 217 l 779 217 l 779 15 q 344 -8 613 -6 m 606 1281 q 639 1319 639 1290 q 613 1344 639 1344 q 569 1336 597 1344 l 569 1417 q 644 1428 603 1428 q 751 1335 751 1428 q 717 1237 751 1275 q 606 1176 682 1199 l 606 1281 m 360 1256 l 522 1256 l 653 1099 l 515 1099 l 436 1150 l 354 1099 l 215 1099 l 360 1256 z "},"Ễ":{"ha":835,"x_min":82,"x_max":779,"o":"m 344 -8 q 82 229 82 -8 l 82 783 q 155 973 82 915 q 329 1031 228 1031 q 779 1011 560 1029 l 779 808 l 401 808 q 343 790 364 808 q 322 736 322 772 l 322 622 l 711 608 l 711 419 l 322 407 l 322 299 q 342 237 322 257 q 394 217 363 217 l 779 217 l 779 15 q 344 -8 613 -6 m 328 1458 q 376 1453 351 1458 q 422 1440 401 1447 q 481 1426 464 1426 q 515 1437 503 1426 q 528 1467 528 1447 l 646 1467 q 611 1345 639 1378 q 525 1313 583 1313 q 419 1332 483 1313 q 360 1344 376 1344 q 335 1335 344 1344 q 324 1310 326 1325 l 204 1310 q 243 1428 213 1397 q 328 1458 274 1458 m 653 1099 l 515 1099 l 436 1150 l 354 1099 l 215 1099 l 360 1256 l 522 1256 l 653 1099 z "},"Ȅ":{"ha":835,"x_min":82,"x_max":779,"o":"m 344 -8 q 82 229 82 -8 l 82 783 q 155 973 82 915 q 329 1031 228 1031 q 779 1011 560 1029 l 779 808 l 401 808 q 343 790 364 808 q 322 736 322 772 l 322 622 l 711 608 l 711 419 l 322 407 l 322 299 q 342 237 322 257 q 394 217 363 217 l 779 217 l 779 15 q 344 -8 613 -6 m 100 1296 l 292 1296 l 396 1099 l 256 1099 l 100 1296 m 364 1296 l 556 1296 l 660 1099 l 519 1099 l 364 1296 z "},"Ë":{"ha":835,"x_min":82,"x_max":779,"o":"m 344 -8 q 82 229 82 -8 l 82 783 q 155 973 82 915 q 329 1031 228 1031 q 779 1011 560 1029 l 779 808 l 401 808 q 343 790 364 808 q 322 736 322 772 l 322 622 l 711 608 l 711 419 l 322 407 l 322 299 q 342 237 322 257 q 394 217 363 217 l 779 217 l 779 15 q 344 -8 613 -6 m 231 1100 q 208 1108 217 1100 q 199 1131 199 1117 l 199 1275 q 231 1308 199 1308 l 342 1308 q 364 1299 356 1308 q 372 1275 372 1290 l 372 1131 q 342 1100 372 1100 l 231 1100 m 514 1100 q 492 1108 500 1100 q 483 1131 483 1117 l 483 1275 q 514 1308 483 1308 l 625 1308 q 647 1299 639 1308 q 656 1275 656 1290 l 656 1131 q 625 1100 656 1100 l 514 1100 z "},"Ė":{"ha":835,"x_min":82,"x_max":779,"o":"m 344 -8 q 82 229 82 -8 l 82 783 q 155 973 82 915 q 329 1031 228 1031 q 779 1011 560 1029 l 779 808 l 401 808 q 343 790 364 808 q 322 736 322 772 l 322 622 l 711 608 l 711 419 l 322 407 l 322 299 q 342 237 322 257 q 394 217 363 217 l 779 217 l 779 15 q 344 -8 613 -6 m 376 1110 q 353 1118 363 1110 q 344 1140 344 1126 l 344 1285 q 376 1318 344 1318 l 488 1318 q 510 1309 501 1318 q 518 1285 518 1300 l 518 1140 q 488 1110 518 1110 l 376 1110 z "},"Ẹ":{"ha":835,"x_min":82,"x_max":779,"o":"m 344 -8 q 82 229 82 -8 l 82 783 q 155 973 82 915 q 329 1031 228 1031 q 779 1011 560 1029 l 779 808 l 401 808 q 343 790 364 808 q 322 736 322 772 l 322 622 l 711 608 l 711 419 l 322 407 l 322 299 q 342 237 322 257 q 394 217 363 217 l 779 217 l 779 15 q 344 -8 613 -6 m 413 -321 q 390 -312 399 -321 q 381 -290 381 -304 l 381 -146 q 413 -112 381 -112 l 524 -112 q 546 -122 538 -112 q 554 -146 554 -131 l 554 -290 q 524 -321 554 -321 l 413 -321 z "},"È":{"ha":835,"x_min":82,"x_max":779,"o":"m 344 -8 q 82 229 82 -8 l 82 783 q 155 973 82 915 q 329 1031 228 1031 q 779 1011 560 1029 l 779 808 l 401 808 q 343 790 364 808 q 322 736 322 772 l 322 622 l 711 608 l 711 419 l 322 407 l 322 299 q 342 237 322 257 q 394 217 363 217 l 779 217 l 779 15 q 344 -8 613 -6 m 240 1296 l 432 1296 l 536 1099 l 394 1099 l 240 1296 z "},"Ẻ":{"ha":835,"x_min":82,"x_max":779,"o":"m 344 -8 q 82 229 82 -8 l 82 783 q 155 973 82 915 q 329 1031 228 1031 q 779 1011 560 1029 l 779 808 l 401 808 q 343 790 364 808 q 322 736 322 772 l 322 622 l 711 608 l 711 419 l 322 407 l 322 299 q 342 237 322 257 q 394 217 363 217 l 779 217 l 779 15 q 344 -8 613 -6 m 392 1172 q 439 1219 439 1186 q 399 1249 439 1249 q 356 1240 386 1249 l 356 1333 q 431 1344 389 1344 q 530 1315 497 1344 q 563 1228 563 1285 q 522 1131 563 1168 q 392 1068 482 1093 l 392 1172 z "},"Ȇ":{"ha":835,"x_min":82,"x_max":779,"o":"m 344 -8 q 82 229 82 -8 l 82 783 q 155 973 82 915 q 329 1031 228 1031 q 779 1011 560 1029 l 779 808 l 401 808 q 343 790 364 808 q 322 736 322 772 l 322 622 l 711 608 l 711 419 l 322 407 l 322 299 q 342 237 322 257 q 394 217 363 217 l 779 217 l 779 15 q 344 -8 613 -6 m 439 1303 q 584 1249 533 1303 q 635 1089 635 1196 l 525 1089 q 501 1169 525 1144 q 442 1194 478 1194 q 376 1170 399 1194 q 353 1089 353 1146 l 239 1089 q 439 1303 239 1303 z "},"Ē":{"ha":835,"x_min":82,"x_max":779,"o":"m 344 -8 q 82 229 82 -8 l 82 783 q 155 973 82 915 q 329 1031 228 1031 q 779 1011 560 1029 l 779 808 l 401 808 q 343 790 364 808 q 322 736 322 772 l 322 622 l 711 608 l 711 419 l 322 407 l 322 299 q 342 237 322 257 q 394 217 363 217 l 779 217 l 779 15 q 344 -8 613 -6 m 229 1250 l 628 1250 l 628 1110 l 229 1110 l 229 1250 z "},"Ḗ":{"ha":835,"x_min":82,"x_max":779,"o":"m 344 -8 q 82 229 82 -8 l 82 783 q 155 973 82 915 q 329 1031 228 1031 q 779 1011 560 1029 l 779 808 l 401 808 q 343 790 364 808 q 322 736 322 772 l 322 622 l 711 608 l 711 419 l 322 407 l 322 299 q 342 237 322 257 q 394 217 363 217 l 779 217 l 779 15 q 344 -8 613 -6 m 229 1250 l 628 1250 l 628 1110 l 229 1110 l 229 1250 m 463 1499 l 654 1499 l 500 1301 l 358 1301 l 463 1499 z "},"Ḕ":{"ha":835,"x_min":82,"x_max":779,"o":"m 344 -8 q 82 229 82 -8 l 82 783 q 155 973 82 915 q 329 1031 228 1031 q 779 1011 560 1029 l 779 808 l 401 808 q 343 790 364 808 q 322 736 322 772 l 322 622 l 711 608 l 711 419 l 322 407 l 322 299 q 342 237 322 257 q 394 217 363 217 l 779 217 l 779 15 q 344 -8 613 -6 m 229 1250 l 628 1250 l 628 1110 l 229 1110 l 229 1250 m 203 1499 l 394 1499 l 499 1301 l 357 1301 l 203 1499 z "},"Ę":{"ha":835,"x_min":82,"x_max":801,"o":"m 801 -136 l 801 -249 q 754 -254 789 -254 q 642 -217 678 -254 q 606 -128 606 -179 q 676 6 606 -44 q 344 -8 531 -6 q 82 229 82 -8 l 82 783 q 155 973 82 915 q 329 1031 228 1031 q 779 1011 560 1029 l 779 808 l 401 808 q 343 790 364 808 q 322 736 322 772 l 322 622 l 711 608 l 711 419 l 322 407 l 322 299 q 342 237 322 257 q 394 217 363 217 l 779 217 l 779 15 q 733 -27 747 -7 q 719 -72 719 -47 q 739 -119 719 -101 q 788 -136 758 -136 l 801 -136 z "},"Ẽ":{"ha":835,"x_min":82,"x_max":779,"o":"m 344 -8 q 82 229 82 -8 l 82 783 q 155 973 82 915 q 329 1031 228 1031 q 779 1011 560 1029 l 779 808 l 401 808 q 343 790 364 808 q 322 736 322 772 l 322 622 l 711 608 l 711 419 l 322 407 l 322 299 q 342 237 322 257 q 394 217 363 217 l 779 217 l 779 15 q 344 -8 613 -6 m 167 1088 q 213 1233 172 1188 q 317 1279 254 1279 q 377 1271 351 1279 q 438 1246 403 1263 q 515 1221 482 1221 q 567 1288 563 1221 l 685 1288 q 539 1089 676 1089 q 476 1098 504 1089 q 413 1124 447 1107 q 371 1142 388 1136 q 339 1147 354 1147 q 302 1131 315 1147 q 286 1088 289 1115 l 167 1088 z "},"F":{"ha":817,"x_min":82,"x_max":779,"o":"m 82 783 q 155 973 82 915 q 329 1031 228 1031 l 365 1031 q 779 1010 633 1026 l 779 808 l 397 808 q 342 789 361 808 q 322 739 322 769 l 322 594 l 711 582 l 711 392 l 322 379 l 322 0 l 82 0 l 82 783 z "},"Ḟ":{"ha":817,"x_min":82,"x_max":779,"o":"m 82 783 q 155 973 82 915 q 329 1031 228 1031 l 365 1031 q 779 1010 633 1026 l 779 808 l 397 808 q 342 789 361 808 q 322 739 322 769 l 322 594 l 711 582 l 711 392 l 322 379 l 322 0 l 82 0 l 82 783 m 376 1110 q 353 1118 363 1110 q 344 1140 344 1126 l 344 1285 q 376 1318 344 1318 l 488 1318 q 510 1309 501 1318 q 518 1285 518 1300 l 518 1140 q 488 1110 518 1110 l 376 1110 z "},"G":{"ha":932,"x_min":56,"x_max":850,"o":"m 369 -7 q 123 128 190 -7 q 56 514 56 263 q 88 803 56 690 q 205 978 119 917 q 447 1040 290 1040 q 626 1028 551 1040 q 800 992 700 1017 l 800 806 q 492 825 657 825 q 366 797 407 825 q 310 705 325 769 q 296 514 296 640 q 310 326 296 390 q 357 238 325 263 q 449 214 389 214 q 544 220 499 214 q 619 235 590 226 l 619 399 l 457 399 l 457 589 q 569 599 500 594 q 697 603 639 603 q 850 599 788 603 l 850 0 l 669 0 l 638 69 q 521 17 593 40 q 369 -7 449 -7 z "},"Ğ":{"ha":932,"x_min":56,"x_max":850,"o":"m 369 -7 q 123 128 190 -7 q 56 514 56 263 q 88 803 56 690 q 205 978 119 917 q 447 1040 290 1040 q 626 1028 551 1040 q 800 992 700 1017 l 800 806 q 492 825 657 825 q 366 797 407 825 q 310 705 325 769 q 296 514 296 640 q 310 326 296 390 q 357 238 325 263 q 449 214 389 214 q 544 220 499 214 q 619 235 590 226 l 619 399 l 457 399 l 457 589 q 569 599 500 594 q 697 603 639 603 q 850 599 788 603 l 850 0 l 669 0 l 638 69 q 521 17 593 40 q 369 -7 449 -7 m 442 1086 q 297 1140 347 1086 q 246 1300 246 1193 l 356 1300 q 379 1219 356 1244 q 439 1194 403 1194 q 505 1219 482 1194 q 528 1300 528 1243 l 642 1300 q 442 1086 642 1086 z "},"Ǧ":{"ha":932,"x_min":56,"x_max":850,"o":"m 369 -7 q 123 128 190 -7 q 56 514 56 263 q 88 803 56 690 q 205 978 119 917 q 447 1040 290 1040 q 626 1028 551 1040 q 800 992 700 1017 l 800 806 q 492 825 657 825 q 366 797 407 825 q 310 705 325 769 q 296 514 296 640 q 310 326 296 390 q 357 238 325 263 q 449 214 389 214 q 544 220 499 214 q 619 235 590 226 l 619 399 l 457 399 l 457 589 q 569 599 500 594 q 697 603 639 603 q 850 599 788 603 l 850 0 l 669 0 l 638 69 q 521 17 593 40 q 369 -7 449 -7 m 235 1299 l 372 1299 l 451 1204 l 535 1299 l 674 1299 l 529 1099 l 367 1099 l 235 1299 z "},"Ĝ":{"ha":932,"x_min":56,"x_max":850,"o":"m 369 -7 q 123 128 190 -7 q 56 514 56 263 q 88 803 56 690 q 205 978 119 917 q 447 1040 290 1040 q 626 1028 551 1040 q 800 992 700 1017 l 800 806 q 492 825 657 825 q 366 797 407 825 q 310 705 325 769 q 296 514 296 640 q 310 326 296 390 q 357 238 325 263 q 449 214 389 214 q 544 220 499 214 q 619 235 590 226 l 619 399 l 457 399 l 457 589 q 569 599 500 594 q 697 603 639 603 q 850 599 788 603 l 850 0 l 669 0 l 638 69 q 521 17 593 40 q 369 -7 449 -7 m 375 1299 l 538 1299 l 669 1099 l 531 1099 l 453 1193 l 369 1099 l 231 1099 l 375 1299 z "},"Ģ":{"ha":932,"x_min":56,"x_max":850,"o":"m 369 -7 q 123 128 190 -7 q 56 514 56 263 q 88 803 56 690 q 205 978 119 917 q 447 1040 290 1040 q 626 1028 551 1040 q 800 992 700 1017 l 800 806 q 492 825 657 825 q 366 797 407 825 q 310 705 325 769 q 296 514 296 640 q 310 326 296 390 q 357 238 325 263 q 449 214 389 214 q 544 220 499 214 q 619 235 590 226 l 619 399 l 457 399 l 457 589 q 569 599 500 594 q 697 603 639 603 q 850 599 788 603 l 850 0 l 669 0 l 638 69 q 521 17 593 40 q 369 -7 449 -7 m 374 -208 l 410 -197 q 460 -169 447 -186 q 472 -106 472 -153 l 617 -106 q 581 -261 617 -215 q 451 -307 544 -307 l 374 -307 l 374 -208 z "},"Ġ":{"ha":932,"x_min":56,"x_max":850,"o":"m 369 -7 q 123 128 190 -7 q 56 514 56 263 q 88 803 56 690 q 205 978 119 917 q 447 1040 290 1040 q 626 1028 551 1040 q 800 992 700 1017 l 800 806 q 492 825 657 825 q 366 797 407 825 q 310 705 325 769 q 296 514 296 640 q 310 326 296 390 q 357 238 325 263 q 449 214 389 214 q 544 220 499 214 q 619 235 590 226 l 619 399 l 457 399 l 457 589 q 569 599 500 594 q 697 603 639 603 q 850 599 788 603 l 850 0 l 669 0 l 638 69 q 521 17 593 40 q 369 -7 449 -7 m 392 1110 q 369 1118 378 1110 q 360 1140 360 1126 l 360 1285 q 392 1318 360 1318 l 503 1318 q 525 1309 517 1318 q 533 1285 533 1300 l 533 1140 q 503 1110 533 1110 l 392 1110 z "},"Ḡ":{"ha":932,"x_min":56,"x_max":850,"o":"m 369 -7 q 123 128 190 -7 q 56 514 56 263 q 88 803 56 690 q 205 978 119 917 q 447 1040 290 1040 q 626 1028 551 1040 q 800 992 700 1017 l 800 806 q 492 825 657 825 q 366 797 407 825 q 310 705 325 769 q 296 514 296 640 q 310 326 296 390 q 357 238 325 263 q 449 214 389 214 q 544 220 499 214 q 619 235 590 226 l 619 399 l 457 399 l 457 589 q 569 599 500 594 q 697 603 639 603 q 850 599 788 603 l 850 0 l 669 0 l 638 69 q 521 17 593 40 q 369 -7 449 -7 m 244 1250 l 643 1250 l 643 1110 l 244 1110 l 244 1250 z "},"H":{"ha":988,"x_min":82,"x_max":906,"o":"m 82 1031 l 322 1031 l 322 619 l 665 619 l 665 1031 l 906 1031 l 906 0 l 665 0 l 665 404 l 322 404 l 322 0 l 82 0 l 82 1031 z "},"Ħ":{"ha":988,"x_min":15,"x_max":972,"o":"m 972 715 l 906 715 l 906 0 l 665 0 l 665 404 l 322 404 l 322 0 l 82 0 l 82 715 l 15 715 l 15 833 l 82 833 l 82 1031 l 322 1031 l 322 833 l 665 833 l 665 1031 l 906 1031 l 906 833 l 972 833 l 972 715 m 665 715 l 322 715 l 322 619 l 665 619 l 665 715 z "},"Ḫ":{"ha":988,"x_min":82,"x_max":906,"o":"m 82 1031 l 322 1031 l 322 619 l 665 619 l 665 1031 l 906 1031 l 906 0 l 665 0 l 665 404 l 322 404 l 322 0 l 82 0 l 82 1031 m 496 -317 q 351 -263 401 -317 q 300 -103 300 -210 l 410 -103 q 433 -183 410 -158 q 493 -208 457 -208 q 559 -184 536 -208 q 582 -103 582 -160 l 696 -103 q 496 -317 696 -317 z "},"Ĥ":{"ha":988,"x_min":82,"x_max":906,"o":"m 82 1031 l 322 1031 l 322 619 l 665 619 l 665 1031 l 906 1031 l 906 0 l 665 0 l 665 404 l 322 404 l 322 0 l 82 0 l 82 1031 m 418 1299 l 581 1299 l 713 1099 l 574 1099 l 496 1193 l 413 1099 l 274 1099 l 418 1299 z "},"Ḥ":{"ha":988,"x_min":82,"x_max":906,"o":"m 82 1031 l 322 1031 l 322 619 l 665 619 l 665 1031 l 906 1031 l 906 0 l 665 0 l 665 404 l 322 404 l 322 0 l 82 0 l 82 1031 m 439 -321 q 416 -312 425 -321 q 407 -290 407 -304 l 407 -146 q 439 -112 407 -112 l 550 -112 q 572 -122 564 -112 q 581 -146 581 -131 l 581 -290 q 550 -321 581 -321 l 439 -321 z "},"I":{"ha":404,"x_min":82,"x_max":322,"o":"m 82 1031 l 322 1031 l 322 0 l 82 0 l 82 1031 z "},"Í":{"ha":404,"x_min":82,"x_max":438,"o":"m 82 1031 l 322 1031 l 322 0 l 82 0 l 82 1031 m 246 1296 l 438 1296 l 283 1099 l 142 1099 l 246 1296 z "},"Ĭ":{"ha":404,"x_min":-3,"x_max":393,"o":"m 82 1031 l 322 1031 l 322 0 l 82 0 l 82 1031 m 193 1086 q 48 1140 99 1086 q -3 1300 -3 1193 l 107 1300 q 131 1219 107 1244 q 190 1194 154 1194 q 256 1219 233 1194 q 279 1300 279 1243 l 393 1300 q 193 1086 393 1086 z "},"Î":{"ha":404,"x_min":-18,"x_max":421,"o":"m 82 1031 l 322 1031 l 322 0 l 82 0 l 82 1031 m 126 1299 l 289 1299 l 421 1099 l 282 1099 l 204 1193 l 121 1099 l -18 1099 l 126 1299 z "},"Ȉ":{"ha":404,"x_min":-133,"x_max":426,"o":"m 82 1031 l 322 1031 l 322 0 l 82 0 l 82 1031 m -133 1296 l 58 1296 l 163 1099 l 22 1099 l -133 1296 m 131 1296 l 322 1296 l 426 1099 l 286 1099 l 131 1296 z "},"Ï":{"ha":404,"x_min":-35,"x_max":422,"o":"m 82 1031 l 322 1031 l 322 0 l 82 0 l 82 1031 m -3 1100 q -26 1108 -17 1100 q -35 1131 -35 1117 l -35 1275 q -3 1308 -35 1308 l 108 1308 q 131 1299 122 1308 q 139 1275 139 1290 l 139 1131 q 108 1100 139 1100 l -3 1100 m 281 1100 q 258 1108 267 1100 q 250 1131 250 1117 l 250 1275 q 281 1308 250 1308 l 392 1308 q 414 1299 406 1308 q 422 1275 422 1290 l 422 1131 q 392 1100 422 1100 l 281 1100 z "},"Ḯ":{"ha":404,"x_min":-35,"x_max":425,"o":"m 82 1031 l 322 1031 l 322 0 l 82 0 l 82 1031 m -3 1100 q -26 1108 -17 1100 q -35 1131 -35 1117 l -35 1275 q -3 1308 -35 1308 l 108 1308 q 131 1299 122 1308 q 139 1275 139 1290 l 139 1131 q 108 1100 139 1100 l -3 1100 m 281 1100 q 258 1108 267 1100 q 250 1131 250 1117 l 250 1275 q 281 1308 250 1308 l 392 1308 q 414 1299 406 1308 q 422 1275 422 1290 l 422 1131 q 392 1100 422 1100 l 281 1100 m 233 1553 l 425 1553 l 271 1356 l 129 1356 l 233 1553 z "},"İ":{"ha":404,"x_min":82,"x_max":322,"o":"m 82 1031 l 322 1031 l 322 0 l 82 0 l 82 1031 m 143 1110 q 120 1118 129 1110 q 111 1140 111 1126 l 111 1285 q 143 1318 111 1318 l 254 1318 q 276 1309 268 1318 q 285 1285 285 1300 l 285 1140 q 254 1110 285 1110 l 143 1110 z "},"Ị":{"ha":404,"x_min":82,"x_max":322,"o":"m 82 1031 l 322 1031 l 322 0 l 82 0 l 82 1031 m 147 -321 q 124 -312 133 -321 q 115 -290 115 -304 l 115 -146 q 147 -112 115 -112 l 258 -112 q 281 -122 272 -112 q 289 -146 289 -131 l 289 -290 q 258 -321 289 -321 l 147 -321 z "},"Ì":{"ha":404,"x_min":7,"x_max":322,"o":"m 82 1031 l 322 1031 l 322 0 l 82 0 l 82 1031 m 7 1296 l 199 1296 l 303 1099 l 161 1099 l 7 1296 z "},"Ỉ":{"ha":404,"x_min":82,"x_max":329,"o":"m 82 1031 l 322 1031 l 322 0 l 82 0 l 82 1031 m 158 1172 q 206 1219 206 1186 q 165 1249 206 1249 q 122 1240 153 1249 l 122 1333 q 197 1344 156 1344 q 297 1315 264 1344 q 329 1228 329 1285 q 289 1131 329 1168 q 158 1068 249 1093 l 158 1172 z "},"Ȋ":{"ha":404,"x_min":6,"x_max":401,"o":"m 82 1031 l 322 1031 l 322 0 l 82 0 l 82 1031 m 206 1303 q 351 1249 300 1303 q 401 1089 401 1196 l 292 1089 q 268 1169 292 1144 q 208 1194 244 1194 q 142 1170 165 1194 q 119 1089 119 1146 l 6 1089 q 206 1303 6 1303 z "},"Ī":{"ha":404,"x_min":-4,"x_max":394,"o":"m 82 1031 l 322 1031 l 322 0 l 82 0 l 82 1031 m -4 1250 l 394 1250 l 394 1110 l -4 1110 l -4 1250 z "},"Į":{"ha":404,"x_min":82,"x_max":344,"o":"m 82 1031 l 322 1031 l 322 0 l 82 0 l 82 1031 m 297 -269 q 185 -232 221 -269 q 149 -143 149 -194 q 236 0 149 -49 l 322 0 q 276 -42 290 -22 q 263 -87 263 -62 q 282 -134 263 -117 q 331 -151 301 -151 l 344 -151 l 344 -264 q 297 -269 332 -269 z "},"Ĩ":{"ha":404,"x_min":-67,"x_max":451,"o":"m 82 1031 l 322 1031 l 322 0 l 82 0 l 82 1031 m -67 1088 q -20 1233 -61 1188 q 83 1279 21 1279 q 144 1271 118 1279 q 204 1246 169 1263 q 282 1221 249 1221 q 333 1288 329 1221 l 451 1288 q 306 1089 443 1089 q 242 1098 271 1089 q 179 1124 214 1107 q 138 1142 154 1136 q 106 1147 121 1147 q 69 1131 82 1147 q 53 1088 56 1115 l -67 1088 z "},"J":{"ha":571,"x_min":36,"x_max":489,"o":"m 210 -8 q 36 18 118 -8 l 36 210 q 153 207 111 207 q 225 229 201 207 q 249 299 249 251 l 249 1031 l 489 1031 l 489 263 q 423 59 489 126 q 210 -8 357 -8 z "},"Ĵ":{"ha":571,"x_min":36,"x_max":588,"o":"m 210 -8 q 36 18 118 -8 l 36 210 q 153 207 111 207 q 225 229 201 207 q 249 299 249 251 l 249 1031 l 489 1031 l 489 263 q 423 59 489 126 q 210 -8 357 -8 m 293 1299 l 456 1299 l 588 1099 l 449 1099 l 371 1193 l 288 1099 l 149 1099 l 293 1299 z "},"K":{"ha":917,"x_min":82,"x_max":894,"o":"m 82 1031 l 322 1031 l 322 618 l 443 618 l 629 1031 l 883 1031 l 633 513 l 894 0 l 640 0 l 443 403 l 322 403 l 322 0 l 82 0 l 82 1031 z "},"Ķ":{"ha":917,"x_min":82,"x_max":894,"o":"m 82 1031 l 322 1031 l 322 618 l 443 618 l 629 1031 l 883 1031 l 633 513 l 894 0 l 640 0 l 443 403 l 322 403 l 322 0 l 82 0 l 82 1031 m 339 -208 l 375 -197 q 425 -169 413 -186 q 438 -106 438 -153 l 582 -106 q 546 -261 582 -215 q 417 -307 510 -307 l 339 -307 l 339 -208 z "},"L":{"ha":744,"x_min":82,"x_max":715,"o":"m 339 0 q 144 61 207 0 q 82 257 82 122 l 82 1031 l 322 1031 l 322 297 q 403 215 322 215 l 715 215 l 715 0 l 339 0 z "},"Ĺ":{"ha":744,"x_min":82,"x_max":715,"o":"m 339 0 q 144 61 207 0 q 82 257 82 122 l 82 1031 l 322 1031 l 322 297 q 403 215 322 215 l 715 215 l 715 0 l 339 0 m 246 1296 l 438 1296 l 283 1099 l 142 1099 l 246 1296 z "},"Ľ":{"ha":744,"x_min":82,"x_max":715,"o":"m 339 0 q 144 61 207 0 q 82 257 82 122 l 82 1031 l 322 1031 l 322 297 q 403 215 322 215 l 715 215 l 715 0 l 339 0 m 413 996 l 413 1088 l 629 1088 l 629 996 l 617 808 l 426 808 l 413 996 z "},"Ļ":{"ha":744,"x_min":82,"x_max":715,"o":"m 339 0 q 144 61 207 0 q 82 257 82 122 l 82 1031 l 322 1031 l 322 297 q 403 215 322 215 l 715 215 l 715 0 l 339 0 m 289 -208 l 325 -197 q 375 -169 363 -186 q 388 -106 388 -153 l 532 -106 q 496 -261 532 -215 q 367 -307 460 -307 l 289 -307 l 289 -208 z "},"Ŀ":{"ha":744,"x_min":82,"x_max":715,"o":"m 339 0 q 144 61 207 0 q 82 257 82 122 l 82 1031 l 322 1031 l 322 297 q 403 215 322 215 l 715 215 l 715 0 l 339 0 m 525 458 q 502 467 511 458 q 493 489 493 475 l 493 633 q 501 657 493 649 q 525 665 510 665 l 664 665 q 697 633 697 665 l 697 489 q 664 458 697 458 l 525 458 z "},"Ḷ":{"ha":744,"x_min":82,"x_max":715,"o":"m 339 0 q 144 61 207 0 q 82 257 82 122 l 82 1031 l 322 1031 l 322 297 q 403 215 322 215 l 715 215 l 715 0 l 339 0 m 354 -321 q 331 -312 340 -321 q 322 -290 322 -304 l 322 -146 q 354 -112 322 -112 l 465 -112 q 488 -122 479 -112 q 496 -146 496 -131 l 496 -290 q 465 -321 496 -321 l 354 -321 z "},"Ḻ":{"ha":744,"x_min":82,"x_max":715,"o":"m 339 0 q 144 61 207 0 q 82 257 82 122 l 82 1031 l 322 1031 l 322 297 q 403 215 322 215 l 715 215 l 715 0 l 339 0 m 215 -167 l 614 -167 l 614 -307 l 215 -307 l 215 -167 z "},"Ł":{"ha":744,"x_min":-7,"x_max":715,"o":"m 715 215 l 715 0 l 339 0 q 144 61 207 0 q 82 257 82 122 l 82 456 l -7 417 l -7 543 l 82 582 l 82 1031 l 322 1031 l 322 657 l 496 733 l 496 607 l 322 531 l 322 297 q 403 215 322 215 l 715 215 z "},"M":{"ha":1250,"x_min":54,"x_max":1196,"o":"m 965 0 l 892 610 l 736 0 l 511 0 l 356 601 l 286 0 l 54 0 l 175 1031 l 403 1031 l 626 276 l 849 1031 l 1074 1031 l 1196 0 l 965 0 z "},"Ṁ":{"ha":1250,"x_min":54,"x_max":1196,"o":"m 965 0 l 892 610 l 736 0 l 511 0 l 356 601 l 286 0 l 54 0 l 175 1031 l 403 1031 l 626 276 l 849 1031 l 1074 1031 l 1196 0 l 965 0 m 553 1110 q 530 1118 539 1110 q 521 1140 521 1126 l 521 1285 q 553 1318 521 1318 l 664 1318 q 686 1309 678 1318 q 694 1285 694 1300 l 694 1140 q 664 1110 694 1110 l 553 1110 z "},"Ṃ":{"ha":1250,"x_min":54,"x_max":1196,"o":"m 965 0 l 892 610 l 736 0 l 511 0 l 356 601 l 286 0 l 54 0 l 175 1031 l 403 1031 l 626 276 l 849 1031 l 1074 1031 l 1196 0 l 965 0 m 557 -321 q 534 -312 543 -321 q 525 -290 525 -304 l 525 -146 q 557 -112 525 -112 l 668 -112 q 690 -122 682 -112 q 699 -146 699 -131 l 699 -290 q 668 -321 699 -321 l 557 -321 z "},"N":{"ha":989,"x_min":86,"x_max":911,"o":"m 86 1031 l 276 1031 l 671 407 l 671 1031 l 911 1031 l 911 0 l 719 0 l 325 622 l 325 0 l 86 0 l 86 1031 z "},"Ń":{"ha":989,"x_min":86,"x_max":911,"o":"m 86 1031 l 276 1031 l 671 407 l 671 1031 l 911 1031 l 911 0 l 719 0 l 325 622 l 325 0 l 86 0 l 86 1031 m 519 1296 l 711 1296 l 557 1099 l 415 1099 l 519 1296 z "},"Ň":{"ha":989,"x_min":86,"x_max":911,"o":"m 86 1031 l 276 1031 l 671 407 l 671 1031 l 911 1031 l 911 0 l 719 0 l 325 622 l 325 0 l 86 0 l 86 1031 m 260 1299 l 397 1299 l 476 1204 l 560 1299 l 699 1299 l 554 1099 l 392 1099 l 260 1299 z "},"Ņ":{"ha":989,"x_min":86,"x_max":911,"o":"m 86 1031 l 276 1031 l 671 407 l 671 1031 l 911 1031 l 911 0 l 719 0 l 325 622 l 325 0 l 86 0 l 86 1031 m 356 -208 l 392 -197 q 442 -169 429 -186 q 454 -106 454 -153 l 599 -106 q 563 -261 599 -215 q 433 -307 526 -307 l 356 -307 l 356 -208 z "},"Ṅ":{"ha":989,"x_min":86,"x_max":911,"o":"m 86 1031 l 276 1031 l 671 407 l 671 1031 l 911 1031 l 911 0 l 719 0 l 325 622 l 325 0 l 86 0 l 86 1031 m 421 -321 q 398 -312 407 -321 q 389 -290 389 -304 l 389 -146 q 421 -112 389 -112 l 532 -112 q 554 -122 546 -112 q 563 -146 563 -131 l 563 -290 q 532 -321 563 -321 l 421 -321 z "},"Ṇ":{"ha":989,"x_min":86,"x_max":911,"o":"m 86 1031 l 276 1031 l 671 407 l 671 1031 l 911 1031 l 911 0 l 719 0 l 325 622 l 325 0 l 86 0 l 86 1031 m 421 -321 q 398 -312 407 -321 q 389 -290 389 -304 l 389 -146 q 421 -112 389 -112 l 532 -112 q 554 -122 546 -112 q 563 -146 563 -131 l 563 -290 q 532 -321 563 -321 l 421 -321 z "},"Ŋ":{"ha":978,"x_min":86,"x_max":911,"o":"m 911 1031 l 911 -67 q 844 -270 911 -203 q 628 -337 776 -337 q 535 -330 582 -337 q 456 -311 489 -322 l 456 -119 q 581 -122 536 -122 q 649 -100 626 -122 q 671 -31 671 -78 l 671 76 l 325 622 l 325 0 l 86 0 l 86 1031 l 276 1031 l 671 407 l 671 1031 l 911 1031 z "},"Ṉ":{"ha":989,"x_min":86,"x_max":911,"o":"m 86 1031 l 276 1031 l 671 407 l 671 1031 l 911 1031 l 911 0 l 719 0 l 325 622 l 325 0 l 86 0 l 86 1031 m 282 -167 l 681 -167 l 681 -307 l 282 -307 l 282 -167 z "},"Ñ":{"ha":989,"x_min":86,"x_max":911,"o":"m 86 1031 l 276 1031 l 671 407 l 671 1031 l 911 1031 l 911 0 l 719 0 l 325 622 l 325 0 l 86 0 l 86 1031 m 208 1088 q 255 1233 214 1188 q 358 1279 296 1279 q 419 1271 393 1279 q 479 1246 444 1263 q 557 1221 524 1221 q 608 1288 604 1221 l 726 1288 q 581 1089 718 1089 q 517 1098 546 1089 q 454 1124 489 1107 q 413 1142 429 1136 q 381 1147 396 1147 q 344 1131 357 1147 q 328 1088 331 1115 l 208 1088 z "},"O":{"ha":978,"x_min":56,"x_max":922,"o":"m 489 -8 q 242 33 335 -8 q 103 188 150 75 q 56 515 56 301 q 103 843 56 729 q 242 999 150 957 q 489 1040 335 1040 q 735 999 643 1040 q 875 843 828 957 q 922 515 922 729 q 875 188 922 301 q 735 33 828 75 q 489 -8 643 -8 m 489 207 q 608 231 568 207 q 665 321 649 256 q 682 515 682 386 q 665 714 682 649 q 609 802 649 779 q 489 825 569 825 q 370 802 410 825 q 313 714 331 779 q 296 515 296 649 q 313 321 296 386 q 369 231 329 256 q 489 207 410 207 z "},"Ó":{"ha":978,"x_min":56,"x_max":922,"o":"m 489 -8 q 242 33 335 -8 q 103 188 150 75 q 56 515 56 301 q 103 843 56 729 q 242 999 150 957 q 489 1040 335 1040 q 735 999 643 1040 q 875 843 828 957 q 922 515 922 729 q 875 188 922 301 q 735 33 828 75 q 489 -8 643 -8 m 489 207 q 608 231 568 207 q 665 321 649 256 q 682 515 682 386 q 665 714 682 649 q 609 802 649 779 q 489 825 569 825 q 370 802 410 825 q 313 714 331 779 q 296 515 296 649 q 313 321 296 386 q 369 231 329 256 q 489 207 410 207 m 532 1296 l 724 1296 l 569 1099 l 428 1099 l 532 1296 z "},"Ŏ":{"ha":978,"x_min":56,"x_max":922,"o":"m 489 -8 q 242 33 335 -8 q 103 188 150 75 q 56 515 56 301 q 103 843 56 729 q 242 999 150 957 q 489 1040 335 1040 q 735 999 643 1040 q 875 843 828 957 q 922 515 922 729 q 875 188 922 301 q 735 33 828 75 q 489 -8 643 -8 m 489 207 q 608 231 568 207 q 665 321 649 256 q 682 515 682 386 q 665 714 682 649 q 609 802 649 779 q 489 825 569 825 q 370 802 410 825 q 313 714 331 779 q 296 515 296 649 q 313 321 296 386 q 369 231 329 256 q 489 207 410 207 m 479 1086 q 334 1140 385 1086 q 283 1300 283 1193 l 393 1300 q 417 1219 393 1244 q 476 1194 440 1194 q 542 1219 519 1194 q 565 1300 565 1243 l 679 1300 q 479 1086 679 1086 z "},"Ô":{"ha":978,"x_min":56,"x_max":922,"o":"m 489 -8 q 242 33 335 -8 q 103 188 150 75 q 56 515 56 301 q 103 843 56 729 q 242 999 150 957 q 489 1040 335 1040 q 735 999 643 1040 q 875 843 828 957 q 922 515 922 729 q 875 188 922 301 q 735 33 828 75 q 489 -8 643 -8 m 489 207 q 608 231 568 207 q 665 321 649 256 q 682 515 682 386 q 665 714 682 649 q 609 802 649 779 q 489 825 569 825 q 370 802 410 825 q 313 714 331 779 q 296 515 296 649 q 313 321 296 386 q 369 231 329 256 q 489 207 410 207 m 413 1299 l 575 1299 l 707 1099 l 568 1099 l 490 1193 l 407 1099 l 268 1099 l 413 1299 z "},"Ố":{"ha":978,"x_min":56,"x_max":922,"o":"m 489 -8 q 242 33 335 -8 q 103 188 150 75 q 56 515 56 301 q 103 843 56 729 q 242 999 150 957 q 489 1040 335 1040 q 735 999 643 1040 q 875 843 828 957 q 922 515 922 729 q 875 188 922 301 q 735 33 828 75 q 489 -8 643 -8 m 489 207 q 608 231 568 207 q 665 321 649 256 q 682 515 682 386 q 665 714 682 649 q 609 802 649 779 q 489 825 569 825 q 370 802 410 825 q 313 714 331 779 q 296 515 296 649 q 313 321 296 386 q 369 231 329 256 q 489 207 410 207 m 858 1393 l 764 1221 l 624 1221 l 667 1393 l 858 1393 m 575 1256 l 706 1099 l 568 1099 l 489 1150 l 407 1099 l 268 1099 l 413 1256 l 575 1256 z "},"Ộ":{"ha":978,"x_min":56,"x_max":922,"o":"m 489 -8 q 242 33 335 -8 q 103 188 150 75 q 56 515 56 301 q 103 843 56 729 q 242 999 150 957 q 489 1040 335 1040 q 735 999 643 1040 q 875 843 828 957 q 922 515 922 729 q 875 188 922 301 q 735 33 828 75 q 489 -8 643 -8 m 489 207 q 608 231 568 207 q 665 321 649 256 q 682 515 682 386 q 665 714 682 649 q 609 802 649 779 q 489 825 569 825 q 370 802 410 825 q 313 714 331 779 q 296 515 296 649 q 313 321 296 386 q 369 231 329 256 q 489 207 410 207 m 413 1299 l 575 1299 l 707 1099 l 568 1099 l 490 1193 l 407 1099 l 268 1099 l 413 1299 m 433 -321 q 410 -312 419 -321 q 401 -290 401 -304 l 401 -146 q 433 -112 401 -112 l 544 -112 q 567 -122 558 -112 q 575 -146 575 -131 l 575 -290 q 544 -321 575 -321 l 433 -321 z "},"Ồ":{"ha":978,"x_min":56,"x_max":922,"o":"m 489 -8 q 242 33 335 -8 q 103 188 150 75 q 56 515 56 301 q 103 843 56 729 q 242 999 150 957 q 489 1040 335 1040 q 735 999 643 1040 q 875 843 828 957 q 922 515 922 729 q 875 188 922 301 q 735 33 828 75 q 489 -8 643 -8 m 489 207 q 608 231 568 207 q 665 321 649 256 q 682 515 682 386 q 665 714 682 649 q 609 802 649 779 q 489 825 569 825 q 370 802 410 825 q 313 714 331 779 q 296 515 296 649 q 313 321 296 386 q 369 231 329 256 q 489 207 410 207 m 314 1393 l 357 1221 l 215 1221 l 122 1393 l 314 1393 m 575 1256 l 706 1099 l 568 1099 l 489 1150 l 407 1099 l 268 1099 l 413 1256 l 575 1256 z "},"Ổ":{"ha":978,"x_min":56,"x_max":922,"o":"m 489 -8 q 242 33 335 -8 q 103 188 150 75 q 56 515 56 301 q 103 843 56 729 q 242 999 150 957 q 489 1040 335 1040 q 735 999 643 1040 q 875 843 828 957 q 922 515 922 729 q 875 188 922 301 q 735 33 828 75 q 489 -8 643 -8 m 489 207 q 608 231 568 207 q 665 321 649 256 q 682 515 682 386 q 665 714 682 649 q 609 802 649 779 q 489 825 569 825 q 370 802 410 825 q 313 714 331 779 q 296 515 296 649 q 313 321 296 386 q 369 231 329 256 q 489 207 410 207 m 658 1281 q 692 1319 692 1290 q 665 1344 692 1344 q 622 1336 650 1344 l 622 1417 q 697 1428 656 1428 q 804 1335 804 1428 q 769 1237 804 1275 q 658 1176 735 1199 l 658 1281 m 413 1256 l 575 1256 l 706 1099 l 568 1099 l 489 1150 l 407 1099 l 268 1099 l 413 1256 z "},"Ỗ":{"ha":978,"x_min":56,"x_max":922,"o":"m 489 -8 q 242 33 335 -8 q 103 188 150 75 q 56 515 56 301 q 103 843 56 729 q 242 999 150 957 q 489 1040 335 1040 q 735 999 643 1040 q 875 843 828 957 q 922 515 922 729 q 875 188 922 301 q 735 33 828 75 q 489 -8 643 -8 m 489 207 q 608 231 568 207 q 665 321 649 256 q 682 515 682 386 q 665 714 682 649 q 609 802 649 779 q 489 825 569 825 q 370 802 410 825 q 313 714 331 779 q 296 515 296 649 q 313 321 296 386 q 369 231 329 256 q 489 207 410 207 m 381 1458 q 429 1453 404 1458 q 475 1440 454 1447 q 533 1426 517 1426 q 568 1437 556 1426 q 581 1467 581 1447 l 699 1467 q 664 1345 692 1378 q 578 1313 636 1313 q 472 1332 536 1313 q 413 1344 429 1344 q 388 1335 397 1344 q 376 1310 379 1325 l 257 1310 q 296 1428 265 1397 q 381 1458 326 1458 m 706 1099 l 568 1099 l 489 1150 l 407 1099 l 268 1099 l 413 1256 l 575 1256 l 706 1099 z "},"Ȍ":{"ha":978,"x_min":56,"x_max":922,"o":"m 489 -8 q 242 33 335 -8 q 103 188 150 75 q 56 515 56 301 q 103 843 56 729 q 242 999 150 957 q 489 1040 335 1040 q 735 999 643 1040 q 875 843 828 957 q 922 515 922 729 q 875 188 922 301 q 735 33 828 75 q 489 -8 643 -8 m 489 207 q 608 231 568 207 q 665 321 649 256 q 682 515 682 386 q 665 714 682 649 q 609 802 649 779 q 489 825 569 825 q 370 802 410 825 q 313 714 331 779 q 296 515 296 649 q 313 321 296 386 q 369 231 329 256 q 489 207 410 207 m 154 1296 l 346 1296 l 450 1099 l 310 1099 l 154 1296 m 418 1296 l 610 1296 l 714 1099 l 574 1099 l 418 1296 z "},"Ö":{"ha":978,"x_min":56,"x_max":922,"o":"m 489 -8 q 242 33 335 -8 q 103 188 150 75 q 56 515 56 301 q 103 843 56 729 q 242 999 150 957 q 489 1040 335 1040 q 735 999 643 1040 q 875 843 828 957 q 922 515 922 729 q 875 188 922 301 q 735 33 828 75 q 489 -8 643 -8 m 489 207 q 608 231 568 207 q 665 321 649 256 q 682 515 682 386 q 665 714 682 649 q 609 802 649 779 q 489 825 569 825 q 370 802 410 825 q 313 714 331 779 q 296 515 296 649 q 313 321 296 386 q 369 231 329 256 q 489 207 410 207 m 283 1100 q 260 1108 269 1100 q 251 1131 251 1117 l 251 1275 q 283 1308 251 1308 l 394 1308 q 417 1299 408 1308 q 425 1275 425 1290 l 425 1131 q 394 1100 425 1100 l 283 1100 m 567 1100 q 544 1108 553 1100 q 536 1131 536 1117 l 536 1275 q 567 1308 536 1308 l 678 1308 q 700 1299 692 1308 q 708 1275 708 1290 l 708 1131 q 678 1100 708 1100 l 567 1100 z "},"Ȫ":{"ha":978,"x_min":56,"x_max":922,"o":"m 489 -8 q 242 33 335 -8 q 103 188 150 75 q 56 515 56 301 q 103 843 56 729 q 242 999 150 957 q 489 1040 335 1040 q 735 999 643 1040 q 875 843 828 957 q 922 515 922 729 q 875 188 922 301 q 735 33 828 75 q 489 -8 643 -8 m 489 207 q 608 231 568 207 q 665 321 649 256 q 682 515 682 386 q 665 714 682 649 q 609 802 649 779 q 489 825 569 825 q 370 802 410 825 q 313 714 331 779 q 296 515 296 649 q 313 321 296 386 q 369 231 329 256 q 489 207 410 207 m 288 1100 q 265 1108 274 1100 q 256 1131 256 1117 l 256 1275 q 288 1308 256 1308 l 399 1308 q 421 1299 413 1308 q 429 1275 429 1290 l 429 1131 q 399 1100 429 1100 l 288 1100 m 571 1100 q 549 1108 557 1100 q 540 1131 540 1117 l 540 1275 q 571 1308 540 1308 l 682 1308 q 704 1299 696 1308 q 713 1275 713 1290 l 713 1131 q 682 1100 713 1100 l 571 1100 m 286 1519 l 685 1519 l 685 1379 l 286 1379 l 286 1519 z "},"Ȱ":{"ha":978,"x_min":56,"x_max":922,"o":"m 489 -8 q 242 33 335 -8 q 103 188 150 75 q 56 515 56 301 q 103 843 56 729 q 242 999 150 957 q 489 1040 335 1040 q 735 999 643 1040 q 875 843 828 957 q 922 515 922 729 q 875 188 922 301 q 735 33 828 75 q 489 -8 643 -8 m 489 207 q 608 231 568 207 q 665 321 649 256 q 682 515 682 386 q 665 714 682 649 q 609 802 649 779 q 489 825 569 825 q 370 802 410 825 q 313 714 331 779 q 296 515 296 649 q 313 321 296 386 q 369 231 329 256 q 489 207 410 207 m 429 1110 q 406 1118 415 1110 q 397 1140 397 1126 l 397 1285 q 429 1318 397 1318 l 540 1318 q 563 1309 554 1318 q 571 1285 571 1300 l 571 1140 q 540 1110 571 1110 l 429 1110 m 282 1518 l 681 1518 l 681 1378 l 282 1378 l 282 1518 z "},"Ọ":{"ha":978,"x_min":56,"x_max":922,"o":"m 489 -8 q 242 33 335 -8 q 103 188 150 75 q 56 515 56 301 q 103 843 56 729 q 242 999 150 957 q 489 1040 335 1040 q 735 999 643 1040 q 875 843 828 957 q 922 515 922 729 q 875 188 922 301 q 735 33 828 75 q 489 -8 643 -8 m 489 207 q 608 231 568 207 q 665 321 649 256 q 682 515 682 386 q 665 714 682 649 q 609 802 649 779 q 489 825 569 825 q 370 802 410 825 q 313 714 331 779 q 296 515 296 649 q 313 321 296 386 q 369 231 329 256 q 489 207 410 207 m 433 -321 q 410 -312 419 -321 q 401 -290 401 -304 l 401 -146 q 433 -112 401 -112 l 544 -112 q 567 -122 558 -112 q 575 -146 575 -131 l 575 -290 q 544 -321 575 -321 l 433 -321 z "},"Ò":{"ha":978,"x_min":56,"x_max":922,"o":"m 489 -8 q 242 33 335 -8 q 103 188 150 75 q 56 515 56 301 q 103 843 56 729 q 242 999 150 957 q 489 1040 335 1040 q 735 999 643 1040 q 875 843 828 957 q 922 515 922 729 q 875 188 922 301 q 735 33 828 75 q 489 -8 643 -8 m 489 207 q 608 231 568 207 q 665 321 649 256 q 682 515 682 386 q 665 714 682 649 q 609 802 649 779 q 489 825 569 825 q 370 802 410 825 q 313 714 331 779 q 296 515 296 649 q 313 321 296 386 q 369 231 329 256 q 489 207 410 207 m 293 1296 l 485 1296 l 589 1099 l 447 1099 l 293 1296 z "},"Ỏ":{"ha":978,"x_min":56,"x_max":922,"o":"m 489 -8 q 242 33 335 -8 q 103 188 150 75 q 56 515 56 301 q 103 843 56 729 q 242 999 150 957 q 489 1040 335 1040 q 735 999 643 1040 q 875 843 828 957 q 922 515 922 729 q 875 188 922 301 q 735 33 828 75 q 489 -8 643 -8 m 489 207 q 608 231 568 207 q 665 321 649 256 q 682 515 682 386 q 665 714 682 649 q 609 802 649 779 q 489 825 569 825 q 370 802 410 825 q 313 714 331 779 q 296 515 296 649 q 313 321 296 386 q 369 231 329 256 q 489 207 410 207 m 444 1172 q 492 1219 492 1186 q 451 1249 492 1249 q 408 1240 439 1249 l 408 1333 q 483 1344 442 1344 q 583 1315 550 1344 q 615 1228 615 1285 q 575 1131 615 1168 q 444 1068 535 1093 l 444 1172 z "},"Ơ":{"ha":978,"x_min":56,"x_max":949,"o":"m 949 1182 q 917 1019 949 1085 q 831 924 886 953 q 899 765 876 864 q 922 515 922 665 q 875 188 922 301 q 735 33 828 75 q 489 -8 643 -8 q 242 33 335 -8 q 103 188 150 75 q 56 515 56 301 q 103 843 56 729 q 242 999 150 957 q 489 1040 335 1040 q 629 1031 571 1040 l 689 1031 q 761 1065 738 1031 q 785 1182 785 1100 l 949 1182 m 489 207 q 608 231 568 207 q 665 321 649 256 q 682 515 682 386 q 665 714 682 649 q 609 802 649 779 q 489 825 569 825 q 370 802 410 825 q 313 714 331 779 q 296 515 296 649 q 313 321 296 386 q 369 231 329 256 q 489 207 410 207 z "},"Ớ":{"ha":978,"x_min":56,"x_max":949,"o":"m 949 1182 q 917 1019 949 1085 q 831 924 886 953 q 899 765 876 864 q 922 515 922 665 q 875 188 922 301 q 735 33 828 75 q 489 -8 643 -8 q 242 33 335 -8 q 103 188 150 75 q 56 515 56 301 q 103 843 56 729 q 242 999 150 957 q 489 1040 335 1040 q 629 1031 571 1040 l 689 1031 q 761 1065 738 1031 q 785 1182 785 1100 l 949 1182 m 489 207 q 608 231 568 207 q 665 321 649 256 q 682 515 682 386 q 665 714 682 649 q 609 802 649 779 q 489 825 569 825 q 370 802 410 825 q 313 714 331 779 q 296 515 296 649 q 313 321 296 386 q 369 231 329 256 q 489 207 410 207 m 503 1296 l 694 1296 l 540 1099 l 399 1099 l 503 1296 z "},"Ợ":{"ha":978,"x_min":56,"x_max":949,"o":"m 949 1182 q 917 1019 949 1085 q 831 924 886 953 q 899 765 876 864 q 922 515 922 665 q 875 188 922 301 q 735 33 828 75 q 489 -8 643 -8 q 242 33 335 -8 q 103 188 150 75 q 56 515 56 301 q 103 843 56 729 q 242 999 150 957 q 489 1040 335 1040 q 629 1031 571 1040 l 689 1031 q 761 1065 738 1031 q 785 1182 785 1100 l 949 1182 m 489 207 q 608 231 568 207 q 665 321 649 256 q 682 515 682 386 q 665 714 682 649 q 609 802 649 779 q 489 825 569 825 q 370 802 410 825 q 313 714 331 779 q 296 515 296 649 q 313 321 296 386 q 369 231 329 256 q 489 207 410 207 m 443 -321 q 420 -312 429 -321 q 411 -290 411 -304 l 411 -146 q 443 -112 411 -112 l 554 -112 q 576 -122 568 -112 q 585 -146 585 -131 l 585 -290 q 554 -321 585 -321 l 443 -321 z "},"Ờ":{"ha":978,"x_min":56,"x_max":949,"o":"m 949 1182 q 917 1019 949 1085 q 831 924 886 953 q 899 765 876 864 q 922 515 922 665 q 875 188 922 301 q 735 33 828 75 q 489 -8 643 -8 q 242 33 335 -8 q 103 188 150 75 q 56 515 56 301 q 103 843 56 729 q 242 999 150 957 q 489 1040 335 1040 q 629 1031 571 1040 l 689 1031 q 761 1065 738 1031 q 785 1182 785 1100 l 949 1182 m 489 207 q 608 231 568 207 q 665 321 649 256 q 682 515 682 386 q 665 714 682 649 q 609 802 649 779 q 489 825 569 825 q 370 802 410 825 q 313 714 331 779 q 296 515 296 649 q 313 321 296 386 q 369 231 329 256 q 489 207 410 207 m 251 1296 l 443 1296 l 547 1099 l 406 1099 l 251 1296 z "},"Ở":{"ha":978,"x_min":56,"x_max":949,"o":"m 949 1182 q 917 1019 949 1085 q 831 924 886 953 q 899 765 876 864 q 922 515 922 665 q 875 188 922 301 q 735 33 828 75 q 489 -8 643 -8 q 242 33 335 -8 q 103 188 150 75 q 56 515 56 301 q 103 843 56 729 q 242 999 150 957 q 489 1040 335 1040 q 629 1031 571 1040 l 689 1031 q 761 1065 738 1031 q 785 1182 785 1100 l 949 1182 m 489 207 q 608 231 568 207 q 665 321 649 256 q 682 515 682 386 q 665 714 682 649 q 609 802 649 779 q 489 825 569 825 q 370 802 410 825 q 313 714 331 779 q 296 515 296 649 q 313 321 296 386 q 369 231 329 256 q 489 207 410 207 m 440 1172 q 488 1219 488 1186 q 447 1249 488 1249 q 404 1240 435 1249 l 404 1333 q 479 1344 438 1344 q 578 1315 546 1344 q 611 1228 611 1285 q 571 1131 611 1168 q 440 1068 531 1093 l 440 1172 z "},"Ỡ":{"ha":978,"x_min":56,"x_max":949,"o":"m 949 1182 q 917 1019 949 1085 q 831 924 886 953 q 899 765 876 864 q 922 515 922 665 q 875 188 922 301 q 735 33 828 75 q 489 -8 643 -8 q 242 33 335 -8 q 103 188 150 75 q 56 515 56 301 q 103 843 56 729 q 242 999 150 957 q 489 1040 335 1040 q 629 1031 571 1040 l 689 1031 q 761 1065 738 1031 q 785 1182 785 1100 l 949 1182 m 489 207 q 608 231 568 207 q 665 321 649 256 q 682 515 682 386 q 665 714 682 649 q 609 802 649 779 q 489 825 569 825 q 370 802 410 825 q 313 714 331 779 q 296 515 296 649 q 313 321 296 386 q 369 231 329 256 q 489 207 410 207 m 215 1088 q 262 1233 221 1188 q 365 1279 303 1279 q 426 1271 400 1279 q 486 1246 451 1263 q 564 1221 531 1221 q 615 1288 611 1221 l 733 1288 q 588 1089 725 1089 q 524 1098 553 1089 q 461 1124 496 1107 q 419 1142 436 1136 q 388 1147 403 1147 q 351 1131 364 1147 q 335 1088 338 1115 l 215 1088 z "},"Ő":{"ha":978,"x_min":56,"x_max":922,"o":"m 489 -8 q 242 33 335 -8 q 103 188 150 75 q 56 515 56 301 q 103 843 56 729 q 242 999 150 957 q 489 1040 335 1040 q 735 999 643 1040 q 875 843 828 957 q 922 515 922 729 q 875 188 922 301 q 735 33 828 75 q 489 -8 643 -8 m 489 207 q 608 231 568 207 q 665 321 649 256 q 682 515 682 386 q 665 714 682 649 q 609 802 649 779 q 489 825 569 825 q 370 802 410 825 q 313 714 331 779 q 296 515 296 649 q 313 321 296 386 q 369 231 329 256 q 489 207 410 207 m 381 1296 l 560 1296 l 431 1099 l 289 1099 l 381 1296 m 615 1296 l 794 1296 l 664 1099 l 524 1099 l 615 1296 z "},"Ȏ":{"ha":978,"x_min":56,"x_max":922,"o":"m 489 -8 q 242 33 335 -8 q 103 188 150 75 q 56 515 56 301 q 103 843 56 729 q 242 999 150 957 q 489 1040 335 1040 q 735 999 643 1040 q 875 843 828 957 q 922 515 922 729 q 875 188 922 301 q 735 33 828 75 q 489 -8 643 -8 m 489 207 q 608 231 568 207 q 665 321 649 256 q 682 515 682 386 q 665 714 682 649 q 609 802 649 779 q 489 825 569 825 q 370 802 410 825 q 313 714 331 779 q 296 515 296 649 q 313 321 296 386 q 369 231 329 256 q 489 207 410 207 m 492 1303 q 637 1249 586 1303 q 688 1089 688 1196 l 578 1089 q 554 1169 578 1144 q 494 1194 531 1194 q 428 1170 451 1194 q 406 1089 406 1146 l 292 1089 q 492 1303 292 1303 z "},"Ō":{"ha":978,"x_min":56,"x_max":922,"o":"m 489 -8 q 242 33 335 -8 q 103 188 150 75 q 56 515 56 301 q 103 843 56 729 q 242 999 150 957 q 489 1040 335 1040 q 735 999 643 1040 q 875 843 828 957 q 922 515 922 729 q 875 188 922 301 q 735 33 828 75 q 489 -8 643 -8 m 489 207 q 608 231 568 207 q 665 321 649 256 q 682 515 682 386 q 665 714 682 649 q 609 802 649 779 q 489 825 569 825 q 370 802 410 825 q 313 714 331 779 q 296 515 296 649 q 313 321 296 386 q 369 231 329 256 q 489 207 410 207 m 282 1250 l 681 1250 l 681 1110 l 282 1110 l 282 1250 z "},"Ṓ":{"ha":978,"x_min":56,"x_max":922,"o":"m 489 -8 q 242 33 335 -8 q 103 188 150 75 q 56 515 56 301 q 103 843 56 729 q 242 999 150 957 q 489 1040 335 1040 q 735 999 643 1040 q 875 843 828 957 q 922 515 922 729 q 875 188 922 301 q 735 33 828 75 q 489 -8 643 -8 m 489 207 q 608 231 568 207 q 665 321 649 256 q 682 515 682 386 q 665 714 682 649 q 609 802 649 779 q 489 825 569 825 q 370 802 410 825 q 313 714 331 779 q 296 515 296 649 q 313 321 296 386 q 369 231 329 256 q 489 207 410 207 m 282 1250 l 681 1250 l 681 1110 l 282 1110 l 282 1250 m 519 1511 l 711 1511 l 557 1314 l 415 1314 l 519 1511 z "},"Ṑ":{"ha":978,"x_min":56,"x_max":922,"o":"m 489 -8 q 242 33 335 -8 q 103 188 150 75 q 56 515 56 301 q 103 843 56 729 q 242 999 150 957 q 489 1040 335 1040 q 735 999 643 1040 q 875 843 828 957 q 922 515 922 729 q 875 188 922 301 q 735 33 828 75 q 489 -8 643 -8 m 489 207 q 608 231 568 207 q 665 321 649 256 q 682 515 682 386 q 665 714 682 649 q 609 802 649 779 q 489 825 569 825 q 370 802 410 825 q 313 714 331 779 q 296 515 296 649 q 313 321 296 386 q 369 231 329 256 q 489 207 410 207 m 282 1250 l 681 1250 l 681 1110 l 282 1110 l 282 1250 m 257 1511 l 449 1511 l 553 1314 l 411 1314 l 257 1511 z "},"Ǫ":{"ha":978,"x_min":56,"x_max":922,"o":"m 589 -4 q 547 -44 560 -25 q 535 -87 535 -64 q 554 -134 535 -117 q 603 -151 574 -151 l 617 -151 l 617 -264 q 569 -269 604 -269 q 457 -232 493 -269 q 421 -143 421 -194 q 494 -8 421 -57 l 489 -8 q 242 33 335 -8 q 103 188 150 75 q 56 515 56 301 q 103 843 56 729 q 242 999 150 957 q 489 1040 335 1040 q 735 999 643 1040 q 875 843 828 957 q 922 515 922 729 q 885 217 922 326 q 777 57 849 107 q 589 -4 706 7 m 296 515 q 313 321 296 386 q 369 231 329 256 q 489 207 410 207 q 608 231 568 207 q 665 321 649 256 q 682 515 682 386 q 665 714 682 649 q 609 802 649 779 q 489 825 569 825 q 370 802 410 825 q 313 714 331 779 q 296 515 296 649 z "},"Ø":{"ha":978,"x_min":56,"x_max":922,"o":"m 835 917 q 901 759 879 857 q 922 515 922 661 q 875 188 922 301 q 735 33 828 75 q 489 -8 643 -8 q 247 31 332 -8 l 226 0 l 69 0 l 144 113 q 78 271 100 172 q 56 515 56 369 q 103 843 56 729 q 242 999 150 957 q 489 1040 335 1040 q 732 1000 647 1040 l 753 1031 l 910 1031 l 835 917 m 296 515 q 306 356 296 414 l 603 806 q 489 825 568 825 q 370 802 410 825 q 313 714 331 779 q 296 515 296 649 m 489 207 q 608 231 568 207 q 665 321 649 256 q 682 515 682 386 q 674 674 682 614 l 376 226 q 489 207 415 207 z "},"Ǿ":{"ha":978,"x_min":56,"x_max":922,"o":"m 835 917 q 901 759 879 857 q 922 515 922 661 q 875 188 922 301 q 735 33 828 75 q 489 -8 643 -8 q 247 31 332 -8 l 226 0 l 69 0 l 144 113 q 78 271 100 172 q 56 515 56 369 q 103 843 56 729 q 242 999 150 957 q 489 1040 335 1040 q 732 1000 647 1040 l 753 1031 l 910 1031 l 835 917 m 296 515 q 306 356 296 414 l 603 806 q 489 825 568 825 q 370 802 410 825 q 313 714 331 779 q 296 515 296 649 m 489 207 q 608 231 568 207 q 665 321 649 256 q 682 515 682 386 q 674 674 682 614 l 376 226 q 489 207 415 207 m 532 1296 l 724 1296 l 569 1099 l 428 1099 l 532 1296 z "},"Õ":{"ha":978,"x_min":56,"x_max":922,"o":"m 489 -8 q 242 33 335 -8 q 103 188 150 75 q 56 515 56 301 q 103 843 56 729 q 242 999 150 957 q 489 1040 335 1040 q 735 999 643 1040 q 875 843 828 957 q 922 515 922 729 q 875 188 922 301 q 735 33 828 75 q 489 -8 643 -8 m 489 207 q 608 231 568 207 q 665 321 649 256 q 682 515 682 386 q 665 714 682 649 q 609 802 649 779 q 489 825 569 825 q 370 802 410 825 q 313 714 331 779 q 296 515 296 649 q 313 321 296 386 q 369 231 329 256 q 489 207 410 207 m 221 1088 q 267 1233 226 1188 q 371 1279 308 1279 q 431 1271 406 1279 q 492 1246 457 1263 q 569 1221 536 1221 q 621 1288 617 1221 l 739 1288 q 593 1089 731 1089 q 530 1098 558 1089 q 467 1124 501 1107 q 425 1142 442 1136 q 393 1147 408 1147 q 356 1131 369 1147 q 340 1088 343 1115 l 221 1088 z "},"Ṍ":{"ha":978,"x_min":56,"x_max":922,"o":"m 489 -8 q 242 33 335 -8 q 103 188 150 75 q 56 515 56 301 q 103 843 56 729 q 242 999 150 957 q 489 1040 335 1040 q 735 999 643 1040 q 875 843 828 957 q 922 515 922 729 q 875 188 922 301 q 735 33 828 75 q 489 -8 643 -8 m 489 207 q 608 231 568 207 q 665 321 649 256 q 682 515 682 386 q 665 714 682 649 q 609 802 649 779 q 489 825 569 825 q 370 802 410 825 q 313 714 331 779 q 296 515 296 649 q 313 321 296 386 q 369 231 329 256 q 489 207 410 207 m 221 1088 q 267 1233 226 1188 q 371 1279 308 1279 q 431 1271 406 1279 q 492 1246 457 1263 q 569 1221 536 1221 q 621 1288 617 1221 l 739 1288 q 593 1089 731 1089 q 530 1098 558 1089 q 467 1124 501 1107 q 425 1142 442 1136 q 393 1147 408 1147 q 356 1131 369 1147 q 340 1088 343 1115 l 221 1088 m 496 1529 l 688 1529 l 533 1332 l 392 1332 l 496 1529 z "},"Ṏ":{"ha":978,"x_min":56,"x_max":922,"o":"m 489 -8 q 242 33 335 -8 q 103 188 150 75 q 56 515 56 301 q 103 843 56 729 q 242 999 150 957 q 489 1040 335 1040 q 735 999 643 1040 q 875 843 828 957 q 922 515 922 729 q 875 188 922 301 q 735 33 828 75 q 489 -8 643 -8 m 489 207 q 608 231 568 207 q 665 321 649 256 q 682 515 682 386 q 665 714 682 649 q 609 802 649 779 q 489 825 569 825 q 370 802 410 825 q 313 714 331 779 q 296 515 296 649 q 313 321 296 386 q 369 231 329 256 q 489 207 410 207 m 221 1088 q 267 1233 226 1188 q 371 1279 308 1279 q 431 1271 406 1279 q 492 1246 457 1263 q 569 1221 536 1221 q 621 1288 617 1221 l 739 1288 q 593 1089 731 1089 q 530 1098 558 1089 q 467 1124 501 1107 q 425 1142 442 1136 q 393 1147 408 1147 q 356 1131 369 1147 q 340 1088 343 1115 l 221 1088 m 285 1333 q 262 1342 271 1333 q 253 1364 253 1350 l 253 1508 q 285 1542 253 1542 l 396 1542 q 418 1533 410 1542 q 426 1508 426 1524 l 426 1364 q 396 1333 426 1333 l 285 1333 m 568 1333 q 546 1342 554 1333 q 538 1364 538 1350 l 538 1508 q 568 1542 538 1542 l 679 1542 q 701 1533 693 1542 q 710 1508 710 1524 l 710 1364 q 679 1333 710 1333 l 568 1333 z "},"Ȭ":{"ha":978,"x_min":56,"x_max":922,"o":"m 489 -8 q 242 33 335 -8 q 103 188 150 75 q 56 515 56 301 q 103 843 56 729 q 242 999 150 957 q 489 1040 335 1040 q 735 999 643 1040 q 875 843 828 957 q 922 515 922 729 q 875 188 922 301 q 735 33 828 75 q 489 -8 643 -8 m 489 207 q 608 231 568 207 q 665 321 649 256 q 682 515 682 386 q 665 714 682 649 q 609 802 649 779 q 489 825 569 825 q 370 802 410 825 q 313 714 331 779 q 296 515 296 649 q 313 321 296 386 q 369 231 329 256 q 489 207 410 207 m 297 1483 l 696 1483 l 696 1343 l 297 1343 l 297 1483 m 221 1088 q 267 1233 226 1188 q 371 1279 308 1279 q 431 1271 406 1279 q 492 1246 457 1263 q 569 1221 536 1221 q 621 1288 617 1221 l 739 1288 q 593 1089 731 1089 q 530 1098 558 1089 q 467 1124 501 1107 q 425 1142 442 1136 q 393 1147 408 1147 q 356 1131 369 1147 q 340 1088 343 1115 l 221 1088 z "},"Œ":{"ha":1435,"x_min":56,"x_max":1379,"o":"m 1001 808 q 943 790 964 808 q 922 736 922 772 l 922 622 l 1311 608 l 1311 419 l 922 407 l 922 299 q 942 237 922 257 q 994 217 963 217 l 1379 217 l 1379 15 q 944 -8 1213 -6 q 756 44 821 -8 q 642 3 707 15 q 489 -8 576 -8 q 242 33 335 -8 q 103 188 150 75 q 56 515 56 301 q 103 843 56 729 q 242 999 150 957 q 489 1040 335 1040 q 648 1027 581 1040 q 765 982 715 1014 q 929 1031 829 1031 q 1379 1011 1160 1029 l 1379 808 l 1001 808 m 489 207 q 608 231 568 207 q 665 321 649 256 q 682 515 682 386 q 665 714 682 649 q 609 802 649 779 q 489 825 569 825 q 370 802 410 825 q 313 714 331 779 q 296 515 296 649 q 313 321 296 386 q 369 231 329 256 q 489 207 410 207 z "},"P":{"ha":872,"x_min":82,"x_max":832,"o":"m 82 1031 l 526 1031 q 746 958 660 1031 q 832 668 832 885 q 747 374 832 450 q 538 297 663 297 q 404 309 478 297 q 322 322 331 321 l 322 0 l 82 0 l 82 1031 m 500 513 q 569 549 547 513 q 592 667 592 586 q 501 815 592 815 l 322 815 l 322 513 l 500 513 z "},"Ṗ":{"ha":872,"x_min":82,"x_max":832,"o":"m 82 1031 l 526 1031 q 746 958 660 1031 q 832 668 832 885 q 747 374 832 450 q 538 297 663 297 q 404 309 478 297 q 322 322 331 321 l 322 0 l 82 0 l 82 1031 m 500 513 q 569 549 547 513 q 592 667 592 586 q 501 815 592 815 l 322 815 l 322 513 l 500 513 m 371 1110 q 348 1118 357 1110 q 339 1140 339 1126 l 339 1285 q 371 1318 339 1318 l 482 1318 q 504 1309 496 1318 q 513 1285 513 1300 l 513 1140 q 482 1110 513 1110 l 371 1110 z "},"Þ":{"ha":826,"x_min":82,"x_max":786,"o":"m 82 1031 l 322 1031 l 322 871 l 481 871 q 631 846 565 871 q 742 744 697 821 q 786 525 786 668 q 702 243 786 317 q 493 169 618 169 q 411 178 458 169 q 356 188 364 186 l 322 194 l 322 0 l 82 0 l 82 1031 m 456 385 q 524 418 503 385 q 546 522 546 451 q 524 624 546 592 q 457 656 501 656 l 322 656 l 322 385 l 456 385 z "},"Q":{"ha":978,"x_min":56,"x_max":922,"o":"m 489 -8 q 242 33 335 -8 q 103 188 150 75 q 56 515 56 301 q 103 843 56 729 q 242 999 150 957 q 489 1040 335 1040 q 735 999 643 1040 q 875 843 828 957 q 922 515 922 729 q 875 188 922 301 q 735 33 828 75 q 489 -8 643 -8 m 489 207 q 608 231 568 207 q 665 321 649 256 q 682 515 682 386 q 665 714 682 649 q 609 802 649 779 q 489 825 569 825 q 370 802 410 825 q 313 714 331 779 q 296 515 296 649 q 313 321 296 386 q 369 231 329 256 q 489 207 410 207 m 718 -287 q 577 -262 643 -287 q 470 -183 511 -236 q 428 -51 429 -129 l 593 -51 q 630 -102 599 -86 q 704 -118 661 -118 q 756 -112 728 -118 q 796 -103 785 -106 l 796 -278 l 764 -282 q 718 -287 733 -287 z "},"R":{"ha":881,"x_min":82,"x_max":853,"o":"m 82 1031 l 515 1031 q 738 955 658 1031 q 818 692 818 879 q 778 504 818 567 q 668 406 739 442 l 853 0 l 608 0 l 454 367 q 322 368 415 368 l 322 0 l 82 0 l 82 1031 m 472 558 q 551 588 525 558 q 578 690 578 618 q 551 788 578 761 q 472 815 525 815 l 322 815 l 322 558 l 472 558 z "},"Ŕ":{"ha":881,"x_min":82,"x_max":853,"o":"m 82 1031 l 515 1031 q 738 955 658 1031 q 818 692 818 879 q 778 504 818 567 q 668 406 739 442 l 853 0 l 608 0 l 454 367 q 322 368 415 368 l 322 0 l 82 0 l 82 1031 m 472 558 q 551 588 525 558 q 578 690 578 618 q 551 788 578 761 q 472 815 525 815 l 322 815 l 322 558 l 472 558 m 463 1296 l 654 1296 l 500 1099 l 358 1099 l 463 1296 z "},"Ř":{"ha":881,"x_min":82,"x_max":853,"o":"m 82 1031 l 515 1031 q 738 955 658 1031 q 818 692 818 879 q 778 504 818 567 q 668 406 739 442 l 853 0 l 608 0 l 454 367 q 322 368 415 368 l 322 0 l 82 0 l 82 1031 m 472 558 q 551 588 525 558 q 578 690 578 618 q 551 788 578 761 q 472 815 525 815 l 322 815 l 322 558 l 472 558 m 203 1299 l 340 1299 l 419 1204 l 503 1299 l 642 1299 l 497 1099 l 335 1099 l 203 1299 z "},"Ŗ":{"ha":881,"x_min":82,"x_max":853,"o":"m 82 1031 l 515 1031 q 738 955 658 1031 q 818 692 818 879 q 778 504 818 567 q 668 406 739 442 l 853 0 l 608 0 l 454 367 q 322 368 415 368 l 322 0 l 82 0 l 82 1031 m 472 558 q 551 588 525 558 q 578 690 578 618 q 551 788 578 761 q 472 815 525 815 l 322 815 l 322 558 l 472 558 m 306 -208 l 342 -197 q 392 -169 379 -186 q 404 -106 404 -153 l 549 -106 q 513 -261 549 -215 q 383 -307 476 -307 l 306 -307 l 306 -208 z "},"Ȑ":{"ha":881,"x_min":82,"x_max":853,"o":"m 82 1031 l 515 1031 q 738 955 658 1031 q 818 692 818 879 q 778 504 818 567 q 668 406 739 442 l 853 0 l 608 0 l 454 367 q 322 368 415 368 l 322 0 l 82 0 l 82 1031 m 472 558 q 551 588 525 558 q 578 690 578 618 q 551 788 578 761 q 472 815 525 815 l 322 815 l 322 558 l 472 558 m 85 1296 l 276 1296 l 381 1099 l 240 1099 l 85 1296 m 349 1296 l 540 1296 l 644 1099 l 504 1099 l 349 1296 z "},"Ṛ":{"ha":881,"x_min":82,"x_max":853,"o":"m 82 1031 l 515 1031 q 738 955 658 1031 q 818 692 818 879 q 778 504 818 567 q 668 406 739 442 l 853 0 l 608 0 l 454 367 q 322 368 415 368 l 322 0 l 82 0 l 82 1031 m 472 558 q 551 588 525 558 q 578 690 578 618 q 551 788 578 761 q 472 815 525 815 l 322 815 l 322 558 l 472 558 m 371 -321 q 348 -312 357 -321 q 339 -290 339 -304 l 339 -146 q 371 -112 339 -112 l 482 -112 q 504 -122 496 -112 q 513 -146 513 -131 l 513 -290 q 482 -321 513 -321 l 371 -321 z "},"Ȓ":{"ha":881,"x_min":82,"x_max":853,"o":"m 82 1031 l 515 1031 q 738 955 658 1031 q 818 692 818 879 q 778 504 818 567 q 668 406 739 442 l 853 0 l 608 0 l 454 367 q 322 368 415 368 l 322 0 l 82 0 l 82 1031 m 472 558 q 551 588 525 558 q 578 690 578 618 q 551 788 578 761 q 472 815 525 815 l 322 815 l 322 558 l 472 558 m 422 1303 q 567 1249 517 1303 q 618 1089 618 1196 l 508 1089 q 485 1169 508 1144 q 425 1194 461 1194 q 359 1170 382 1194 q 336 1089 336 1146 l 222 1089 q 422 1303 222 1303 z "},"Ṟ":{"ha":881,"x_min":82,"x_max":853,"o":"m 82 1031 l 515 1031 q 738 955 658 1031 q 818 692 818 879 q 778 504 818 567 q 668 406 739 442 l 853 0 l 608 0 l 454 367 q 322 368 415 368 l 322 0 l 82 0 l 82 1031 m 472 558 q 551 588 525 558 q 578 690 578 618 q 551 788 578 761 q 472 815 525 815 l 322 815 l 322 558 l 472 558 m 232 -167 l 631 -167 l 631 -307 l 232 -307 l 232 -167 z "},"S":{"ha":825,"x_min":57,"x_max":768,"o":"m 400 -8 q 227 1 314 -8 q 72 29 140 11 l 72 219 q 388 207 204 207 q 503 226 465 207 q 540 293 540 244 l 540 319 q 517 376 540 356 q 454 396 493 396 l 374 396 q 135 466 214 396 q 57 693 57 536 l 57 742 q 144 965 57 892 q 401 1039 232 1039 q 718 1000 547 1039 l 718 811 q 431 824 525 824 q 321 803 357 824 q 285 729 285 783 l 285 710 q 389 624 285 624 l 485 624 q 695 549 622 624 q 768 351 768 474 l 768 300 q 724 109 768 176 q 601 17 681 42 q 400 -8 522 -8 z "},"Ś":{"ha":825,"x_min":57,"x_max":768,"o":"m 400 -8 q 227 1 314 -8 q 72 29 140 11 l 72 219 q 388 207 204 207 q 503 226 465 207 q 540 293 540 244 l 540 319 q 517 376 540 356 q 454 396 493 396 l 374 396 q 135 466 214 396 q 57 693 57 536 l 57 742 q 144 965 57 892 q 401 1039 232 1039 q 718 1000 547 1039 l 718 811 q 431 824 525 824 q 321 803 357 824 q 285 729 285 783 l 285 710 q 389 624 285 624 l 485 624 q 695 549 622 624 q 768 351 768 474 l 768 300 q 724 109 768 176 q 601 17 681 42 q 400 -8 522 -8 m 449 1296 l 640 1296 l 486 1099 l 344 1099 l 449 1296 z "},"Ṥ":{"ha":825,"x_min":57,"x_max":768,"o":"m 400 -8 q 227 1 314 -8 q 72 29 140 11 l 72 219 q 388 207 204 207 q 503 226 465 207 q 540 293 540 244 l 540 319 q 517 376 540 356 q 454 396 493 396 l 374 396 q 135 466 214 396 q 57 693 57 536 l 57 742 q 144 965 57 892 q 401 1039 232 1039 q 718 1000 547 1039 l 718 811 q 431 824 525 824 q 321 803 357 824 q 285 729 285 783 l 285 710 q 389 624 285 624 l 485 624 q 695 549 622 624 q 768 351 768 474 l 768 300 q 724 109 768 176 q 601 17 681 42 q 400 -8 522 -8 m 418 1296 l 610 1296 l 456 1099 l 314 1099 l 418 1296 m 413 1338 q 390 1346 399 1338 q 381 1368 381 1354 l 381 1513 q 413 1546 381 1546 l 524 1546 q 546 1537 538 1546 q 554 1513 554 1528 l 554 1368 q 524 1338 554 1338 l 413 1338 z "},"Š":{"ha":825,"x_min":57,"x_max":768,"o":"m 400 -8 q 227 1 314 -8 q 72 29 140 11 l 72 219 q 388 207 204 207 q 503 226 465 207 q 540 293 540 244 l 540 319 q 517 376 540 356 q 454 396 493 396 l 374 396 q 135 466 214 396 q 57 693 57 536 l 57 742 q 144 965 57 892 q 401 1039 232 1039 q 718 1000 547 1039 l 718 811 q 431 824 525 824 q 321 803 357 824 q 285 729 285 783 l 285 710 q 389 624 285 624 l 485 624 q 695 549 622 624 q 768 351 768 474 l 768 300 q 724 109 768 176 q 601 17 681 42 q 400 -8 522 -8 m 189 1299 l 326 1299 l 406 1204 l 489 1299 l 628 1299 l 483 1099 l 321 1099 l 189 1299 z "},"Ṧ":{"ha":825,"x_min":57,"x_max":768,"o":"m 400 -8 q 227 1 314 -8 q 72 29 140 11 l 72 219 q 388 207 204 207 q 503 226 465 207 q 540 293 540 244 l 540 319 q 517 376 540 356 q 454 396 493 396 l 374 396 q 135 466 214 396 q 57 693 57 536 l 57 742 q 144 965 57 892 q 401 1039 232 1039 q 718 1000 547 1039 l 718 811 q 431 824 525 824 q 321 803 357 824 q 285 729 285 783 l 285 710 q 389 624 285 624 l 485 624 q 695 549 622 624 q 768 351 768 474 l 768 300 q 724 109 768 176 q 601 17 681 42 q 400 -8 522 -8 m 189 1299 l 326 1299 l 406 1204 l 489 1299 l 628 1299 l 483 1099 l 321 1099 l 189 1299 m 346 1350 q 323 1358 332 1350 q 314 1381 314 1367 l 314 1525 q 346 1558 314 1558 l 457 1558 q 479 1549 471 1558 q 488 1525 488 1540 l 488 1381 q 457 1350 488 1350 l 346 1350 z "},"Ş":{"ha":825,"x_min":57,"x_max":768,"o":"m 485 624 q 695 549 622 624 q 768 351 768 474 l 768 300 q 694 72 768 140 q 476 -6 621 4 l 438 -68 q 501 -98 476 -74 q 526 -162 526 -122 q 488 -249 526 -218 q 374 -279 450 -279 l 299 -279 l 299 -181 l 321 -176 q 372 -135 372 -168 q 318 -87 372 -99 l 368 -8 q 72 29 203 -4 l 72 219 q 388 207 204 207 q 503 226 465 207 q 540 293 540 244 l 540 319 q 517 376 540 356 q 454 396 493 396 l 374 396 q 135 466 214 396 q 57 693 57 536 l 57 742 q 144 965 57 892 q 401 1039 232 1039 q 718 1000 547 1039 l 718 811 q 431 824 525 824 q 321 803 357 824 q 285 729 285 783 l 285 710 q 389 624 285 624 l 485 624 z "},"Ŝ":{"ha":825,"x_min":57,"x_max":768,"o":"m 400 -8 q 227 1 314 -8 q 72 29 140 11 l 72 219 q 388 207 204 207 q 503 226 465 207 q 540 293 540 244 l 540 319 q 517 376 540 356 q 454 396 493 396 l 374 396 q 135 466 214 396 q 57 693 57 536 l 57 742 q 144 965 57 892 q 401 1039 232 1039 q 718 1000 547 1039 l 718 811 q 431 824 525 824 q 321 803 357 824 q 285 729 285 783 l 285 710 q 389 624 285 624 l 485 624 q 695 549 622 624 q 768 351 768 474 l 768 300 q 724 109 768 176 q 601 17 681 42 q 400 -8 522 -8 m 329 1299 l 492 1299 l 624 1099 l 485 1099 l 407 1193 l 324 1099 l 185 1099 l 329 1299 z "},"Ș":{"ha":825,"x_min":57,"x_max":768,"o":"m 400 -8 q 227 1 314 -8 q 72 29 140 11 l 72 219 q 388 207 204 207 q 503 226 465 207 q 540 293 540 244 l 540 319 q 517 376 540 356 q 454 396 493 396 l 374 396 q 135 466 214 396 q 57 693 57 536 l 57 742 q 144 965 57 892 q 401 1039 232 1039 q 718 1000 547 1039 l 718 811 q 431 824 525 824 q 321 803 357 824 q 285 729 285 783 l 285 710 q 389 624 285 624 l 485 624 q 695 549 622 624 q 768 351 768 474 l 768 300 q 724 109 768 176 q 601 17 681 42 q 400 -8 522 -8 m 285 -208 l 321 -197 q 371 -169 358 -186 q 383 -106 383 -153 l 528 -106 q 492 -261 528 -215 q 363 -307 456 -307 l 285 -307 l 285 -208 z "},"Ṡ":{"ha":825,"x_min":57,"x_max":768,"o":"m 400 -8 q 227 1 314 -8 q 72 29 140 11 l 72 219 q 388 207 204 207 q 503 226 465 207 q 540 293 540 244 l 540 319 q 517 376 540 356 q 454 396 493 396 l 374 396 q 135 466 214 396 q 57 693 57 536 l 57 742 q 144 965 57 892 q 401 1039 232 1039 q 718 1000 547 1039 l 718 811 q 431 824 525 824 q 321 803 357 824 q 285 729 285 783 l 285 710 q 389 624 285 624 l 485 624 q 695 549 622 624 q 768 351 768 474 l 768 300 q 724 109 768 176 q 601 17 681 42 q 400 -8 522 -8 m 346 1110 q 323 1118 332 1110 q 314 1140 314 1126 l 314 1285 q 346 1318 314 1318 l 457 1318 q 479 1309 471 1318 q 488 1285 488 1300 l 488 1140 q 457 1110 488 1110 l 346 1110 z "},"Ṣ":{"ha":825,"x_min":57,"x_max":768,"o":"m 400 -8 q 227 1 314 -8 q 72 29 140 11 l 72 219 q 388 207 204 207 q 503 226 465 207 q 540 293 540 244 l 540 319 q 517 376 540 356 q 454 396 493 396 l 374 396 q 135 466 214 396 q 57 693 57 536 l 57 742 q 144 965 57 892 q 401 1039 232 1039 q 718 1000 547 1039 l 718 811 q 431 824 525 824 q 321 803 357 824 q 285 729 285 783 l 285 710 q 389 624 285 624 l 485 624 q 695 549 622 624 q 768 351 768 474 l 768 300 q 724 109 768 176 q 601 17 681 42 q 400 -8 522 -8 m 350 -321 q 327 -312 336 -321 q 318 -290 318 -304 l 318 -146 q 350 -112 318 -112 l 461 -112 q 483 -122 475 -112 q 492 -146 492 -131 l 492 -290 q 461 -321 492 -321 l 350 -321 z "},"Ṩ":{"ha":825,"x_min":57,"x_max":768,"o":"m 400 -8 q 227 1 314 -8 q 72 29 140 11 l 72 219 q 388 207 204 207 q 503 226 465 207 q 540 293 540 244 l 540 319 q 517 376 540 356 q 454 396 493 396 l 374 396 q 135 466 214 396 q 57 693 57 536 l 57 742 q 144 965 57 892 q 401 1039 232 1039 q 718 1000 547 1039 l 718 811 q 431 824 525 824 q 321 803 357 824 q 285 729 285 783 l 285 710 q 389 624 285 624 l 485 624 q 695 549 622 624 q 768 351 768 474 l 768 300 q 724 109 768 176 q 601 17 681 42 q 400 -8 522 -8 m 350 -321 q 327 -312 336 -321 q 318 -290 318 -304 l 318 -146 q 350 -112 318 -112 l 461 -112 q 483 -122 475 -112 q 492 -146 492 -131 l 492 -290 q 461 -321 492 -321 l 350 -321 m 346 1110 q 323 1118 332 1110 q 314 1140 314 1126 l 314 1285 q 346 1318 314 1318 l 457 1318 q 479 1309 471 1318 q 488 1285 488 1300 l 488 1140 q 457 1110 488 1110 l 346 1110 z "},"ẞ":{"ha":1029,"x_min":82,"x_max":974,"o":"m 710 582 q 903 515 833 578 q 974 329 974 451 l 974 278 q 934 101 974 164 q 822 15 894 39 q 640 -8 750 -8 q 413 19 519 -8 l 413 210 q 604 208 472 208 q 701 227 669 208 q 733 293 733 246 l 733 314 q 707 374 733 357 q 622 390 681 390 l 451 390 l 451 582 l 576 582 l 492 639 l 635 815 l 413 815 q 345 794 368 815 q 322 736 322 772 l 322 0 l 82 0 l 82 732 q 171 958 82 886 q 403 1031 260 1031 q 903 1014 674 1031 l 900 1010 l 903 1011 l 864 769 l 710 582 z "},"Ə":{"ha":876,"x_min":44,"x_max":819,"o":"m 424 -8 q 44 453 44 -8 l 44 603 l 579 603 q 548 738 576 689 q 466 806 519 786 q 325 825 413 825 q 93 811 204 825 l 93 997 q 382 1040 211 1040 q 619 999 525 1040 q 766 847 713 958 q 819 533 819 736 q 770 199 819 318 q 635 36 721 81 q 424 -8 549 -8 m 426 207 q 531 253 492 207 q 575 413 569 299 l 288 413 q 320 253 290 299 q 426 207 350 207 z "},"T":{"ha":825,"x_min":22,"x_max":803,"o":"m 293 815 l 22 815 l 22 1031 l 803 1031 l 803 815 l 532 815 l 532 0 l 293 0 l 293 815 z "},"Ŧ":{"ha":825,"x_min":22,"x_max":803,"o":"m 532 815 l 532 589 l 763 589 l 763 471 l 532 471 l 532 0 l 293 0 l 293 471 l 63 471 l 63 589 l 293 589 l 293 815 l 22 815 l 22 1031 l 803 1031 l 803 815 l 532 815 z "},"Ť":{"ha":825,"x_min":22,"x_max":803,"o":"m 293 815 l 22 815 l 22 1031 l 803 1031 l 803 815 l 532 815 l 532 0 l 293 0 l 293 815 m 196 1299 l 333 1299 l 413 1204 l 496 1299 l 635 1299 l 490 1099 l 328 1099 l 196 1299 z "},"Ţ":{"ha":825,"x_min":22,"x_max":803,"o":"m 486 0 l 444 -68 q 508 -98 483 -74 q 533 -162 533 -122 q 495 -249 533 -218 q 381 -279 457 -279 l 306 -279 l 306 -181 l 328 -176 q 379 -135 379 -168 q 325 -87 379 -99 l 379 0 l 293 0 l 293 815 l 22 815 l 22 1031 l 803 1031 l 803 815 l 532 815 l 532 0 l 486 0 z "},"Ț":{"ha":825,"x_min":22,"x_max":803,"o":"m 293 815 l 22 815 l 22 1031 l 803 1031 l 803 815 l 532 815 l 532 0 l 293 0 l 293 815 m 249 -208 l 285 -197 q 335 -169 322 -186 q 347 -106 347 -153 l 492 -106 q 456 -261 492 -215 q 326 -307 419 -307 l 249 -307 l 249 -208 z "},"Ṫ":{"ha":825,"x_min":22,"x_max":803,"o":"m 293 815 l 22 815 l 22 1031 l 803 1031 l 803 815 l 532 815 l 532 0 l 293 0 l 293 815 m 353 1110 q 330 1118 339 1110 q 321 1140 321 1126 l 321 1285 q 353 1318 321 1318 l 464 1318 q 486 1309 478 1318 q 494 1285 494 1300 l 494 1140 q 464 1110 494 1110 l 353 1110 z "},"Ṭ":{"ha":825,"x_min":22,"x_max":803,"o":"m 293 815 l 22 815 l 22 1031 l 803 1031 l 803 815 l 532 815 l 532 0 l 293 0 l 293 815 m 357 -321 q 334 -312 343 -321 q 325 -290 325 -304 l 325 -146 q 357 -112 325 -112 l 468 -112 q 490 -122 482 -112 q 499 -146 499 -131 l 499 -290 q 468 -321 499 -321 l 357 -321 z "},"Ṯ":{"ha":825,"x_min":22,"x_max":803,"o":"m 293 815 l 22 815 l 22 1031 l 803 1031 l 803 815 l 532 815 l 532 0 l 293 0 l 293 815 m 218 -167 l 617 -167 l 617 -307 l 218 -307 l 218 -167 z "},"U":{"ha":957,"x_min":68,"x_max":889,"o":"m 479 -7 q 176 67 285 -7 q 68 336 68 140 l 68 1031 l 308 1031 l 308 338 q 479 208 308 208 q 649 338 649 208 l 649 1031 l 889 1031 l 889 336 q 781 67 889 140 q 479 -7 674 -7 z "},"Ú":{"ha":957,"x_min":68,"x_max":889,"o":"m 479 -7 q 176 67 285 -7 q 68 336 68 140 l 68 1031 l 308 1031 l 308 338 q 479 208 308 208 q 649 338 649 208 l 649 1031 l 889 1031 l 889 336 q 781 67 889 140 q 479 -7 674 -7 m 507 1296 l 699 1296 l 544 1099 l 403 1099 l 507 1296 z "},"Ŭ":{"ha":957,"x_min":68,"x_max":889,"o":"m 479 -7 q 176 67 285 -7 q 68 336 68 140 l 68 1031 l 308 1031 l 308 338 q 479 208 308 208 q 649 338 649 208 l 649 1031 l 889 1031 l 889 336 q 781 67 889 140 q 479 -7 674 -7 m 454 1086 q 309 1140 360 1086 q 258 1300 258 1193 l 368 1300 q 392 1219 368 1244 q 451 1194 415 1194 q 517 1219 494 1194 q 540 1300 540 1243 l 654 1300 q 454 1086 654 1086 z "},"Û":{"ha":957,"x_min":68,"x_max":889,"o":"m 479 -7 q 176 67 285 -7 q 68 336 68 140 l 68 1031 l 308 1031 l 308 338 q 479 208 308 208 q 649 338 649 208 l 649 1031 l 889 1031 l 889 336 q 781 67 889 140 q 479 -7 674 -7 m 388 1299 l 550 1299 l 682 1099 l 543 1099 l 465 1193 l 382 1099 l 243 1099 l 388 1299 z "},"Ȕ":{"ha":957,"x_min":68,"x_max":889,"o":"m 479 -7 q 176 67 285 -7 q 68 336 68 140 l 68 1031 l 308 1031 l 308 338 q 479 208 308 208 q 649 338 649 208 l 649 1031 l 889 1031 l 889 336 q 781 67 889 140 q 479 -7 674 -7 m 129 1296 l 321 1296 l 425 1099 l 285 1099 l 129 1296 m 393 1296 l 585 1296 l 689 1099 l 549 1099 l 393 1296 z "},"Ü":{"ha":957,"x_min":68,"x_max":889,"o":"m 479 -7 q 176 67 285 -7 q 68 336 68 140 l 68 1031 l 308 1031 l 308 338 q 479 208 308 208 q 649 338 649 208 l 649 1031 l 889 1031 l 889 336 q 781 67 889 140 q 479 -7 674 -7 m 258 1100 q 235 1108 244 1100 q 226 1131 226 1117 l 226 1275 q 258 1308 226 1308 l 369 1308 q 392 1299 383 1308 q 400 1275 400 1290 l 400 1131 q 369 1100 400 1100 l 258 1100 m 542 1100 q 519 1108 528 1100 q 511 1131 511 1117 l 511 1275 q 542 1308 511 1308 l 653 1308 q 675 1299 667 1308 q 683 1275 683 1290 l 683 1131 q 653 1100 683 1100 l 542 1100 z "},"Ụ":{"ha":957,"x_min":68,"x_max":889,"o":"m 479 -7 q 176 67 285 -7 q 68 336 68 140 l 68 1031 l 308 1031 l 308 338 q 479 208 308 208 q 649 338 649 208 l 649 1031 l 889 1031 l 889 336 q 781 67 889 140 q 479 -7 674 -7 m 408 -321 q 385 -312 394 -321 q 376 -290 376 -304 l 376 -146 q 408 -112 376 -112 l 519 -112 q 542 -122 533 -112 q 550 -146 550 -131 l 550 -290 q 519 -321 550 -321 l 408 -321 z "},"Ù":{"ha":957,"x_min":68,"x_max":889,"o":"m 479 -7 q 176 67 285 -7 q 68 336 68 140 l 68 1031 l 308 1031 l 308 338 q 479 208 308 208 q 649 338 649 208 l 649 1031 l 889 1031 l 889 336 q 781 67 889 140 q 479 -7 674 -7 m 268 1296 l 460 1296 l 564 1099 l 422 1099 l 268 1296 z "},"Ủ":{"ha":957,"x_min":68,"x_max":889,"o":"m 479 -7 q 176 67 285 -7 q 68 336 68 140 l 68 1031 l 308 1031 l 308 338 q 479 208 308 208 q 649 338 649 208 l 649 1031 l 889 1031 l 889 336 q 781 67 889 140 q 479 -7 674 -7 m 419 1172 q 467 1219 467 1186 q 426 1249 467 1249 q 383 1240 414 1249 l 383 1333 q 458 1344 417 1344 q 558 1315 525 1344 q 590 1228 590 1285 q 550 1131 590 1168 q 419 1068 510 1093 l 419 1172 z "},"Ư":{"ha":957,"x_min":68,"x_max":1008,"o":"m 1008 1182 q 977 1017 1008 1083 q 889 922 946 951 l 889 336 q 781 67 889 140 q 479 -7 674 -7 q 176 67 285 -7 q 68 336 68 140 l 68 1031 l 308 1031 l 308 338 q 479 208 308 208 q 649 338 649 208 l 649 1031 l 749 1031 q 821 1065 797 1031 q 844 1182 844 1100 l 1008 1182 z "},"Ứ":{"ha":957,"x_min":68,"x_max":1008,"o":"m 1008 1182 q 977 1017 1008 1083 q 889 922 946 951 l 889 336 q 781 67 889 140 q 479 -7 674 -7 q 176 67 285 -7 q 68 336 68 140 l 68 1031 l 308 1031 l 308 338 q 479 208 308 208 q 649 338 649 208 l 649 1031 l 749 1031 q 821 1065 797 1031 q 844 1182 844 1100 l 1008 1182 m 501 1296 l 693 1296 l 539 1099 l 397 1099 l 501 1296 z "},"Ự":{"ha":957,"x_min":68,"x_max":1008,"o":"m 1008 1182 q 977 1017 1008 1083 q 889 922 946 951 l 889 336 q 781 67 889 140 q 479 -7 674 -7 q 176 67 285 -7 q 68 336 68 140 l 68 1031 l 308 1031 l 308 338 q 479 208 308 208 q 649 338 649 208 l 649 1031 l 749 1031 q 821 1065 797 1031 q 844 1182 844 1100 l 1008 1182 m 406 -321 q 383 -312 392 -321 q 374 -290 374 -304 l 374 -146 q 406 -112 374 -112 l 517 -112 q 539 -122 531 -112 q 547 -146 547 -131 l 547 -290 q 517 -321 547 -321 l 406 -321 z "},"Ừ":{"ha":957,"x_min":68,"x_max":1008,"o":"m 1008 1182 q 977 1017 1008 1083 q 889 922 946 951 l 889 336 q 781 67 889 140 q 479 -7 674 -7 q 176 67 285 -7 q 68 336 68 140 l 68 1031 l 308 1031 l 308 338 q 479 208 308 208 q 649 338 649 208 l 649 1031 l 749 1031 q 821 1065 797 1031 q 844 1182 844 1100 l 1008 1182 m 265 1296 l 457 1296 l 561 1099 l 419 1099 l 265 1296 z "},"Ử":{"ha":957,"x_min":68,"x_max":1008,"o":"m 1008 1182 q 977 1017 1008 1083 q 889 922 946 951 l 889 336 q 781 67 889 140 q 479 -7 674 -7 q 176 67 285 -7 q 68 336 68 140 l 68 1031 l 308 1031 l 308 338 q 479 208 308 208 q 649 338 649 208 l 649 1031 l 749 1031 q 821 1065 797 1031 q 844 1182 844 1100 l 1008 1182 m 439 1172 q 486 1219 486 1186 q 446 1249 486 1249 q 403 1240 433 1249 l 403 1333 q 478 1344 436 1344 q 577 1315 544 1344 q 610 1228 610 1285 q 569 1131 610 1168 q 439 1068 529 1093 l 439 1172 z "},"Ữ":{"ha":957,"x_min":68,"x_max":1008,"o":"m 1008 1182 q 977 1017 1008 1083 q 889 922 946 951 l 889 336 q 781 67 889 140 q 479 -7 674 -7 q 176 67 285 -7 q 68 336 68 140 l 68 1031 l 308 1031 l 308 338 q 479 208 308 208 q 649 338 649 208 l 649 1031 l 749 1031 q 821 1065 797 1031 q 844 1182 844 1100 l 1008 1182 m 228 1088 q 274 1233 233 1188 q 378 1279 315 1279 q 438 1271 413 1279 q 499 1246 464 1263 q 576 1221 543 1221 q 628 1288 624 1221 l 746 1288 q 600 1089 738 1089 q 537 1098 565 1089 q 474 1124 508 1107 q 432 1142 449 1136 q 400 1147 415 1147 q 363 1131 376 1147 q 347 1088 350 1115 l 228 1088 z "},"Ű":{"ha":957,"x_min":68,"x_max":889,"o":"m 479 -7 q 176 67 285 -7 q 68 336 68 140 l 68 1031 l 308 1031 l 308 338 q 479 208 308 208 q 649 338 649 208 l 649 1031 l 889 1031 l 889 336 q 781 67 889 140 q 479 -7 674 -7 m 356 1296 l 535 1296 l 406 1099 l 264 1099 l 356 1296 m 590 1296 l 769 1296 l 639 1099 l 499 1099 l 590 1296 z "},"Ȗ":{"ha":957,"x_min":68,"x_max":889,"o":"m 479 -7 q 176 67 285 -7 q 68 336 68 140 l 68 1031 l 308 1031 l 308 338 q 479 208 308 208 q 649 338 649 208 l 649 1031 l 889 1031 l 889 336 q 781 67 889 140 q 479 -7 674 -7 m 467 1303 q 612 1249 561 1303 q 663 1089 663 1196 l 553 1089 q 529 1169 553 1144 q 469 1194 506 1194 q 403 1170 426 1194 q 381 1089 381 1146 l 267 1089 q 467 1303 267 1303 z "},"Ū":{"ha":957,"x_min":68,"x_max":889,"o":"m 479 -7 q 176 67 285 -7 q 68 336 68 140 l 68 1031 l 308 1031 l 308 338 q 479 208 308 208 q 649 338 649 208 l 649 1031 l 889 1031 l 889 336 q 781 67 889 140 q 479 -7 674 -7 m 257 1250 l 656 1250 l 656 1110 l 257 1110 l 257 1250 z "},"Ṻ":{"ha":957,"x_min":68,"x_max":889,"o":"m 479 -7 q 176 67 285 -7 q 68 336 68 140 l 68 1031 l 308 1031 l 308 338 q 479 208 308 208 q 649 338 649 208 l 649 1031 l 889 1031 l 889 336 q 781 67 889 140 q 479 -7 674 -7 m 257 1250 l 656 1250 l 656 1110 l 257 1110 l 257 1250 m 258 1303 q 235 1311 244 1303 q 226 1333 226 1319 l 226 1478 q 258 1511 226 1511 l 369 1511 q 392 1502 383 1511 q 400 1478 400 1493 l 400 1333 q 369 1303 400 1303 l 258 1303 m 542 1303 q 519 1311 528 1303 q 511 1333 511 1319 l 511 1478 q 542 1511 511 1511 l 653 1511 q 675 1502 667 1511 q 683 1478 683 1493 l 683 1333 q 653 1303 683 1303 l 542 1303 z "},"Ų":{"ha":957,"x_min":68,"x_max":889,"o":"m 889 1031 l 889 336 q 813 96 889 174 q 597 0 736 18 q 551 -42 565 -22 q 538 -87 538 -62 q 557 -134 538 -117 q 606 -151 576 -151 l 619 -151 l 619 -264 q 572 -269 607 -269 q 460 -232 496 -269 q 424 -143 424 -194 q 500 -7 424 -54 l 479 -7 q 176 67 285 -7 q 68 336 68 140 l 68 1031 l 308 1031 l 308 338 q 479 208 308 208 q 649 338 649 208 l 649 1031 l 889 1031 z "},"Ů":{"ha":957,"x_min":68,"x_max":889,"o":"m 479 -7 q 176 67 285 -7 q 68 336 68 140 l 68 1031 l 308 1031 l 308 338 q 479 208 308 208 q 649 338 649 208 l 649 1031 l 889 1031 l 889 336 q 781 67 889 140 q 479 -7 674 -7 m 465 1068 q 332 1104 376 1068 q 288 1228 288 1140 q 332 1351 288 1314 q 465 1389 376 1389 q 599 1352 556 1389 q 642 1228 642 1315 q 599 1104 642 1140 q 465 1068 556 1068 m 465 1154 q 517 1170 501 1154 q 532 1228 532 1186 q 517 1285 532 1268 q 465 1301 501 1301 q 414 1285 431 1301 q 397 1228 397 1268 q 413 1171 397 1188 q 465 1154 429 1154 z "},"Ũ":{"ha":957,"x_min":68,"x_max":889,"o":"m 479 -7 q 176 67 285 -7 q 68 336 68 140 l 68 1031 l 308 1031 l 308 338 q 479 208 308 208 q 649 338 649 208 l 649 1031 l 889 1031 l 889 336 q 781 67 889 140 q 479 -7 674 -7 m 196 1088 q 242 1233 201 1188 q 346 1279 283 1279 q 406 1271 381 1279 q 467 1246 432 1263 q 544 1221 511 1221 q 596 1288 592 1221 l 714 1288 q 568 1089 706 1089 q 505 1098 533 1089 q 442 1124 476 1107 q 400 1142 417 1136 q 368 1147 383 1147 q 331 1131 344 1147 q 315 1088 318 1115 l 196 1088 z "},"Ṹ":{"ha":957,"x_min":68,"x_max":889,"o":"m 479 -7 q 176 67 285 -7 q 68 336 68 140 l 68 1031 l 308 1031 l 308 338 q 479 208 308 208 q 649 338 649 208 l 649 1031 l 889 1031 l 889 336 q 781 67 889 140 q 479 -7 674 -7 m 196 1088 q 242 1233 201 1188 q 346 1279 283 1279 q 406 1271 381 1279 q 467 1246 432 1263 q 544 1221 511 1221 q 596 1288 592 1221 l 714 1288 q 568 1089 706 1089 q 505 1098 533 1089 q 442 1124 476 1107 q 400 1142 417 1136 q 368 1147 383 1147 q 331 1131 344 1147 q 315 1088 318 1115 l 196 1088 m 507 1504 l 699 1504 l 544 1307 l 403 1307 l 507 1504 z "},"V":{"ha":957,"x_min":14,"x_max":942,"o":"m 14 1031 l 263 1031 l 479 260 l 696 1031 l 942 1031 l 628 0 l 328 0 l 14 1031 z "},"W":{"ha":1376,"x_min":14,"x_max":1363,"o":"m 14 1031 l 263 1031 l 408 357 l 581 1031 l 797 1031 l 968 357 l 1114 1031 l 1363 1031 l 1121 0 l 879 0 l 689 675 l 497 0 l 256 0 l 14 1031 z "},"Ẃ":{"ha":1376,"x_min":14,"x_max":1363,"o":"m 14 1031 l 263 1031 l 408 357 l 581 1031 l 797 1031 l 968 357 l 1114 1031 l 1363 1031 l 1121 0 l 879 0 l 689 675 l 497 0 l 256 0 l 14 1031 m 778 1296 l 969 1296 l 815 1099 l 674 1099 l 778 1296 z "},"Ŵ":{"ha":1376,"x_min":14,"x_max":1363,"o":"m 14 1031 l 263 1031 l 408 357 l 581 1031 l 797 1031 l 968 357 l 1114 1031 l 1363 1031 l 1121 0 l 879 0 l 689 675 l 497 0 l 256 0 l 14 1031 m 658 1299 l 821 1299 l 953 1099 l 814 1099 l 736 1193 l 653 1099 l 514 1099 l 658 1299 z "},"Ẅ":{"ha":1376,"x_min":14,"x_max":1363,"o":"m 14 1031 l 263 1031 l 408 357 l 581 1031 l 797 1031 l 968 357 l 1114 1031 l 1363 1031 l 1121 0 l 879 0 l 689 675 l 497 0 l 256 0 l 14 1031 m 529 1100 q 506 1108 515 1100 q 497 1131 497 1117 l 497 1275 q 529 1308 497 1308 l 640 1308 q 663 1299 654 1308 q 671 1275 671 1290 l 671 1131 q 640 1100 671 1100 l 529 1100 m 813 1100 q 790 1108 799 1100 q 782 1131 782 1117 l 782 1275 q 813 1308 782 1308 l 924 1308 q 946 1299 938 1308 q 954 1275 954 1290 l 954 1131 q 924 1100 954 1100 l 813 1100 z "},"Ẁ":{"ha":1376,"x_min":14,"x_max":1363,"o":"m 14 1031 l 263 1031 l 408 357 l 581 1031 l 797 1031 l 968 357 l 1114 1031 l 1363 1031 l 1121 0 l 879 0 l 689 675 l 497 0 l 256 0 l 14 1031 m 539 1296 l 731 1296 l 835 1099 l 693 1099 l 539 1296 z "},"X":{"ha":942,"x_min":15,"x_max":926,"o":"m 606 506 l 921 0 l 656 0 l 460 315 l 283 0 l 19 0 l 335 517 l 15 1031 l 279 1031 l 482 706 l 663 1031 l 926 1031 l 606 506 z "},"Y":{"ha":876,"x_min":15,"x_max":861,"o":"m 318 301 l 15 1031 l 264 1031 l 443 546 l 622 1031 l 861 1031 l 558 301 l 558 0 l 318 0 l 318 301 z "},"Ý":{"ha":876,"x_min":15,"x_max":861,"o":"m 318 301 l 15 1031 l 264 1031 l 443 546 l 622 1031 l 861 1031 l 558 301 l 558 0 l 318 0 l 318 301 m 486 1296 l 678 1296 l 524 1099 l 382 1099 l 486 1296 z "},"Ŷ":{"ha":876,"x_min":15,"x_max":861,"o":"m 318 301 l 15 1031 l 264 1031 l 443 546 l 622 1031 l 861 1031 l 558 301 l 558 0 l 318 0 l 318 301 m 367 1299 l 529 1299 l 661 1099 l 522 1099 l 444 1193 l 361 1099 l 222 1099 l 367 1299 z "},"Ÿ":{"ha":876,"x_min":15,"x_max":861,"o":"m 318 301 l 15 1031 l 264 1031 l 443 546 l 622 1031 l 861 1031 l 558 301 l 558 0 l 318 0 l 318 301 m 238 1100 q 215 1108 224 1100 q 206 1131 206 1117 l 206 1275 q 238 1308 206 1308 l 349 1308 q 371 1299 363 1308 q 379 1275 379 1290 l 379 1131 q 349 1100 379 1100 l 238 1100 m 521 1100 q 499 1108 507 1100 q 490 1131 490 1117 l 490 1275 q 521 1308 490 1308 l 632 1308 q 654 1299 646 1308 q 663 1275 663 1290 l 663 1131 q 632 1100 663 1100 l 521 1100 z "},"Ẏ":{"ha":876,"x_min":15,"x_max":861,"o":"m 318 301 l 15 1031 l 264 1031 l 443 546 l 622 1031 l 861 1031 l 558 301 l 558 0 l 318 0 l 318 301 m 388 -321 q 365 -312 374 -321 q 356 -290 356 -304 l 356 -146 q 388 -112 356 -112 l 499 -112 q 521 -122 513 -112 q 529 -146 529 -131 l 529 -290 q 499 -321 529 -321 l 388 -321 z "},"Ỵ":{"ha":876,"x_min":15,"x_max":861,"o":"m 318 301 l 15 1031 l 264 1031 l 443 546 l 622 1031 l 861 1031 l 558 301 l 558 0 l 318 0 l 318 301 m 388 -321 q 365 -312 374 -321 q 356 -290 356 -304 l 356 -146 q 388 -112 356 -112 l 499 -112 q 521 -122 513 -112 q 529 -146 529 -131 l 529 -290 q 499 -321 529 -321 l 388 -321 z "},"Ỳ":{"ha":876,"x_min":15,"x_max":861,"o":"m 318 301 l 15 1031 l 264 1031 l 443 546 l 622 1031 l 861 1031 l 558 301 l 558 0 l 318 0 l 318 301 m 247 1296 l 439 1296 l 543 1099 l 401 1099 l 247 1296 z "},"Ỷ":{"ha":876,"x_min":15,"x_max":861,"o":"m 318 301 l 15 1031 l 264 1031 l 443 546 l 622 1031 l 861 1031 l 558 301 l 558 0 l 318 0 l 318 301 m 399 1172 q 446 1219 446 1186 q 406 1249 446 1249 q 363 1240 393 1249 l 363 1333 q 438 1344 396 1344 q 537 1315 504 1344 q 569 1228 569 1285 q 529 1131 569 1168 q 399 1068 489 1093 l 399 1172 z "},"Ȳ":{"ha":876,"x_min":15,"x_max":861,"o":"m 318 301 l 15 1031 l 264 1031 l 443 546 l 622 1031 l 861 1031 l 558 301 l 558 0 l 318 0 l 318 301 m 236 1250 l 635 1250 l 635 1110 l 236 1110 l 236 1250 z "},"Ỹ":{"ha":876,"x_min":15,"x_max":861,"o":"m 318 301 l 15 1031 l 264 1031 l 443 546 l 622 1031 l 861 1031 l 558 301 l 558 0 l 318 0 l 318 301 m 175 1088 q 222 1233 181 1188 q 325 1279 263 1279 q 385 1271 360 1279 q 446 1246 411 1263 q 524 1221 490 1221 q 575 1288 571 1221 l 693 1288 q 547 1089 685 1089 q 484 1098 513 1089 q 421 1124 456 1107 q 379 1142 396 1136 q 347 1147 363 1147 q 310 1131 324 1147 q 294 1088 297 1115 l 175 1088 z "},"Z":{"ha":804,"x_min":51,"x_max":754,"o":"m 51 192 l 463 815 l 51 815 l 51 1031 l 754 1031 l 754 839 l 343 215 l 754 215 l 754 0 l 51 0 l 51 192 z "},"Ź":{"ha":804,"x_min":51,"x_max":754,"o":"m 51 192 l 463 815 l 51 815 l 51 1031 l 754 1031 l 754 839 l 343 215 l 754 215 l 754 0 l 51 0 l 51 192 m 438 1296 l 629 1296 l 475 1099 l 333 1099 l 438 1296 z "},"Ž":{"ha":804,"x_min":51,"x_max":754,"o":"m 51 192 l 463 815 l 51 815 l 51 1031 l 754 1031 l 754 839 l 343 215 l 754 215 l 754 0 l 51 0 l 51 192 m 178 1299 l 315 1299 l 394 1204 l 478 1299 l 617 1299 l 472 1099 l 310 1099 l 178 1299 z "},"Ż":{"ha":804,"x_min":51,"x_max":754,"o":"m 51 192 l 463 815 l 51 815 l 51 1031 l 754 1031 l 754 839 l 343 215 l 754 215 l 754 0 l 51 0 l 51 192 m 335 1110 q 312 1118 321 1110 q 303 1140 303 1126 l 303 1285 q 335 1318 303 1318 l 446 1318 q 468 1309 460 1318 q 476 1285 476 1300 l 476 1140 q 446 1110 476 1110 l 335 1110 z "},"Ẓ":{"ha":804,"x_min":51,"x_max":754,"o":"m 51 192 l 463 815 l 51 815 l 51 1031 l 754 1031 l 754 839 l 343 215 l 754 215 l 754 0 l 51 0 l 51 192 m 339 -321 q 316 -312 325 -321 q 307 -290 307 -304 l 307 -146 q 339 -112 307 -112 l 450 -112 q 472 -122 464 -112 q 481 -146 481 -131 l 481 -290 q 450 -321 481 -321 l 339 -321 z "},"a":{"ha":767,"x_min":42,"x_max":701,"o":"m 233 -8 q 94 43 147 -8 q 42 181 42 94 l 42 253 q 104 395 42 342 q 292 449 167 449 l 461 449 l 461 485 q 450 536 461 518 q 406 563 439 554 q 308 571 374 571 l 89 571 l 89 708 q 399 757 222 756 q 626 701 550 757 q 701 501 701 644 l 701 0 l 511 0 l 474 76 q 377 19 442 46 q 233 -8 313 -8 m 357 157 q 415 166 381 156 q 461 183 450 176 l 461 336 l 372 328 q 281 250 281 318 l 281 221 q 357 157 281 157 z "},"á":{"ha":767,"x_min":42,"x_max":701,"o":"m 233 -8 q 94 43 147 -8 q 42 181 42 94 l 42 253 q 104 395 42 342 q 292 449 167 449 l 461 449 l 461 485 q 450 536 461 518 q 406 563 439 554 q 308 571 374 571 l 89 571 l 89 708 q 399 757 222 756 q 626 701 550 757 q 701 501 701 644 l 701 0 l 511 0 l 474 76 q 377 19 442 46 q 233 -8 313 -8 m 357 157 q 415 166 381 156 q 461 183 450 176 l 461 336 l 372 328 q 281 250 281 318 l 281 221 q 357 157 281 157 m 414 1074 l 606 1074 l 451 876 l 310 876 l 414 1074 z "},"ă":{"ha":767,"x_min":42,"x_max":701,"o":"m 233 -8 q 94 43 147 -8 q 42 181 42 94 l 42 253 q 104 395 42 342 q 292 449 167 449 l 461 449 l 461 485 q 450 536 461 518 q 406 563 439 554 q 308 571 374 571 l 89 571 l 89 708 q 399 757 222 756 q 626 701 550 757 q 701 501 701 644 l 701 0 l 511 0 l 474 76 q 377 19 442 46 q 233 -8 313 -8 m 357 157 q 415 166 381 156 q 461 183 450 176 l 461 336 l 372 328 q 281 250 281 318 l 281 221 q 357 157 281 157 m 365 864 q 220 917 271 864 q 169 1078 169 971 l 279 1078 q 303 997 279 1022 q 363 972 326 972 q 428 997 406 972 q 451 1078 451 1021 l 565 1078 q 365 864 565 864 z "},"ắ":{"ha":767,"x_min":42,"x_max":701,"o":"m 233 -8 q 94 43 147 -8 q 42 181 42 94 l 42 253 q 104 395 42 342 q 292 449 167 449 l 461 449 l 461 485 q 450 536 461 518 q 406 563 439 554 q 308 571 374 571 l 89 571 l 89 708 q 399 757 222 756 q 626 701 550 757 q 701 501 701 644 l 701 0 l 511 0 l 474 76 q 377 19 442 46 q 233 -8 313 -8 m 357 157 q 415 166 381 156 q 461 183 450 176 l 461 336 l 372 328 q 281 250 281 318 l 281 221 q 357 157 281 157 m 401 1249 l 593 1249 l 439 1051 l 297 1051 l 401 1249 m 279 1011 q 303 953 279 971 q 365 935 328 935 q 451 1011 451 935 l 564 1011 q 513 882 564 925 q 365 839 463 839 q 219 882 269 839 q 168 1011 168 925 l 279 1011 z "},"ặ":{"ha":767,"x_min":42,"x_max":701,"o":"m 233 -8 q 94 43 147 -8 q 42 181 42 94 l 42 253 q 104 395 42 342 q 292 449 167 449 l 461 449 l 461 485 q 450 536 461 518 q 406 563 439 554 q 308 571 374 571 l 89 571 l 89 708 q 399 757 222 756 q 626 701 550 757 q 701 501 701 644 l 701 0 l 511 0 l 474 76 q 377 19 442 46 q 233 -8 313 -8 m 357 157 q 415 166 381 156 q 461 183 450 176 l 461 336 l 372 328 q 281 250 281 318 l 281 221 q 357 157 281 157 m 365 864 q 220 917 271 864 q 169 1078 169 971 l 279 1078 q 303 997 279 1022 q 363 972 326 972 q 428 997 406 972 q 451 1078 451 1021 l 565 1078 q 365 864 565 864 m 313 -321 q 290 -313 299 -321 q 282 -292 282 -306 l 282 -146 q 290 -122 282 -131 q 313 -112 297 -112 l 424 -112 q 446 -122 438 -112 q 454 -146 454 -132 l 454 -292 q 446 -313 454 -306 q 424 -321 438 -321 l 313 -321 z "},"ằ":{"ha":767,"x_min":42,"x_max":701,"o":"m 233 -8 q 94 43 147 -8 q 42 181 42 94 l 42 253 q 104 395 42 342 q 292 449 167 449 l 461 449 l 461 485 q 450 536 461 518 q 406 563 439 554 q 308 571 374 571 l 89 571 l 89 708 q 399 757 222 756 q 626 701 550 757 q 701 501 701 644 l 701 0 l 511 0 l 474 76 q 377 19 442 46 q 233 -8 313 -8 m 357 157 q 415 166 381 156 q 461 183 450 176 l 461 336 l 372 328 q 281 250 281 318 l 281 221 q 357 157 281 157 m 147 1249 l 339 1249 l 443 1051 l 301 1051 l 147 1249 m 279 1011 q 303 953 279 971 q 365 935 328 935 q 451 1011 451 935 l 564 1011 q 513 882 564 925 q 365 839 463 839 q 219 882 269 839 q 168 1011 168 925 l 279 1011 z "},"ẳ":{"ha":767,"x_min":42,"x_max":701,"o":"m 233 -8 q 94 43 147 -8 q 42 181 42 94 l 42 253 q 104 395 42 342 q 292 449 167 449 l 461 449 l 461 485 q 450 536 461 518 q 406 563 439 554 q 308 571 374 571 l 89 571 l 89 708 q 399 757 222 756 q 626 701 550 757 q 701 501 701 644 l 701 0 l 511 0 l 474 76 q 377 19 442 46 q 233 -8 313 -8 m 357 157 q 415 166 381 156 q 461 183 450 176 l 461 336 l 372 328 q 281 250 281 318 l 281 221 q 357 157 281 157 m 335 1097 q 382 1144 382 1111 q 342 1174 382 1174 q 299 1165 329 1174 l 299 1258 q 374 1269 332 1269 q 473 1240 440 1269 q 506 1153 506 1210 q 465 1056 506 1093 q 335 993 425 1018 l 335 1097 m 365 839 q 219 882 269 839 q 168 1011 168 925 l 279 1011 q 303 953 279 971 q 365 935 328 935 q 451 1011 451 935 l 564 1011 q 513 882 564 925 q 365 839 463 839 z "},"ẵ":{"ha":767,"x_min":42,"x_max":701,"o":"m 233 -8 q 94 43 147 -8 q 42 181 42 94 l 42 253 q 104 395 42 342 q 292 449 167 449 l 461 449 l 461 485 q 450 536 461 518 q 406 563 439 554 q 308 571 374 571 l 89 571 l 89 708 q 399 757 222 756 q 626 701 550 757 q 701 501 701 644 l 701 0 l 511 0 l 474 76 q 377 19 442 46 q 233 -8 313 -8 m 357 157 q 415 166 381 156 q 461 183 450 176 l 461 336 l 372 328 q 281 250 281 318 l 281 221 q 357 157 281 157 m 267 1211 q 315 1206 290 1211 q 361 1193 340 1200 q 419 1179 403 1179 q 454 1190 442 1179 q 467 1221 467 1201 l 585 1221 q 550 1099 578 1132 q 464 1067 522 1067 q 403 1076 433 1067 q 367 1086 372 1085 q 311 1099 326 1099 q 277 1088 289 1099 q 263 1064 265 1078 l 143 1064 q 182 1181 151 1150 q 267 1211 213 1211 m 279 1011 q 303 953 279 971 q 365 935 328 935 q 451 1011 451 935 l 564 1011 q 513 882 564 925 q 365 839 463 839 q 219 882 269 839 q 168 1011 168 925 l 279 1011 z "},"â":{"ha":767,"x_min":42,"x_max":701,"o":"m 233 -8 q 94 43 147 -8 q 42 181 42 94 l 42 253 q 104 395 42 342 q 292 449 167 449 l 461 449 l 461 485 q 450 536 461 518 q 406 563 439 554 q 308 571 374 571 l 89 571 l 89 708 q 399 757 222 756 q 626 701 550 757 q 701 501 701 644 l 701 0 l 511 0 l 474 76 q 377 19 442 46 q 233 -8 313 -8 m 357 157 q 415 166 381 156 q 461 183 450 176 l 461 336 l 372 328 q 281 250 281 318 l 281 221 q 357 157 281 157 m 299 1076 l 461 1076 l 593 876 l 454 876 l 376 971 l 293 876 l 154 876 l 299 1076 z "},"ấ":{"ha":767,"x_min":42,"x_max":744,"o":"m 233 -8 q 94 43 147 -8 q 42 181 42 94 l 42 253 q 104 395 42 342 q 292 449 167 449 l 461 449 l 461 485 q 450 536 461 518 q 406 563 439 554 q 308 571 374 571 l 89 571 l 89 708 q 399 757 222 756 q 626 701 550 757 q 701 501 701 644 l 701 0 l 511 0 l 474 76 q 377 19 442 46 q 233 -8 313 -8 m 357 157 q 415 166 381 156 q 461 183 450 176 l 461 336 l 372 328 q 281 250 281 318 l 281 221 q 357 157 281 157 m 744 1171 l 650 999 l 510 999 l 553 1171 l 744 1171 m 461 1033 l 592 876 l 454 876 l 375 928 l 293 876 l 154 876 l 299 1033 l 461 1033 z "},"ậ":{"ha":767,"x_min":42,"x_max":701,"o":"m 233 -8 q 94 43 147 -8 q 42 181 42 94 l 42 253 q 104 395 42 342 q 292 449 167 449 l 461 449 l 461 485 q 450 536 461 518 q 406 563 439 554 q 308 571 374 571 l 89 571 l 89 708 q 399 757 222 756 q 626 701 550 757 q 701 501 701 644 l 701 0 l 511 0 l 474 76 q 377 19 442 46 q 233 -8 313 -8 m 357 157 q 415 166 381 156 q 461 183 450 176 l 461 336 l 372 328 q 281 250 281 318 l 281 221 q 357 157 281 157 m 299 1076 l 461 1076 l 593 876 l 454 876 l 376 971 l 293 876 l 154 876 l 299 1076 m 313 -321 q 290 -313 299 -321 q 282 -292 282 -306 l 282 -146 q 290 -122 282 -131 q 313 -112 297 -112 l 424 -112 q 446 -122 438 -112 q 454 -146 454 -132 l 454 -292 q 446 -313 454 -306 q 424 -321 438 -321 l 313 -321 z "},"ầ":{"ha":767,"x_min":8,"x_max":701,"o":"m 233 -8 q 94 43 147 -8 q 42 181 42 94 l 42 253 q 104 395 42 342 q 292 449 167 449 l 461 449 l 461 485 q 450 536 461 518 q 406 563 439 554 q 308 571 374 571 l 89 571 l 89 708 q 399 757 222 756 q 626 701 550 757 q 701 501 701 644 l 701 0 l 511 0 l 474 76 q 377 19 442 46 q 233 -8 313 -8 m 357 157 q 415 166 381 156 q 461 183 450 176 l 461 336 l 372 328 q 281 250 281 318 l 281 221 q 357 157 281 157 m 200 1171 l 243 999 l 101 999 l 8 1171 l 200 1171 m 461 1033 l 592 876 l 454 876 l 375 928 l 293 876 l 154 876 l 299 1033 l 461 1033 z "},"ẩ":{"ha":767,"x_min":42,"x_max":701,"o":"m 233 -8 q 94 43 147 -8 q 42 181 42 94 l 42 253 q 104 395 42 342 q 292 449 167 449 l 461 449 l 461 485 q 450 536 461 518 q 406 563 439 554 q 308 571 374 571 l 89 571 l 89 708 q 399 757 222 756 q 626 701 550 757 q 701 501 701 644 l 701 0 l 511 0 l 474 76 q 377 19 442 46 q 233 -8 313 -8 m 357 157 q 415 166 381 156 q 461 183 450 176 l 461 336 l 372 328 q 281 250 281 318 l 281 221 q 357 157 281 157 m 544 1058 q 578 1097 578 1068 q 551 1122 578 1122 q 508 1114 536 1122 l 508 1194 q 583 1206 542 1206 q 690 1113 690 1206 q 656 1015 690 1053 q 544 954 621 976 l 544 1058 m 299 1033 l 461 1033 l 592 876 l 454 876 l 375 928 l 293 876 l 154 876 l 299 1033 z "},"ẫ":{"ha":767,"x_min":42,"x_max":701,"o":"m 233 -8 q 94 43 147 -8 q 42 181 42 94 l 42 253 q 104 395 42 342 q 292 449 167 449 l 461 449 l 461 485 q 450 536 461 518 q 406 563 439 554 q 308 571 374 571 l 89 571 l 89 708 q 399 757 222 756 q 626 701 550 757 q 701 501 701 644 l 701 0 l 511 0 l 474 76 q 377 19 442 46 q 233 -8 313 -8 m 357 157 q 415 166 381 156 q 461 183 450 176 l 461 336 l 372 328 q 281 250 281 318 l 281 221 q 357 157 281 157 m 267 1236 q 315 1231 290 1236 q 361 1218 340 1225 q 419 1204 403 1204 q 454 1215 442 1204 q 467 1244 467 1225 l 585 1244 q 550 1123 578 1156 q 464 1090 522 1090 q 358 1110 422 1090 q 299 1122 315 1122 q 274 1113 283 1122 q 263 1088 265 1103 l 143 1088 q 182 1206 151 1175 q 267 1236 213 1236 m 592 876 l 454 876 l 375 928 l 293 876 l 154 876 l 299 1033 l 461 1033 l 592 876 z "},"ȁ":{"ha":767,"x_min":42,"x_max":701,"o":"m 233 -8 q 94 43 147 -8 q 42 181 42 94 l 42 253 q 104 395 42 342 q 292 449 167 449 l 461 449 l 461 485 q 450 536 461 518 q 406 563 439 554 q 308 571 374 571 l 89 571 l 89 708 q 399 757 222 756 q 626 701 550 757 q 701 501 701 644 l 701 0 l 511 0 l 474 76 q 377 19 442 46 q 233 -8 313 -8 m 357 157 q 415 166 381 156 q 461 183 450 176 l 461 336 l 372 328 q 281 250 281 318 l 281 221 q 357 157 281 157 m 42 1074 l 233 1074 l 338 876 l 196 876 l 42 1074 m 306 1074 l 497 1074 l 601 876 l 460 876 l 306 1074 z "},"ä":{"ha":767,"x_min":42,"x_max":701,"o":"m 233 -8 q 94 43 147 -8 q 42 181 42 94 l 42 253 q 104 395 42 342 q 292 449 167 449 l 461 449 l 461 485 q 450 536 461 518 q 406 563 439 554 q 308 571 374 571 l 89 571 l 89 708 q 399 757 222 756 q 626 701 550 757 q 701 501 701 644 l 701 0 l 511 0 l 474 76 q 377 19 442 46 q 233 -8 313 -8 m 357 157 q 415 166 381 156 q 461 183 450 176 l 461 336 l 372 328 q 281 250 281 318 l 281 221 q 357 157 281 157 m 176 878 q 153 886 163 878 q 144 908 144 894 l 144 1053 q 176 1086 144 1086 l 288 1086 q 310 1077 301 1086 q 318 1053 318 1068 l 318 908 q 288 878 318 878 l 176 878 m 449 878 q 426 886 435 878 q 418 908 418 894 l 418 1053 q 449 1086 418 1086 l 561 1086 q 583 1077 575 1086 q 590 1053 590 1068 l 590 908 q 561 878 590 878 l 449 878 z "},"ạ":{"ha":767,"x_min":42,"x_max":701,"o":"m 233 -8 q 94 43 147 -8 q 42 181 42 94 l 42 253 q 104 395 42 342 q 292 449 167 449 l 461 449 l 461 485 q 450 536 461 518 q 406 563 439 554 q 308 571 374 571 l 89 571 l 89 708 q 399 757 222 756 q 626 701 550 757 q 701 501 701 644 l 701 0 l 511 0 l 474 76 q 377 19 442 46 q 233 -8 313 -8 m 357 157 q 415 166 381 156 q 461 183 450 176 l 461 336 l 372 328 q 281 250 281 318 l 281 221 q 357 157 281 157 m 313 -321 q 290 -313 299 -321 q 282 -292 282 -306 l 282 -146 q 290 -122 282 -131 q 313 -112 297 -112 l 424 -112 q 446 -122 438 -112 q 454 -146 454 -132 l 454 -292 q 446 -313 454 -306 q 424 -321 438 -321 l 313 -321 z "},"à":{"ha":767,"x_min":42,"x_max":701,"o":"m 233 -8 q 94 43 147 -8 q 42 181 42 94 l 42 253 q 104 395 42 342 q 292 449 167 449 l 461 449 l 461 485 q 450 536 461 518 q 406 563 439 554 q 308 571 374 571 l 89 571 l 89 708 q 399 757 222 756 q 626 701 550 757 q 701 501 701 644 l 701 0 l 511 0 l 474 76 q 377 19 442 46 q 233 -8 313 -8 m 357 157 q 415 166 381 156 q 461 183 450 176 l 461 336 l 372 328 q 281 250 281 318 l 281 221 q 357 157 281 157 m 183 1074 l 375 1074 l 479 876 l 338 876 l 183 1074 z "},"ả":{"ha":767,"x_min":42,"x_max":701,"o":"m 233 -8 q 94 43 147 -8 q 42 181 42 94 l 42 253 q 104 395 42 342 q 292 449 167 449 l 461 449 l 461 485 q 450 536 461 518 q 406 563 439 554 q 308 571 374 571 l 89 571 l 89 708 q 399 757 222 756 q 626 701 550 757 q 701 501 701 644 l 701 0 l 511 0 l 474 76 q 377 19 442 46 q 233 -8 313 -8 m 357 157 q 415 166 381 156 q 461 183 450 176 l 461 336 l 372 328 q 281 250 281 318 l 281 221 q 357 157 281 157 m 332 925 q 379 972 379 939 q 339 1001 379 1001 q 296 993 326 1001 l 296 1086 q 371 1097 329 1097 q 470 1067 438 1097 q 503 981 503 1038 q 463 883 503 921 q 332 821 422 846 l 332 925 z "},"ȃ":{"ha":767,"x_min":42,"x_max":701,"o":"m 233 -8 q 94 43 147 -8 q 42 181 42 94 l 42 253 q 104 395 42 342 q 292 449 167 449 l 461 449 l 461 485 q 450 536 461 518 q 406 563 439 554 q 308 571 374 571 l 89 571 l 89 708 q 399 757 222 756 q 626 701 550 757 q 701 501 701 644 l 701 0 l 511 0 l 474 76 q 377 19 442 46 q 233 -8 313 -8 m 357 157 q 415 166 381 156 q 461 183 450 176 l 461 336 l 372 328 q 281 250 281 318 l 281 221 q 357 157 281 157 m 381 1081 q 526 1027 475 1081 q 576 867 576 974 l 467 867 q 443 947 467 922 q 383 972 419 972 q 317 948 340 972 q 294 867 294 924 l 181 867 q 381 1081 181 1081 z "},"ā":{"ha":767,"x_min":42,"x_max":701,"o":"m 233 -8 q 94 43 147 -8 q 42 181 42 94 l 42 253 q 104 395 42 342 q 292 449 167 449 l 461 449 l 461 485 q 450 536 461 518 q 406 563 439 554 q 308 571 374 571 l 89 571 l 89 708 q 399 757 222 756 q 626 701 550 757 q 701 501 701 644 l 701 0 l 511 0 l 474 76 q 377 19 442 46 q 233 -8 313 -8 m 357 157 q 415 166 381 156 q 461 183 450 176 l 461 336 l 372 328 q 281 250 281 318 l 281 221 q 357 157 281 157 m 169 1028 l 568 1028 l 568 888 l 169 888 l 169 1028 z "},"ą":{"ha":767,"x_min":42,"x_max":722,"o":"m 722 -151 l 722 -264 q 675 -269 710 -269 q 563 -232 599 -269 q 526 -143 526 -194 q 614 0 526 -49 l 511 0 l 474 76 q 377 19 442 46 q 233 -8 313 -8 q 94 43 147 -8 q 42 181 42 94 l 42 253 q 104 395 42 342 q 292 449 167 449 l 461 449 l 461 485 q 450 536 461 518 q 406 563 439 554 q 308 571 374 571 l 89 571 l 89 708 q 399 757 222 756 q 626 701 550 757 q 701 501 701 644 l 701 0 l 700 0 q 654 -42 668 -22 q 640 -87 640 -62 q 660 -134 640 -117 q 708 -151 679 -151 l 722 -151 m 461 336 l 372 328 q 281 250 281 318 l 281 221 q 357 157 281 157 q 415 166 381 156 q 461 183 450 176 l 461 336 z "},"å":{"ha":767,"x_min":42,"x_max":701,"o":"m 233 -8 q 94 43 147 -8 q 42 181 42 94 l 42 253 q 104 395 42 342 q 292 449 167 449 l 461 449 l 461 485 q 450 536 461 518 q 406 563 439 554 q 308 571 374 571 l 89 571 l 89 708 q 399 757 222 756 q 626 701 550 757 q 701 501 701 644 l 701 0 l 511 0 l 474 76 q 377 19 442 46 q 233 -8 313 -8 m 357 157 q 415 166 381 156 q 461 183 450 176 l 461 336 l 372 328 q 281 250 281 318 l 281 221 q 357 157 281 157 m 376 810 q 243 846 288 810 q 199 969 199 882 q 243 1093 199 1056 q 376 1131 288 1131 q 510 1094 467 1131 q 553 969 553 1057 q 510 846 553 882 q 376 810 467 810 m 376 896 q 428 912 413 896 q 443 969 443 928 q 428 1026 443 1010 q 376 1043 413 1043 q 325 1026 342 1043 q 308 969 308 1010 q 324 913 308 929 q 376 896 340 896 z "},"ǻ":{"ha":767,"x_min":42,"x_max":701,"o":"m 376 810 q 243 846 288 810 q 199 969 199 882 q 231 1081 199 1043 q 329 1128 264 1119 l 418 1296 l 610 1296 l 469 1117 q 532 1066 511 1101 q 553 969 553 1031 q 510 846 553 882 q 376 810 467 810 m 376 1043 q 325 1026 342 1043 q 308 969 308 1010 q 324 913 308 929 q 376 896 340 896 q 428 912 413 896 q 443 969 443 928 q 428 1026 443 1010 q 376 1043 413 1043 m 399 757 q 626 701 550 757 q 701 501 701 644 l 701 0 l 511 0 l 474 76 q 377 19 442 46 q 233 -8 313 -8 q 94 43 147 -8 q 42 181 42 94 l 42 253 q 104 395 42 342 q 292 449 167 449 l 461 449 l 461 485 q 450 536 461 518 q 406 563 439 554 q 308 571 374 571 l 89 571 l 89 708 q 399 757 222 756 m 461 336 l 372 328 q 281 250 281 318 l 281 221 q 357 157 281 157 q 415 166 381 156 q 461 183 450 176 l 461 336 z "},"ã":{"ha":767,"x_min":42,"x_max":701,"o":"m 233 -8 q 94 43 147 -8 q 42 181 42 94 l 42 253 q 104 395 42 342 q 292 449 167 449 l 461 449 l 461 485 q 450 536 461 518 q 406 563 439 554 q 308 571 374 571 l 89 571 l 89 708 q 399 757 222 756 q 626 701 550 757 q 701 501 701 644 l 701 0 l 511 0 l 474 76 q 377 19 442 46 q 233 -8 313 -8 m 357 157 q 415 166 381 156 q 461 183 450 176 l 461 336 l 372 328 q 281 250 281 318 l 281 221 q 357 157 281 157 m 119 865 q 166 1011 125 965 q 269 1057 207 1057 q 330 1049 304 1057 q 390 1024 356 1040 q 468 999 435 999 q 519 1065 515 999 l 638 1065 q 492 867 629 867 q 428 876 457 867 q 365 901 400 885 q 324 919 340 914 q 292 925 307 925 q 255 909 268 925 q 239 865 242 893 l 119 865 z "},"æ":{"ha":1168,"x_min":46,"x_max":1107,"o":"m 246 -8 q 94 47 142 -8 q 46 185 46 103 l 46 250 q 107 392 46 338 q 299 447 168 447 l 465 447 l 465 489 q 435 553 465 535 q 331 571 406 571 l 93 571 l 93 708 q 221 744 160 732 q 356 757 282 756 q 493 737 432 757 q 590 683 554 717 q 815 760 679 760 q 985 736 922 760 q 1077 654 1047 713 q 1107 489 1107 596 q 1042 338 1107 382 q 843 293 976 293 l 700 293 q 722 215 700 242 q 785 180 744 189 q 893 171 825 171 l 1082 171 l 1082 31 q 771 -8 961 -8 q 624 24 693 -8 q 524 106 556 56 q 405 25 479 58 q 246 -8 331 -8 m 836 442 q 893 494 893 442 q 869 562 893 543 q 797 581 846 581 q 719 551 739 581 q 700 442 700 521 l 836 442 m 363 157 q 476 203 421 157 q 463 333 463 253 l 347 319 q 301 296 317 315 q 286 251 286 276 l 286 225 q 363 157 286 157 z "},"ǽ":{"ha":1168,"x_min":46,"x_max":1107,"o":"m 246 -8 q 94 47 142 -8 q 46 185 46 103 l 46 250 q 107 392 46 338 q 299 447 168 447 l 465 447 l 465 489 q 435 553 465 535 q 331 571 406 571 l 93 571 l 93 708 q 221 744 160 732 q 356 757 282 756 q 493 737 432 757 q 590 683 554 717 q 815 760 679 760 q 985 736 922 760 q 1077 654 1047 713 q 1107 489 1107 596 q 1042 338 1107 382 q 843 293 976 293 l 700 293 q 722 215 700 242 q 785 180 744 189 q 893 171 825 171 l 1082 171 l 1082 31 q 771 -8 961 -8 q 624 24 693 -8 q 524 106 556 56 q 405 25 479 58 q 246 -8 331 -8 m 836 442 q 893 494 893 442 q 869 562 893 543 q 797 581 846 581 q 719 551 739 581 q 700 442 700 521 l 836 442 m 363 157 q 476 203 421 157 q 463 333 463 253 l 347 319 q 301 296 317 315 q 286 251 286 276 l 286 225 q 363 157 286 157 m 628 1074 l 819 1074 l 665 876 l 524 876 l 628 1074 z "},"b":{"ha":817,"x_min":69,"x_max":768,"o":"m 515 -8 q 403 11 449 -8 q 310 69 357 31 l 271 0 l 69 0 l 69 1060 l 310 1060 l 310 701 q 407 743 356 726 q 504 760 458 760 q 660 719 603 760 q 742 593 717 679 q 768 365 768 507 q 706 83 768 174 q 515 -8 643 -8 m 424 186 q 500 227 472 186 q 528 378 528 268 q 513 500 528 458 q 476 554 499 542 q 424 567 454 567 q 362 556 393 567 q 310 533 331 546 l 310 214 q 424 186 363 186 z "},"ḃ":{"ha":817,"x_min":69,"x_max":768,"o":"m 515 -8 q 403 11 449 -8 q 310 69 357 31 l 271 0 l 69 0 l 69 1060 l 310 1060 l 310 701 q 407 743 356 726 q 504 760 458 760 q 660 719 603 760 q 742 593 717 679 q 768 365 768 507 q 706 83 768 174 q 515 -8 643 -8 m 424 186 q 500 227 472 186 q 528 378 528 268 q 513 500 528 458 q 476 554 499 542 q 424 567 454 567 q 362 556 393 567 q 310 533 331 546 l 310 214 q 424 186 363 186 m 131 1165 q 108 1174 117 1165 q 99 1196 99 1182 l 99 1340 q 131 1374 99 1374 l 242 1374 q 264 1365 256 1374 q 272 1340 272 1356 l 272 1196 q 242 1165 272 1165 l 131 1165 z "},"c":{"ha":681,"x_min":49,"x_max":650,"o":"m 367 -8 q 132 77 215 -8 q 49 369 49 163 q 85 603 49 518 q 193 724 122 689 q 375 760 264 760 q 507 751 446 760 q 639 721 568 742 l 639 583 l 451 583 q 353 565 388 583 q 303 503 318 547 q 289 372 289 458 q 303 244 289 286 q 351 187 317 201 q 454 172 385 172 l 650 172 l 650 36 q 517 4 596 17 q 367 -8 438 -8 z "},"ć":{"ha":681,"x_min":49,"x_max":650,"o":"m 367 -8 q 132 77 215 -8 q 49 369 49 163 q 85 603 49 518 q 193 724 122 689 q 375 760 264 760 q 507 751 446 760 q 639 721 568 742 l 639 583 l 451 583 q 353 565 388 583 q 303 503 318 547 q 289 372 289 458 q 303 244 289 286 q 351 187 317 201 q 454 172 385 172 l 650 172 l 650 36 q 517 4 596 17 q 367 -8 438 -8 m 414 1074 l 606 1074 l 451 876 l 310 876 l 414 1074 z "},"č":{"ha":681,"x_min":49,"x_max":650,"o":"m 367 -8 q 132 77 215 -8 q 49 369 49 163 q 85 603 49 518 q 193 724 122 689 q 375 760 264 760 q 507 751 446 760 q 639 721 568 742 l 639 583 l 451 583 q 353 565 388 583 q 303 503 318 547 q 289 372 289 458 q 303 244 289 286 q 351 187 317 201 q 454 172 385 172 l 650 172 l 650 36 q 517 4 596 17 q 367 -8 438 -8 m 158 1076 l 296 1076 l 375 982 l 458 1076 l 597 1076 l 453 876 l 290 876 l 158 1076 z "},"ç":{"ha":681,"x_min":49,"x_max":650,"o":"m 650 36 q 446 -4 564 7 l 407 -68 q 471 -98 446 -74 q 496 -162 496 -122 q 458 -249 496 -218 q 343 -279 419 -279 l 268 -279 l 268 -181 l 290 -176 q 342 -135 342 -168 q 288 -87 342 -99 l 338 -7 q 124 87 200 0 q 49 369 49 174 q 85 603 49 518 q 193 724 122 689 q 375 760 264 760 q 507 751 446 760 q 639 721 568 742 l 639 583 l 451 583 q 353 565 388 583 q 303 503 318 547 q 289 372 289 458 q 303 244 289 286 q 351 187 317 201 q 454 172 385 172 l 650 172 l 650 36 z "},"ḉ":{"ha":681,"x_min":49,"x_max":650,"o":"m 451 876 l 310 876 l 414 1074 l 606 1074 l 451 876 m 650 36 q 446 -4 564 7 l 407 -68 q 471 -98 446 -74 q 496 -162 496 -122 q 458 -249 496 -218 q 343 -279 419 -279 l 268 -279 l 268 -181 l 290 -176 q 342 -135 342 -168 q 288 -87 342 -99 l 338 -7 q 124 87 200 0 q 49 369 49 174 q 85 603 49 518 q 193 724 122 689 q 375 760 264 760 q 507 751 446 760 q 639 721 568 742 l 639 583 l 451 583 q 353 565 388 583 q 303 503 318 547 q 289 372 289 458 q 303 244 289 286 q 351 187 317 201 q 454 172 385 172 l 650 172 l 650 36 z "},"ĉ":{"ha":681,"x_min":49,"x_max":650,"o":"m 367 -8 q 132 77 215 -8 q 49 369 49 163 q 85 603 49 518 q 193 724 122 689 q 375 760 264 760 q 507 751 446 760 q 639 721 568 742 l 639 583 l 451 583 q 353 565 388 583 q 303 503 318 547 q 289 372 289 458 q 303 244 289 286 q 351 187 317 201 q 454 172 385 172 l 650 172 l 650 36 q 517 4 596 17 q 367 -8 438 -8 m 299 1076 l 461 1076 l 593 876 l 454 876 l 376 971 l 293 876 l 154 876 l 299 1076 z "},"ċ":{"ha":681,"x_min":49,"x_max":650,"o":"m 367 -8 q 132 77 215 -8 q 49 369 49 163 q 85 603 49 518 q 193 724 122 689 q 375 760 264 760 q 507 751 446 760 q 639 721 568 742 l 639 583 l 451 583 q 353 565 388 583 q 303 503 318 547 q 289 372 289 458 q 303 244 289 286 q 351 187 317 201 q 454 172 385 172 l 650 172 l 650 36 q 517 4 596 17 q 367 -8 438 -8 m 317 888 q 294 896 303 888 q 285 918 285 904 l 285 1063 q 317 1096 285 1096 l 428 1096 q 450 1087 442 1096 q 458 1063 458 1078 l 458 918 q 428 888 458 888 l 317 888 z "},"d":{"ha":814,"x_min":49,"x_max":747,"o":"m 315 -8 q 115 78 182 -8 q 49 365 49 165 q 74 594 49 508 q 160 719 100 679 q 329 760 221 760 q 507 728 414 760 l 507 1060 l 747 1060 l 747 0 l 544 0 l 507 69 q 417 13 467 35 q 315 -8 367 -8 m 401 183 q 507 218 457 183 l 507 554 q 410 581 454 581 q 338 565 363 581 q 301 506 313 549 q 289 378 289 463 q 299 255 289 296 q 333 199 310 214 q 401 183 357 183 z "},"ð":{"ha":799,"x_min":49,"x_max":750,"o":"m 750 375 q 717 146 750 228 q 609 28 685 64 q 399 -7 533 -7 q 192 28 268 -7 q 83 144 117 64 q 49 364 49 225 q 85 586 49 506 q 191 699 122 667 q 365 732 260 732 q 508 706 449 732 q 429 843 485 792 l 203 757 l 175 832 l 339 894 q 167 919 274 917 l 167 1061 q 387 1039 293 1060 q 547 975 481 1018 l 707 1036 l 736 960 l 618 915 q 719 706 688 836 q 750 376 750 575 l 750 375 m 399 183 q 467 195 444 183 q 499 245 489 207 q 510 365 510 283 q 499 483 510 446 q 467 533 489 521 q 399 544 444 544 q 332 533 354 544 q 299 483 310 521 q 289 365 289 446 q 299 245 289 283 q 332 195 310 207 q 399 183 354 183 z "},"ď":{"ha":814,"x_min":49,"x_max":1028,"o":"m 315 -8 q 115 78 182 -8 q 49 365 49 165 q 74 594 49 508 q 160 719 100 679 q 329 760 221 760 q 507 728 414 760 l 507 1060 l 747 1060 l 747 0 l 544 0 l 507 69 q 417 13 467 35 q 315 -8 367 -8 m 401 183 q 507 218 457 183 l 507 554 q 410 581 454 581 q 338 565 363 581 q 301 506 313 549 q 289 378 289 463 q 299 255 289 296 q 333 199 310 214 q 401 183 357 183 m 811 996 l 811 1088 l 1028 1088 l 1028 996 l 1015 808 l 825 808 l 811 996 z "},"đ":{"ha":814,"x_min":49,"x_max":824,"o":"m 824 847 l 747 847 l 747 0 l 544 0 l 507 69 q 417 13 467 35 q 315 -8 367 -8 q 115 78 182 -8 q 49 365 49 165 q 74 594 49 508 q 160 719 100 679 q 329 760 221 760 q 507 728 414 760 l 507 847 l 356 847 l 356 940 l 507 940 l 507 1060 l 747 1060 l 747 940 l 824 940 l 824 847 m 507 554 q 410 581 454 581 q 338 565 363 581 q 301 506 313 549 q 289 378 289 463 q 299 255 289 296 q 333 199 310 214 q 401 183 357 183 q 507 218 457 183 l 507 554 z "},"ḋ":{"ha":814,"x_min":49,"x_max":747,"o":"m 315 -8 q 115 78 182 -8 q 49 365 49 165 q 74 594 49 508 q 160 719 100 679 q 329 760 221 760 q 507 728 414 760 l 507 1060 l 747 1060 l 747 0 l 544 0 l 507 69 q 417 13 467 35 q 315 -8 367 -8 m 401 183 q 507 218 457 183 l 507 554 q 410 581 454 581 q 338 565 363 581 q 301 506 313 549 q 289 378 289 463 q 299 255 289 296 q 333 199 310 214 q 401 183 357 183 m 569 1165 q 547 1174 556 1165 q 538 1196 538 1182 l 538 1340 q 569 1374 538 1374 l 681 1374 q 703 1365 694 1374 q 711 1340 711 1356 l 711 1196 q 681 1165 711 1165 l 569 1165 z "},"ḍ":{"ha":814,"x_min":49,"x_max":747,"o":"m 315 -8 q 115 78 182 -8 q 49 365 49 165 q 74 594 49 508 q 160 719 100 679 q 329 760 221 760 q 507 728 414 760 l 507 1060 l 747 1060 l 747 0 l 544 0 l 507 69 q 417 13 467 35 q 315 -8 367 -8 m 401 183 q 507 218 457 183 l 507 554 q 410 581 454 581 q 338 565 363 581 q 301 506 313 549 q 289 378 289 463 q 299 255 289 296 q 333 199 310 214 q 401 183 357 183 m 328 -321 q 306 -313 314 -321 q 297 -292 297 -306 l 297 -146 q 305 -122 297 -131 q 328 -112 313 -112 l 439 -112 q 461 -122 453 -112 q 469 -146 469 -132 l 469 -292 q 461 -313 469 -306 q 439 -321 453 -321 l 328 -321 z "},"ḏ":{"ha":814,"x_min":49,"x_max":747,"o":"m 315 -8 q 115 78 182 -8 q 49 365 49 165 q 74 594 49 508 q 160 719 100 679 q 329 760 221 760 q 507 728 414 760 l 507 1060 l 747 1060 l 747 0 l 544 0 l 507 69 q 417 13 467 35 q 315 -8 367 -8 m 401 183 q 507 218 457 183 l 507 554 q 410 581 454 581 q 338 565 363 581 q 301 506 313 549 q 289 378 289 463 q 299 255 289 296 q 333 199 310 214 q 401 183 357 183 m 196 -167 l 594 -167 l 594 -307 l 196 -307 l 196 -167 z "},"e":{"ha":744,"x_min":49,"x_max":696,"o":"m 394 -7 q 190 26 264 -7 q 83 141 117 60 q 49 372 49 222 q 80 609 49 526 q 183 726 111 692 q 385 760 254 760 q 569 737 503 760 q 666 658 636 714 q 696 497 696 601 q 632 338 696 385 q 446 290 568 290 l 286 290 q 303 218 289 243 q 354 182 318 193 q 460 171 390 171 l 669 171 l 669 31 q 541 3 604 13 q 394 -7 478 -7 m 419 432 q 469 447 454 432 q 485 496 485 461 q 462 567 485 546 q 385 588 439 588 q 306 555 328 588 q 283 432 283 522 l 419 432 z "},"é":{"ha":744,"x_min":49,"x_max":696,"o":"m 394 -7 q 190 26 264 -7 q 83 141 117 60 q 49 372 49 222 q 80 609 49 526 q 183 726 111 692 q 385 760 254 760 q 569 737 503 760 q 666 658 636 714 q 696 497 696 601 q 632 338 696 385 q 446 290 568 290 l 286 290 q 303 218 289 243 q 354 182 318 193 q 460 171 390 171 l 669 171 l 669 31 q 541 3 604 13 q 394 -7 478 -7 m 419 432 q 469 447 454 432 q 485 496 485 461 q 462 567 485 546 q 385 588 439 588 q 306 555 328 588 q 283 432 283 522 l 419 432 m 414 1074 l 606 1074 l 451 876 l 310 876 l 414 1074 z "},"ĕ":{"ha":744,"x_min":49,"x_max":696,"o":"m 394 -7 q 190 26 264 -7 q 83 141 117 60 q 49 372 49 222 q 80 609 49 526 q 183 726 111 692 q 385 760 254 760 q 569 737 503 760 q 666 658 636 714 q 696 497 696 601 q 632 338 696 385 q 446 290 568 290 l 286 290 q 303 218 289 243 q 354 182 318 193 q 460 171 390 171 l 669 171 l 669 31 q 541 3 604 13 q 394 -7 478 -7 m 419 432 q 469 447 454 432 q 485 496 485 461 q 462 567 485 546 q 385 588 439 588 q 306 555 328 588 q 283 432 283 522 l 419 432 m 365 864 q 220 917 271 864 q 169 1078 169 971 l 279 1078 q 303 997 279 1022 q 363 972 326 972 q 428 997 406 972 q 451 1078 451 1021 l 565 1078 q 365 864 565 864 z "},"ě":{"ha":744,"x_min":49,"x_max":696,"o":"m 394 -7 q 190 26 264 -7 q 83 141 117 60 q 49 372 49 222 q 80 609 49 526 q 183 726 111 692 q 385 760 254 760 q 569 737 503 760 q 666 658 636 714 q 696 497 696 601 q 632 338 696 385 q 446 290 568 290 l 286 290 q 303 218 289 243 q 354 182 318 193 q 460 171 390 171 l 669 171 l 669 31 q 541 3 604 13 q 394 -7 478 -7 m 419 432 q 469 447 454 432 q 485 496 485 461 q 462 567 485 546 q 385 588 439 588 q 306 555 328 588 q 283 432 283 522 l 419 432 m 158 1076 l 296 1076 l 375 982 l 458 1076 l 597 1076 l 453 876 l 290 876 l 158 1076 z "},"ḝ":{"ha":744,"x_min":49,"x_max":696,"o":"m 365 864 q 220 917 271 864 q 169 1078 169 971 l 279 1078 q 303 997 279 1022 q 363 972 326 972 q 428 997 406 972 q 451 1078 451 1021 l 565 1078 q 365 864 565 864 m 286 290 q 303 218 289 243 q 354 182 318 193 q 460 171 390 171 l 669 171 l 669 31 q 561 6 613 15 q 446 -6 510 -3 l 407 -68 q 471 -98 446 -74 q 496 -162 496 -122 q 458 -249 496 -218 q 343 -279 419 -279 l 268 -279 l 268 -181 l 290 -176 q 342 -135 342 -168 q 288 -87 342 -99 l 339 -6 q 169 38 232 1 q 77 155 106 75 q 49 372 49 235 q 80 609 49 526 q 183 726 111 692 q 385 760 254 760 q 569 737 503 760 q 666 658 636 714 q 696 497 696 601 q 632 338 696 385 q 446 290 568 290 l 286 290 m 385 588 q 306 555 328 588 q 283 432 283 522 l 419 432 q 469 447 454 432 q 485 496 485 461 q 462 567 485 546 q 385 588 439 588 z "},"ê":{"ha":744,"x_min":49,"x_max":696,"o":"m 394 -7 q 190 26 264 -7 q 83 141 117 60 q 49 372 49 222 q 80 609 49 526 q 183 726 111 692 q 385 760 254 760 q 569 737 503 760 q 666 658 636 714 q 696 497 696 601 q 632 338 696 385 q 446 290 568 290 l 286 290 q 303 218 289 243 q 354 182 318 193 q 460 171 390 171 l 669 171 l 669 31 q 541 3 604 13 q 394 -7 478 -7 m 419 432 q 469 447 454 432 q 485 496 485 461 q 462 567 485 546 q 385 588 439 588 q 306 555 328 588 q 283 432 283 522 l 419 432 m 299 1076 l 461 1076 l 593 876 l 454 876 l 376 971 l 293 876 l 154 876 l 299 1076 z "},"ế":{"ha":744,"x_min":49,"x_max":744,"o":"m 394 -7 q 190 26 264 -7 q 83 141 117 60 q 49 372 49 222 q 80 609 49 526 q 183 726 111 692 q 385 760 254 760 q 569 737 503 760 q 666 658 636 714 q 696 497 696 601 q 632 338 696 385 q 446 290 568 290 l 286 290 q 303 218 289 243 q 354 182 318 193 q 460 171 390 171 l 669 171 l 669 31 q 541 3 604 13 q 394 -7 478 -7 m 419 432 q 469 447 454 432 q 485 496 485 461 q 462 567 485 546 q 385 588 439 588 q 306 555 328 588 q 283 432 283 522 l 419 432 m 744 1171 l 650 999 l 510 999 l 553 1171 l 744 1171 m 461 1033 l 592 876 l 454 876 l 375 928 l 293 876 l 154 876 l 299 1033 l 461 1033 z "},"ệ":{"ha":744,"x_min":49,"x_max":696,"o":"m 394 -7 q 190 26 264 -7 q 83 141 117 60 q 49 372 49 222 q 80 609 49 526 q 183 726 111 692 q 385 760 254 760 q 569 737 503 760 q 666 658 636 714 q 696 497 696 601 q 632 338 696 385 q 446 290 568 290 l 286 290 q 303 218 289 243 q 354 182 318 193 q 460 171 390 171 l 669 171 l 669 31 q 541 3 604 13 q 394 -7 478 -7 m 419 432 q 469 447 454 432 q 485 496 485 461 q 462 567 485 546 q 385 588 439 588 q 306 555 328 588 q 283 432 283 522 l 419 432 m 299 1076 l 461 1076 l 593 876 l 454 876 l 376 971 l 293 876 l 154 876 l 299 1076 m 313 -321 q 290 -313 299 -321 q 282 -292 282 -306 l 282 -146 q 290 -122 282 -131 q 313 -112 297 -112 l 424 -112 q 446 -122 438 -112 q 454 -146 454 -132 l 454 -292 q 446 -313 454 -306 q 424 -321 438 -321 l 313 -321 z "},"ề":{"ha":744,"x_min":8,"x_max":696,"o":"m 394 -7 q 190 26 264 -7 q 83 141 117 60 q 49 372 49 222 q 80 609 49 526 q 183 726 111 692 q 385 760 254 760 q 569 737 503 760 q 666 658 636 714 q 696 497 696 601 q 632 338 696 385 q 446 290 568 290 l 286 290 q 303 218 289 243 q 354 182 318 193 q 460 171 390 171 l 669 171 l 669 31 q 541 3 604 13 q 394 -7 478 -7 m 419 432 q 469 447 454 432 q 485 496 485 461 q 462 567 485 546 q 385 588 439 588 q 306 555 328 588 q 283 432 283 522 l 419 432 m 200 1171 l 243 999 l 101 999 l 8 1171 l 200 1171 m 461 1033 l 592 876 l 454 876 l 375 928 l 293 876 l 154 876 l 299 1033 l 461 1033 z "},"ể":{"ha":744,"x_min":49,"x_max":696,"o":"m 394 -7 q 190 26 264 -7 q 83 141 117 60 q 49 372 49 222 q 80 609 49 526 q 183 726 111 692 q 385 760 254 760 q 569 737 503 760 q 666 658 636 714 q 696 497 696 601 q 632 338 696 385 q 446 290 568 290 l 286 290 q 303 218 289 243 q 354 182 318 193 q 460 171 390 171 l 669 171 l 669 31 q 541 3 604 13 q 394 -7 478 -7 m 419 432 q 469 447 454 432 q 485 496 485 461 q 462 567 485 546 q 385 588 439 588 q 306 555 328 588 q 283 432 283 522 l 419 432 m 544 1058 q 578 1097 578 1068 q 551 1122 578 1122 q 508 1114 536 1122 l 508 1194 q 583 1206 542 1206 q 690 1113 690 1206 q 656 1015 690 1053 q 544 954 621 976 l 544 1058 m 299 1033 l 461 1033 l 592 876 l 454 876 l 375 928 l 293 876 l 154 876 l 299 1033 z "},"ễ":{"ha":744,"x_min":49,"x_max":696,"o":"m 394 -7 q 190 26 264 -7 q 83 141 117 60 q 49 372 49 222 q 80 609 49 526 q 183 726 111 692 q 385 760 254 760 q 569 737 503 760 q 666 658 636 714 q 696 497 696 601 q 632 338 696 385 q 446 290 568 290 l 286 290 q 303 218 289 243 q 354 182 318 193 q 460 171 390 171 l 669 171 l 669 31 q 541 3 604 13 q 394 -7 478 -7 m 419 432 q 469 447 454 432 q 485 496 485 461 q 462 567 485 546 q 385 588 439 588 q 306 555 328 588 q 283 432 283 522 l 419 432 m 267 1236 q 315 1231 290 1236 q 361 1218 340 1225 q 419 1204 403 1204 q 454 1215 442 1204 q 467 1244 467 1225 l 585 1244 q 550 1123 578 1156 q 464 1090 522 1090 q 358 1110 422 1090 q 299 1122 315 1122 q 274 1113 283 1122 q 263 1088 265 1103 l 143 1088 q 182 1206 151 1175 q 267 1236 213 1236 m 592 876 l 454 876 l 375 928 l 293 876 l 154 876 l 299 1033 l 461 1033 l 592 876 z "},"ȅ":{"ha":744,"x_min":42,"x_max":696,"o":"m 394 -7 q 190 26 264 -7 q 83 141 117 60 q 49 372 49 222 q 80 609 49 526 q 183 726 111 692 q 385 760 254 760 q 569 737 503 760 q 666 658 636 714 q 696 497 696 601 q 632 338 696 385 q 446 290 568 290 l 286 290 q 303 218 289 243 q 354 182 318 193 q 460 171 390 171 l 669 171 l 669 31 q 541 3 604 13 q 394 -7 478 -7 m 419 432 q 469 447 454 432 q 485 496 485 461 q 462 567 485 546 q 385 588 439 588 q 306 555 328 588 q 283 432 283 522 l 419 432 m 42 1074 l 233 1074 l 338 876 l 196 876 l 42 1074 m 306 1074 l 497 1074 l 601 876 l 460 876 l 306 1074 z "},"ë":{"ha":744,"x_min":49,"x_max":696,"o":"m 394 -7 q 190 26 264 -7 q 83 141 117 60 q 49 372 49 222 q 80 609 49 526 q 183 726 111 692 q 385 760 254 760 q 569 737 503 760 q 666 658 636 714 q 696 497 696 601 q 632 338 696 385 q 446 290 568 290 l 286 290 q 303 218 289 243 q 354 182 318 193 q 460 171 390 171 l 669 171 l 669 31 q 541 3 604 13 q 394 -7 478 -7 m 419 432 q 469 447 454 432 q 485 496 485 461 q 462 567 485 546 q 385 588 439 588 q 306 555 328 588 q 283 432 283 522 l 419 432 m 176 878 q 153 886 163 878 q 144 908 144 894 l 144 1053 q 176 1086 144 1086 l 288 1086 q 310 1077 301 1086 q 318 1053 318 1068 l 318 908 q 288 878 318 878 l 176 878 m 449 878 q 426 886 435 878 q 418 908 418 894 l 418 1053 q 449 1086 418 1086 l 561 1086 q 583 1077 575 1086 q 590 1053 590 1068 l 590 908 q 561 878 590 878 l 449 878 z "},"ė":{"ha":744,"x_min":49,"x_max":696,"o":"m 394 -7 q 190 26 264 -7 q 83 141 117 60 q 49 372 49 222 q 80 609 49 526 q 183 726 111 692 q 385 760 254 760 q 569 737 503 760 q 666 658 636 714 q 696 497 696 601 q 632 338 696 385 q 446 290 568 290 l 286 290 q 303 218 289 243 q 354 182 318 193 q 460 171 390 171 l 669 171 l 669 31 q 541 3 604 13 q 394 -7 478 -7 m 419 432 q 469 447 454 432 q 485 496 485 461 q 462 567 485 546 q 385 588 439 588 q 306 555 328 588 q 283 432 283 522 l 419 432 m 317 888 q 294 896 303 888 q 285 918 285 904 l 285 1063 q 317 1096 285 1096 l 428 1096 q 450 1087 442 1096 q 458 1063 458 1078 l 458 918 q 428 888 458 888 l 317 888 z "},"ẹ":{"ha":744,"x_min":49,"x_max":696,"o":"m 394 -7 q 190 26 264 -7 q 83 141 117 60 q 49 372 49 222 q 80 609 49 526 q 183 726 111 692 q 385 760 254 760 q 569 737 503 760 q 666 658 636 714 q 696 497 696 601 q 632 338 696 385 q 446 290 568 290 l 286 290 q 303 218 289 243 q 354 182 318 193 q 460 171 390 171 l 669 171 l 669 31 q 541 3 604 13 q 394 -7 478 -7 m 419 432 q 469 447 454 432 q 485 496 485 461 q 462 567 485 546 q 385 588 439 588 q 306 555 328 588 q 283 432 283 522 l 419 432 m 313 -321 q 290 -313 299 -321 q 282 -292 282 -306 l 282 -146 q 290 -122 282 -131 q 313 -112 297 -112 l 424 -112 q 446 -122 438 -112 q 454 -146 454 -132 l 454 -292 q 446 -313 454 -306 q 424 -321 438 -321 l 313 -321 z "},"è":{"ha":744,"x_min":49,"x_max":696,"o":"m 394 -7 q 190 26 264 -7 q 83 141 117 60 q 49 372 49 222 q 80 609 49 526 q 183 726 111 692 q 385 760 254 760 q 569 737 503 760 q 666 658 636 714 q 696 497 696 601 q 632 338 696 385 q 446 290 568 290 l 286 290 q 303 218 289 243 q 354 182 318 193 q 460 171 390 171 l 669 171 l 669 31 q 541 3 604 13 q 394 -7 478 -7 m 419 432 q 469 447 454 432 q 485 496 485 461 q 462 567 485 546 q 385 588 439 588 q 306 555 328 588 q 283 432 283 522 l 419 432 m 183 1074 l 375 1074 l 479 876 l 338 876 l 183 1074 z "},"ẻ":{"ha":744,"x_min":49,"x_max":696,"o":"m 394 -7 q 190 26 264 -7 q 83 141 117 60 q 49 372 49 222 q 80 609 49 526 q 183 726 111 692 q 385 760 254 760 q 569 737 503 760 q 666 658 636 714 q 696 497 696 601 q 632 338 696 385 q 446 290 568 290 l 286 290 q 303 218 289 243 q 354 182 318 193 q 460 171 390 171 l 669 171 l 669 31 q 541 3 604 13 q 394 -7 478 -7 m 419 432 q 469 447 454 432 q 485 496 485 461 q 462 567 485 546 q 385 588 439 588 q 306 555 328 588 q 283 432 283 522 l 419 432 m 332 925 q 379 972 379 939 q 339 1001 379 1001 q 296 993 326 1001 l 296 1086 q 371 1097 329 1097 q 470 1067 438 1097 q 503 981 503 1038 q 463 883 503 921 q 332 821 422 846 l 332 925 z "},"ȇ":{"ha":744,"x_min":49,"x_max":696,"o":"m 394 -7 q 190 26 264 -7 q 83 141 117 60 q 49 372 49 222 q 80 609 49 526 q 183 726 111 692 q 385 760 254 760 q 569 737 503 760 q 666 658 636 714 q 696 497 696 601 q 632 338 696 385 q 446 290 568 290 l 286 290 q 303 218 289 243 q 354 182 318 193 q 460 171 390 171 l 669 171 l 669 31 q 541 3 604 13 q 394 -7 478 -7 m 419 432 q 469 447 454 432 q 485 496 485 461 q 462 567 485 546 q 385 588 439 588 q 306 555 328 588 q 283 432 283 522 l 419 432 m 381 1081 q 526 1027 475 1081 q 576 867 576 974 l 467 867 q 443 947 467 922 q 383 972 419 972 q 317 948 340 972 q 294 867 294 924 l 181 867 q 381 1081 181 1081 z "},"ē":{"ha":744,"x_min":49,"x_max":696,"o":"m 394 -7 q 190 26 264 -7 q 83 141 117 60 q 49 372 49 222 q 80 609 49 526 q 183 726 111 692 q 385 760 254 760 q 569 737 503 760 q 666 658 636 714 q 696 497 696 601 q 632 338 696 385 q 446 290 568 290 l 286 290 q 303 218 289 243 q 354 182 318 193 q 460 171 390 171 l 669 171 l 669 31 q 541 3 604 13 q 394 -7 478 -7 m 419 432 q 469 447 454 432 q 485 496 485 461 q 462 567 485 546 q 385 588 439 588 q 306 555 328 588 q 283 432 283 522 l 419 432 m 169 1028 l 568 1028 l 568 888 l 169 888 l 169 1028 z "},"ḗ":{"ha":744,"x_min":49,"x_max":696,"o":"m 394 -7 q 190 26 264 -7 q 83 141 117 60 q 49 372 49 222 q 80 609 49 526 q 183 726 111 692 q 385 760 254 760 q 569 737 503 760 q 666 658 636 714 q 696 497 696 601 q 632 338 696 385 q 446 290 568 290 l 286 290 q 303 218 289 243 q 354 182 318 193 q 460 171 390 171 l 669 171 l 669 31 q 541 3 604 13 q 394 -7 478 -7 m 419 432 q 469 447 454 432 q 485 496 485 461 q 462 567 485 546 q 385 588 439 588 q 306 555 328 588 q 283 432 283 522 l 419 432 m 169 1028 l 568 1028 l 568 888 l 169 888 l 169 1028 m 401 1265 l 593 1265 l 439 1068 l 297 1068 l 401 1265 z "},"ḕ":{"ha":744,"x_min":49,"x_max":696,"o":"m 394 -7 q 190 26 264 -7 q 83 141 117 60 q 49 372 49 222 q 80 609 49 526 q 183 726 111 692 q 385 760 254 760 q 569 737 503 760 q 666 658 636 714 q 696 497 696 601 q 632 338 696 385 q 446 290 568 290 l 286 290 q 303 218 289 243 q 354 182 318 193 q 460 171 390 171 l 669 171 l 669 31 q 541 3 604 13 q 394 -7 478 -7 m 419 432 q 469 447 454 432 q 485 496 485 461 q 462 567 485 546 q 385 588 439 588 q 306 555 328 588 q 283 432 283 522 l 419 432 m 169 1028 l 568 1028 l 568 888 l 169 888 l 169 1028 m 147 1265 l 339 1265 l 443 1068 l 301 1068 l 147 1265 z "},"ę":{"ha":744,"x_min":49,"x_max":696,"o":"m 610 -53 q 629 -99 610 -82 q 678 -117 649 -117 l 692 -117 l 692 -229 q 644 -235 679 -235 q 532 -197 568 -235 q 496 -108 496 -160 q 540 3 496 -42 q 394 -7 468 -7 q 190 26 264 -7 q 83 141 117 60 q 49 372 49 222 q 80 609 49 526 q 183 726 111 692 q 385 760 254 760 q 569 737 503 760 q 666 658 636 714 q 696 497 696 601 q 632 338 696 385 q 446 290 568 290 l 286 290 q 303 218 289 243 q 354 182 318 193 q 460 171 390 171 l 669 171 l 669 31 l 660 28 q 622 -10 633 8 q 610 -53 610 -29 m 385 588 q 306 555 328 588 q 283 432 283 522 l 419 432 q 469 447 454 432 q 485 496 485 461 q 462 567 485 546 q 385 588 439 588 z "},"ẽ":{"ha":744,"x_min":49,"x_max":696,"o":"m 394 -7 q 190 26 264 -7 q 83 141 117 60 q 49 372 49 222 q 80 609 49 526 q 183 726 111 692 q 385 760 254 760 q 569 737 503 760 q 666 658 636 714 q 696 497 696 601 q 632 338 696 385 q 446 290 568 290 l 286 290 q 303 218 289 243 q 354 182 318 193 q 460 171 390 171 l 669 171 l 669 31 q 541 3 604 13 q 394 -7 478 -7 m 419 432 q 469 447 454 432 q 485 496 485 461 q 462 567 485 546 q 385 588 439 588 q 306 555 328 588 q 283 432 283 522 l 419 432 m 119 865 q 166 1011 125 965 q 269 1057 207 1057 q 330 1049 304 1057 q 390 1024 356 1040 q 468 999 435 999 q 519 1065 515 999 l 638 1065 q 492 867 629 867 q 428 876 457 867 q 365 901 400 885 q 324 919 340 914 q 292 925 307 925 q 255 909 268 925 q 239 865 242 893 l 119 865 z "},"ə":{"ha":744,"x_min":49,"x_max":696,"o":"m 350 758 q 554 725 481 758 q 662 610 628 692 q 696 379 696 529 q 665 142 696 225 q 562 26 633 60 q 360 -8 490 -8 q 175 15 242 -8 q 78 94 108 38 q 49 254 49 150 q 113 414 49 367 q 299 461 176 461 l 458 461 q 441 533 456 508 q 390 569 426 558 q 285 581 354 581 l 75 581 l 75 721 q 203 749 140 739 q 350 758 267 758 m 325 319 q 275 305 290 319 q 260 256 260 290 q 283 185 260 206 q 360 164 306 164 q 439 197 417 164 q 461 319 461 229 l 325 319 z "},"f":{"ha":557,"x_min":24,"x_max":544,"o":"m 125 557 l 24 557 l 24 710 l 125 747 l 125 785 q 187 1001 125 935 q 386 1068 249 1068 q 544 1046 468 1068 l 544 874 l 435 874 q 381 856 397 874 q 365 799 365 839 l 365 747 l 542 747 l 542 557 l 365 557 l 365 0 l 125 0 l 125 557 z "},"ḟ":{"ha":557,"x_min":24,"x_max":544,"o":"m 125 557 l 24 557 l 24 710 l 125 747 l 125 785 q 187 1001 125 935 q 386 1068 249 1068 q 544 1046 468 1068 l 544 874 l 435 874 q 381 856 397 874 q 365 799 365 839 l 365 747 l 542 747 l 542 557 l 365 557 l 365 0 l 125 0 l 125 557 m 325 1201 q 302 1210 311 1201 q 293 1232 293 1218 l 293 1376 q 325 1410 293 1410 l 436 1410 q 458 1401 450 1410 q 467 1376 467 1392 l 467 1232 q 436 1201 467 1201 l 325 1201 z "},"g":{"ha":811,"x_min":22,"x_max":789,"o":"m 789 617 l 693 593 q 724 536 713 569 q 735 450 735 503 q 669 283 735 343 q 463 222 603 222 l 325 222 q 276 212 294 222 q 257 181 257 201 q 317 144 257 144 l 510 144 q 713 91 643 144 q 783 -86 783 38 l 783 -103 q 712 -283 783 -219 q 496 -346 640 -346 l 267 -346 q 91 -299 160 -346 q 22 -168 22 -251 l 22 -150 q 52 -56 22 -97 q 132 10 82 -14 q 56 139 56 57 q 88 235 56 196 q 178 289 121 275 q 64 501 64 356 q 140 687 64 626 q 382 747 217 747 l 789 747 l 789 617 m 436 401 q 501 422 482 401 q 519 485 519 442 q 500 550 519 531 q 438 569 481 569 l 361 569 q 298 550 317 569 q 279 486 279 531 q 298 422 279 442 q 358 401 317 401 l 436 401 m 335 -33 q 272 -51 294 -33 q 249 -101 249 -69 l 249 -112 q 270 -161 249 -143 q 335 -179 292 -179 l 467 -179 q 533 -163 508 -179 q 557 -115 557 -147 l 557 -97 q 534 -50 557 -67 q 469 -33 511 -33 l 335 -33 z "},"ğ":{"ha":811,"x_min":22,"x_max":789,"o":"m 789 617 l 693 593 q 724 536 713 569 q 735 450 735 503 q 669 283 735 343 q 463 222 603 222 l 325 222 q 276 212 294 222 q 257 181 257 201 q 317 144 257 144 l 510 144 q 713 91 643 144 q 783 -86 783 38 l 783 -103 q 712 -283 783 -219 q 496 -346 640 -346 l 267 -346 q 91 -299 160 -346 q 22 -168 22 -251 l 22 -150 q 52 -56 22 -97 q 132 10 82 -14 q 56 139 56 57 q 88 235 56 196 q 178 289 121 275 q 64 501 64 356 q 140 687 64 626 q 382 747 217 747 l 789 747 l 789 617 m 436 401 q 501 422 482 401 q 519 485 519 442 q 500 550 519 531 q 438 569 481 569 l 361 569 q 298 550 317 569 q 279 486 279 531 q 298 422 279 442 q 358 401 317 401 l 436 401 m 335 -33 q 272 -51 294 -33 q 249 -101 249 -69 l 249 -112 q 270 -161 249 -143 q 335 -179 292 -179 l 467 -179 q 533 -163 508 -179 q 557 -115 557 -147 l 557 -97 q 534 -50 557 -67 q 469 -33 511 -33 l 335 -33 m 394 864 q 249 917 300 864 q 199 1078 199 971 l 308 1078 q 332 997 308 1022 q 392 972 356 972 q 458 997 435 972 q 481 1078 481 1021 l 594 1078 q 394 864 594 864 z "},"ǧ":{"ha":811,"x_min":22,"x_max":789,"o":"m 789 617 l 693 593 q 724 536 713 569 q 735 450 735 503 q 669 283 735 343 q 463 222 603 222 l 325 222 q 276 212 294 222 q 257 181 257 201 q 317 144 257 144 l 510 144 q 713 91 643 144 q 783 -86 783 38 l 783 -103 q 712 -283 783 -219 q 496 -346 640 -346 l 267 -346 q 91 -299 160 -346 q 22 -168 22 -251 l 22 -150 q 52 -56 22 -97 q 132 10 82 -14 q 56 139 56 57 q 88 235 56 196 q 178 289 121 275 q 64 501 64 356 q 140 687 64 626 q 382 747 217 747 l 789 747 l 789 617 m 436 401 q 501 422 482 401 q 519 485 519 442 q 500 550 519 531 q 438 569 481 569 l 361 569 q 298 550 317 569 q 279 486 279 531 q 298 422 279 442 q 358 401 317 401 l 436 401 m 335 -33 q 272 -51 294 -33 q 249 -101 249 -69 l 249 -112 q 270 -161 249 -143 q 335 -179 292 -179 l 467 -179 q 533 -163 508 -179 q 557 -115 557 -147 l 557 -97 q 534 -50 557 -67 q 469 -33 511 -33 l 335 -33 m 188 1076 l 325 1076 l 404 982 l 488 1076 l 626 1076 l 482 876 l 319 876 l 188 1076 z "},"ĝ":{"ha":811,"x_min":22,"x_max":789,"o":"m 789 617 l 693 593 q 724 536 713 569 q 735 450 735 503 q 669 283 735 343 q 463 222 603 222 l 325 222 q 276 212 294 222 q 257 181 257 201 q 317 144 257 144 l 510 144 q 713 91 643 144 q 783 -86 783 38 l 783 -103 q 712 -283 783 -219 q 496 -346 640 -346 l 267 -346 q 91 -299 160 -346 q 22 -168 22 -251 l 22 -150 q 52 -56 22 -97 q 132 10 82 -14 q 56 139 56 57 q 88 235 56 196 q 178 289 121 275 q 64 501 64 356 q 140 687 64 626 q 382 747 217 747 l 789 747 l 789 617 m 436 401 q 501 422 482 401 q 519 485 519 442 q 500 550 519 531 q 438 569 481 569 l 361 569 q 298 550 317 569 q 279 486 279 531 q 298 422 279 442 q 358 401 317 401 l 436 401 m 335 -33 q 272 -51 294 -33 q 249 -101 249 -69 l 249 -112 q 270 -161 249 -143 q 335 -179 292 -179 l 467 -179 q 533 -163 508 -179 q 557 -115 557 -147 l 557 -97 q 534 -50 557 -67 q 469 -33 511 -33 l 335 -33 m 328 1076 l 490 1076 l 622 876 l 483 876 l 406 971 l 322 876 l 183 876 l 328 1076 z "},"ģ":{"ha":811,"x_min":22,"x_max":789,"o":"m 789 617 l 693 593 q 724 536 713 569 q 735 450 735 503 q 669 283 735 343 q 463 222 603 222 l 325 222 q 276 212 294 222 q 257 181 257 201 q 317 144 257 144 l 510 144 q 713 91 643 144 q 783 -86 783 38 l 783 -103 q 712 -283 783 -219 q 496 -346 640 -346 l 267 -346 q 91 -299 160 -346 q 22 -168 22 -251 l 22 -150 q 52 -56 22 -97 q 132 10 82 -14 q 56 139 56 57 q 88 235 56 196 q 178 289 121 275 q 64 501 64 356 q 140 687 64 626 q 382 747 217 747 l 789 747 l 789 617 m 436 401 q 501 422 482 401 q 519 485 519 442 q 500 550 519 531 q 438 569 481 569 l 361 569 q 298 550 317 569 q 279 486 279 531 q 298 422 279 442 q 358 401 317 401 l 436 401 m 335 -33 q 272 -51 294 -33 q 249 -101 249 -69 l 249 -112 q 270 -161 249 -143 q 335 -179 292 -179 l 467 -179 q 533 -163 508 -179 q 557 -115 557 -147 l 557 -97 q 534 -50 557 -67 q 469 -33 511 -33 l 335 -33 m 300 865 q 336 1020 300 974 q 465 1067 372 1067 l 544 1067 l 544 968 l 507 957 q 458 929 469 946 q 446 865 446 913 l 300 865 z "},"ġ":{"ha":811,"x_min":22,"x_max":789,"o":"m 789 617 l 693 593 q 724 536 713 569 q 735 450 735 503 q 669 283 735 343 q 463 222 603 222 l 325 222 q 276 212 294 222 q 257 181 257 201 q 317 144 257 144 l 510 144 q 713 91 643 144 q 783 -86 783 38 l 783 -103 q 712 -283 783 -219 q 496 -346 640 -346 l 267 -346 q 91 -299 160 -346 q 22 -168 22 -251 l 22 -150 q 52 -56 22 -97 q 132 10 82 -14 q 56 139 56 57 q 88 235 56 196 q 178 289 121 275 q 64 501 64 356 q 140 687 64 626 q 382 747 217 747 l 789 747 l 789 617 m 436 401 q 501 422 482 401 q 519 485 519 442 q 500 550 519 531 q 438 569 481 569 l 361 569 q 298 550 317 569 q 279 486 279 531 q 298 422 279 442 q 358 401 317 401 l 436 401 m 335 -33 q 272 -51 294 -33 q 249 -101 249 -69 l 249 -112 q 270 -161 249 -143 q 335 -179 292 -179 l 467 -179 q 533 -163 508 -179 q 557 -115 557 -147 l 557 -97 q 534 -50 557 -67 q 469 -33 511 -33 l 335 -33 m 346 888 q 323 896 332 888 q 314 918 314 904 l 314 1063 q 346 1096 314 1096 l 457 1096 q 479 1087 471 1096 q 488 1063 488 1078 l 488 918 q 457 888 488 888 l 346 888 z "},"ḡ":{"ha":811,"x_min":22,"x_max":789,"o":"m 789 617 l 693 593 q 724 536 713 569 q 735 450 735 503 q 669 283 735 343 q 463 222 603 222 l 325 222 q 276 212 294 222 q 257 181 257 201 q 317 144 257 144 l 510 144 q 713 91 643 144 q 783 -86 783 38 l 783 -103 q 712 -283 783 -219 q 496 -346 640 -346 l 267 -346 q 91 -299 160 -346 q 22 -168 22 -251 l 22 -150 q 52 -56 22 -97 q 132 10 82 -14 q 56 139 56 57 q 88 235 56 196 q 178 289 121 275 q 64 501 64 356 q 140 687 64 626 q 382 747 217 747 l 789 747 l 789 617 m 436 401 q 501 422 482 401 q 519 485 519 442 q 500 550 519 531 q 438 569 481 569 l 361 569 q 298 550 317 569 q 279 486 279 531 q 298 422 279 442 q 358 401 317 401 l 436 401 m 335 -33 q 272 -51 294 -33 q 249 -101 249 -69 l 249 -112 q 270 -161 249 -143 q 335 -179 292 -179 l 467 -179 q 533 -163 508 -179 q 557 -115 557 -147 l 557 -97 q 534 -50 557 -67 q 469 -33 511 -33 l 335 -33 m 199 1028 l 597 1028 l 597 888 l 199 888 l 199 1028 z "},"h":{"ha":831,"x_min":69,"x_max":764,"o":"m 69 1058 l 310 1058 l 310 674 q 410 734 347 708 q 533 760 474 760 q 711 690 658 760 q 764 490 764 621 l 764 0 l 524 0 l 524 458 q 499 524 524 503 q 436 544 475 544 q 369 531 401 544 q 310 496 336 517 l 310 0 l 69 0 l 69 1058 z "},"ħ":{"ha":831,"x_min":-11,"x_max":764,"o":"m 533 760 q 711 690 658 760 q 764 490 764 621 l 764 0 l 524 0 l 524 458 q 499 524 524 503 q 436 544 475 544 q 369 531 401 544 q 310 496 336 517 l 310 0 l 69 0 l 69 847 l -11 847 l -11 940 l 69 940 l 69 1058 l 310 1058 l 310 940 l 457 940 l 457 847 l 310 847 l 310 674 q 410 734 347 708 q 533 760 474 760 z "},"ḫ":{"ha":831,"x_min":69,"x_max":764,"o":"m 69 1058 l 310 1058 l 310 674 q 410 734 347 708 q 533 760 474 760 q 711 690 658 760 q 764 490 764 621 l 764 0 l 524 0 l 524 458 q 499 524 524 503 q 436 544 475 544 q 369 531 401 544 q 310 496 336 517 l 310 0 l 69 0 l 69 1058 m 415 -317 q 270 -263 321 -317 q 219 -103 219 -210 l 329 -103 q 353 -183 329 -158 q 413 -208 376 -208 q 478 -184 456 -208 q 501 -103 501 -160 l 615 -103 q 415 -317 615 -317 z "},"ĥ":{"ha":831,"x_min":-19,"x_max":764,"o":"m 69 1058 l 310 1058 l 310 674 q 410 734 347 708 q 533 760 474 760 q 711 690 658 760 q 764 490 764 621 l 764 0 l 524 0 l 524 458 q 499 524 524 503 q 436 544 475 544 q 369 531 401 544 q 310 496 336 517 l 310 0 l 69 0 l 69 1058 m 125 1349 l 288 1349 l 419 1149 l 281 1149 l 203 1243 l 119 1149 l -19 1149 l 125 1349 z "},"ḥ":{"ha":831,"x_min":69,"x_max":764,"o":"m 69 1058 l 310 1058 l 310 674 q 410 734 347 708 q 533 760 474 760 q 711 690 658 760 q 764 490 764 621 l 764 0 l 524 0 l 524 458 q 499 524 524 503 q 436 544 475 544 q 369 531 401 544 q 310 496 336 517 l 310 0 l 69 0 l 69 1058 m 351 -321 q 329 -313 338 -321 q 321 -292 321 -306 l 321 -146 q 328 -122 321 -131 q 351 -112 336 -112 l 463 -112 q 485 -122 476 -112 q 493 -146 493 -132 l 493 -292 q 485 -313 493 -306 q 463 -321 476 -321 l 351 -321 z "},"i":{"ha":379,"x_min":67,"x_max":313,"o":"m 97 849 q 75 857 83 849 q 67 879 67 865 l 67 1025 q 97 1057 67 1057 l 283 1057 q 313 1025 313 1057 l 313 879 q 283 849 313 849 l 97 849 m 69 747 l 310 747 l 310 0 l 69 0 l 69 747 z "},"ı":{"ha":378,"x_min":69,"x_max":310,"o":"m 69 747 l 310 747 l 310 0 l 69 0 l 69 747 z "},"í":{"ha":378,"x_min":69,"x_max":419,"o":"m 69 747 l 310 747 l 310 0 l 69 0 l 69 747 m 228 1074 l 419 1074 l 265 876 l 124 876 l 228 1074 z "},"ĭ":{"ha":378,"x_min":-17,"x_max":379,"o":"m 69 747 l 310 747 l 310 0 l 69 0 l 69 747 m 179 864 q 34 917 85 864 q -17 1078 -17 971 l 93 1078 q 117 997 93 1022 q 176 972 140 972 q 242 997 219 972 q 265 1078 265 1021 l 379 1078 q 179 864 379 864 z "},"î":{"ha":378,"x_min":-32,"x_max":407,"o":"m 69 747 l 310 747 l 310 0 l 69 0 l 69 747 m 113 1076 l 275 1076 l 407 876 l 268 876 l 190 971 l 107 876 l -32 876 l 113 1076 z "},"ȉ":{"ha":378,"x_min":-144,"x_max":415,"o":"m 69 747 l 310 747 l 310 0 l 69 0 l 69 747 m -144 1074 l 47 1074 l 151 876 l 10 876 l -144 1074 m 119 1074 l 311 1074 l 415 876 l 274 876 l 119 1074 z "},"ï":{"ha":378,"x_min":-42,"x_max":404,"o":"m 69 747 l 310 747 l 310 0 l 69 0 l 69 747 m -10 878 q -33 886 -24 878 q -42 908 -42 894 l -42 1053 q -10 1086 -42 1086 l 101 1086 q 124 1077 115 1086 q 132 1053 132 1068 l 132 908 q 101 878 132 878 l -10 878 m 263 878 q 240 886 249 878 q 232 908 232 894 l 232 1053 q 263 1086 232 1086 l 375 1086 q 397 1077 389 1086 q 404 1053 404 1068 l 404 908 q 375 878 404 878 l 263 878 z "},"ḯ":{"ha":378,"x_min":-42,"x_max":408,"o":"m 69 747 l 310 747 l 310 0 l 69 0 l 69 747 m -10 878 q -33 886 -24 878 q -42 908 -42 894 l -42 1053 q -10 1086 -42 1086 l 101 1086 q 124 1077 115 1086 q 132 1053 132 1068 l 132 908 q 101 878 132 878 l -10 878 m 263 878 q 240 886 249 878 q 232 908 232 894 l 232 1053 q 263 1086 232 1086 l 375 1086 q 397 1077 389 1086 q 404 1053 404 1068 l 404 908 q 375 878 404 878 l 263 878 m 217 1343 l 408 1343 l 254 1146 l 113 1146 l 217 1343 z "},"ị":{"ha":379,"x_min":67,"x_max":313,"o":"m 97 849 q 75 857 83 849 q 67 879 67 865 l 67 1025 q 97 1057 67 1057 l 283 1057 q 313 1025 313 1057 l 313 879 q 283 849 313 849 l 97 849 m 69 747 l 310 747 l 310 0 l 69 0 l 69 747 m 126 -321 q 104 -313 113 -321 q 96 -292 96 -306 l 96 -146 q 103 -122 96 -131 q 126 -112 111 -112 l 238 -112 q 260 -122 251 -112 q 268 -146 268 -132 l 268 -292 q 260 -313 268 -306 q 238 -321 251 -321 l 126 -321 z "},"ì":{"ha":378,"x_min":-3,"x_max":310,"o":"m 69 747 l 310 747 l 310 0 l 69 0 l 69 747 m -3 1074 l 189 1074 l 293 876 l 151 876 l -3 1074 z "},"ỉ":{"ha":378,"x_min":69,"x_max":317,"o":"m 69 747 l 310 747 l 310 0 l 69 0 l 69 747 m 146 925 q 193 972 193 939 q 153 1001 193 1001 q 110 993 140 1001 l 110 1086 q 185 1097 143 1097 q 284 1067 251 1097 q 317 981 317 1038 q 276 883 317 921 q 146 821 236 846 l 146 925 z "},"ȋ":{"ha":378,"x_min":-6,"x_max":390,"o":"m 69 747 l 310 747 l 310 0 l 69 0 l 69 747 m 194 1081 q 340 1027 289 1081 q 390 867 390 974 l 281 867 q 257 947 281 922 q 197 972 233 972 q 131 948 154 972 q 108 867 108 924 l -6 867 q 194 1081 -6 1081 z "},"ī":{"ha":378,"x_min":-17,"x_max":382,"o":"m 69 747 l 310 747 l 310 0 l 69 0 l 69 747 m -17 1028 l 382 1028 l 382 888 l -17 888 l -17 1028 z "},"į":{"ha":379,"x_min":67,"x_max":331,"o":"m 97 849 q 75 857 83 849 q 67 879 67 865 l 67 1025 q 97 1057 67 1057 l 283 1057 q 313 1025 313 1057 l 313 879 q 283 849 313 849 l 97 849 m 69 747 l 310 747 l 310 0 l 69 0 l 69 747 m 283 -269 q 171 -232 207 -269 q 135 -143 135 -194 q 222 0 135 -49 l 308 0 q 263 -42 276 -22 q 249 -87 249 -62 q 268 -134 249 -117 q 317 -151 288 -151 l 331 -151 l 331 -264 q 283 -269 318 -269 z "},"ĩ":{"ha":378,"x_min":-65,"x_max":453,"o":"m 69 747 l 310 747 l 310 0 l 69 0 l 69 747 m -65 865 q -19 1011 -60 965 q 85 1057 22 1057 q 145 1049 119 1057 q 206 1024 171 1040 q 283 999 250 999 q 335 1065 331 999 l 453 1065 q 307 867 444 867 q 244 876 272 867 q 181 901 215 885 q 139 919 156 914 q 107 925 122 925 q 70 909 83 925 q 54 865 57 893 l -65 865 z "},"j":{"ha":379,"x_min":65,"x_max":311,"o":"m 96 849 q 74 857 82 849 q 65 879 65 865 l 65 1025 q 96 1057 65 1057 l 283 1057 q 311 1025 311 1057 l 311 879 q 283 849 311 849 l 96 849 m 69 747 l 310 747 l 310 0 q 294 -175 310 -85 q 251 -329 278 -265 l 69 -329 l 69 747 z "},"ȷ":{"ha":379,"x_min":69,"x_max":310,"o":"m 69 747 l 310 747 l 310 0 q 294 -175 310 -85 q 251 -329 278 -265 l 69 -329 l 69 747 z "},"ĵ":{"ha":379,"x_min":-32,"x_max":407,"o":"m 69 747 l 310 747 l 310 0 q 294 -175 310 -85 q 251 -329 278 -265 l 69 -329 l 69 747 m 113 1076 l 275 1076 l 407 876 l 268 876 l 190 971 l 107 876 l -32 876 l 113 1076 z "},"k":{"ha":793,"x_min":69,"x_max":797,"o":"m 69 1060 l 310 1060 l 310 501 l 390 501 l 532 747 l 774 747 l 568 393 l 797 0 l 556 0 l 388 286 l 310 286 l 310 0 l 69 0 l 69 1060 z "},"ķ":{"ha":793,"x_min":69,"x_max":797,"o":"m 69 1060 l 310 1060 l 310 501 l 390 501 l 532 747 l 774 747 l 568 393 l 797 0 l 556 0 l 388 286 l 310 286 l 310 0 l 69 0 l 69 1060 m 272 -208 l 308 -197 q 358 -169 346 -186 q 371 -106 371 -153 l 515 -106 q 479 -261 515 -215 q 350 -307 443 -307 l 272 -307 l 272 -208 z "},"ĸ":{"ha":793,"x_min":69,"x_max":797,"o":"m 69 749 l 310 749 l 310 485 l 383 485 l 524 747 l 774 747 l 568 376 l 797 0 l 554 0 l 389 269 l 310 269 l 310 0 l 69 0 l 69 749 z "},"l":{"ha":444,"x_min":69,"x_max":428,"o":"m 317 -4 q 131 57 192 -4 q 69 242 69 118 l 69 1060 l 310 1060 l 310 279 q 326 206 310 229 q 378 178 342 183 l 428 171 l 428 -4 l 317 -4 z "},"ĺ":{"ha":444,"x_min":69,"x_max":428,"o":"m 317 -4 q 131 57 192 -4 q 69 242 69 118 l 69 1060 l 310 1060 l 310 279 q 326 206 310 229 q 378 178 342 183 l 428 171 l 428 -4 l 317 -4 m 228 1360 l 419 1360 l 265 1163 l 124 1163 l 228 1360 z "},"ľ":{"ha":444,"x_min":69,"x_max":589,"o":"m 317 -4 q 131 57 192 -4 q 69 242 69 118 l 69 1060 l 310 1060 l 310 279 q 326 206 310 229 q 378 178 342 183 l 428 171 l 428 -4 l 317 -4 m 372 996 l 372 1088 l 589 1088 l 589 996 l 576 808 l 386 808 l 372 996 z "},"ļ":{"ha":444,"x_min":69,"x_max":428,"o":"m 317 -4 q 131 57 192 -4 q 69 242 69 118 l 69 1060 l 310 1060 l 310 279 q 326 206 310 229 q 378 178 342 183 l 428 171 l 428 -4 l 317 -4 m 146 -208 l 182 -197 q 232 -169 219 -186 q 244 -106 244 -153 l 389 -106 q 353 -261 389 -215 q 224 -307 317 -307 l 146 -307 l 146 -208 z "},"ŀ":{"ha":549,"x_min":69,"x_max":571,"o":"m 317 -4 q 131 57 192 -4 q 69 242 69 118 l 69 1060 l 310 1060 l 310 279 q 326 206 310 229 q 378 178 342 183 l 428 171 l 428 -4 l 317 -4 m 399 410 q 376 418 385 410 q 367 440 367 426 l 367 585 q 375 608 367 600 q 399 617 383 617 l 538 617 q 571 585 571 617 l 571 440 q 538 410 571 410 l 399 410 z "},"ḷ":{"ha":444,"x_min":69,"x_max":428,"o":"m 317 -4 q 131 57 192 -4 q 69 242 69 118 l 69 1060 l 310 1060 l 310 279 q 326 206 310 229 q 378 178 342 183 l 428 171 l 428 -4 l 317 -4 m 204 -321 q 182 -313 190 -321 q 174 -292 174 -306 l 174 -146 q 181 -122 174 -131 q 204 -112 189 -112 l 315 -112 q 338 -122 329 -112 q 346 -146 346 -132 l 346 -292 q 338 -313 346 -306 q 315 -321 329 -321 l 204 -321 z "},"ḻ":{"ha":444,"x_min":69,"x_max":471,"o":"m 317 -4 q 131 57 192 -4 q 69 242 69 118 l 69 1060 l 310 1060 l 310 279 q 326 206 310 229 q 378 178 342 183 l 428 171 l 428 -4 l 317 -4 m 72 -167 l 471 -167 l 471 -307 l 72 -307 l 72 -167 z "},"ł":{"ha":444,"x_min":-8,"x_max":428,"o":"m 428 171 l 428 -4 l 317 -4 q 131 57 192 -4 q 69 242 69 118 l 69 493 l -8 461 l -8 588 l 69 619 l 69 1060 l 310 1060 l 310 697 l 424 746 l 424 619 l 310 571 l 310 279 q 326 206 310 229 q 378 178 342 183 l 428 171 z "},"m":{"ha":1285,"x_min":69,"x_max":1219,"o":"m 69 747 l 268 747 l 310 674 q 420 738 368 715 q 549 760 472 760 q 662 732 615 760 q 733 657 708 704 q 982 760 871 760 q 1167 689 1114 760 q 1219 478 1219 618 l 1219 0 l 979 0 l 979 456 q 890 544 979 544 q 822 531 857 544 q 761 494 788 517 q 764 451 764 467 l 764 0 l 524 0 l 524 456 q 436 544 524 544 q 310 496 368 544 l 310 0 l 69 0 l 69 747 z "},"ṁ":{"ha":1285,"x_min":69,"x_max":1219,"o":"m 69 747 l 268 747 l 310 674 q 420 738 368 715 q 549 760 472 760 q 662 732 615 760 q 733 657 708 704 q 982 760 871 760 q 1167 689 1114 760 q 1219 478 1219 618 l 1219 0 l 979 0 l 979 456 q 890 544 979 544 q 822 531 857 544 q 761 494 788 517 q 764 451 764 467 l 764 0 l 524 0 l 524 456 q 436 544 524 544 q 310 496 368 544 l 310 0 l 69 0 l 69 747 m 610 888 q 587 896 596 888 q 578 918 578 904 l 578 1063 q 610 1096 578 1096 l 721 1096 q 743 1087 735 1096 q 751 1063 751 1078 l 751 918 q 721 888 751 888 l 610 888 z "},"ṃ":{"ha":1285,"x_min":69,"x_max":1219,"o":"m 69 747 l 268 747 l 310 674 q 420 738 368 715 q 549 760 472 760 q 662 732 615 760 q 733 657 708 704 q 982 760 871 760 q 1167 689 1114 760 q 1219 478 1219 618 l 1219 0 l 979 0 l 979 456 q 890 544 979 544 q 822 531 857 544 q 761 494 788 517 q 764 451 764 467 l 764 0 l 524 0 l 524 456 q 436 544 524 544 q 310 496 368 544 l 310 0 l 69 0 l 69 747 m 581 -321 q 558 -313 567 -321 q 550 -292 550 -306 l 550 -146 q 558 -122 550 -131 q 581 -112 565 -112 l 692 -112 q 714 -122 706 -112 q 722 -146 722 -132 l 722 -292 q 714 -313 722 -306 q 692 -321 706 -321 l 581 -321 z "},"n":{"ha":831,"x_min":69,"x_max":764,"o":"m 69 747 l 268 747 l 310 674 q 412 734 350 708 q 532 760 474 760 q 713 688 663 760 q 764 488 764 615 l 764 0 l 524 0 l 524 456 q 436 544 524 544 q 310 496 368 544 l 310 0 l 69 0 l 69 747 z "},"ń":{"ha":831,"x_min":69,"x_max":764,"o":"m 69 747 l 268 747 l 310 674 q 412 734 350 708 q 532 760 474 760 q 713 688 663 760 q 764 488 764 615 l 764 0 l 524 0 l 524 456 q 436 544 524 544 q 310 496 368 544 l 310 0 l 69 0 l 69 747 m 454 1074 l 646 1074 l 492 876 l 350 876 l 454 1074 z "},"ň":{"ha":831,"x_min":69,"x_max":764,"o":"m 69 747 l 268 747 l 310 674 q 412 734 350 708 q 532 760 474 760 q 713 688 663 760 q 764 488 764 615 l 764 0 l 524 0 l 524 456 q 436 544 524 544 q 310 496 368 544 l 310 0 l 69 0 l 69 747 m 199 1076 l 336 1076 l 415 982 l 499 1076 l 638 1076 l 493 876 l 331 876 l 199 1076 z "},"ņ":{"ha":831,"x_min":69,"x_max":764,"o":"m 69 747 l 268 747 l 310 674 q 412 734 350 708 q 532 760 474 760 q 713 688 663 760 q 764 488 764 615 l 764 0 l 524 0 l 524 456 q 436 544 524 544 q 310 496 368 544 l 310 0 l 69 0 l 69 747 m 293 -208 l 329 -197 q 379 -169 367 -186 q 392 -106 392 -153 l 536 -106 q 500 -261 536 -215 q 371 -307 464 -307 l 293 -307 l 293 -208 z "},"ṅ":{"ha":831,"x_min":69,"x_max":764,"o":"m 69 747 l 268 747 l 310 674 q 412 734 350 708 q 532 760 474 760 q 713 688 663 760 q 764 488 764 615 l 764 0 l 524 0 l 524 456 q 436 544 524 544 q 310 496 368 544 l 310 0 l 69 0 l 69 747 m 353 -321 q 331 -313 339 -321 q 322 -292 322 -306 l 322 -146 q 330 -122 322 -131 q 353 -112 338 -112 l 464 -112 q 486 -122 478 -112 q 494 -146 494 -132 l 494 -292 q 486 -313 494 -306 q 464 -321 478 -321 l 353 -321 z "},"ṇ":{"ha":831,"x_min":69,"x_max":764,"o":"m 69 747 l 268 747 l 310 674 q 412 734 350 708 q 532 760 474 760 q 713 688 663 760 q 764 488 764 615 l 764 0 l 524 0 l 524 456 q 436 544 524 544 q 310 496 368 544 l 310 0 l 69 0 l 69 747 m 353 -321 q 331 -313 339 -321 q 322 -292 322 -306 l 322 -146 q 330 -122 322 -131 q 353 -112 338 -112 l 464 -112 q 486 -122 478 -112 q 494 -146 494 -132 l 494 -292 q 486 -313 494 -306 q 464 -321 478 -321 l 353 -321 z "},"ŋ":{"ha":831,"x_min":69,"x_max":764,"o":"m 532 760 q 713 688 663 760 q 764 488 764 615 l 764 -51 q 722 -224 764 -154 q 615 -329 681 -293 l 425 -329 q 496 -222 468 -285 q 524 -57 524 -160 l 524 456 q 436 544 524 544 q 310 496 368 544 l 310 0 l 69 0 l 69 747 l 268 747 l 310 674 q 412 734 350 708 q 532 760 474 760 z "},"ṉ":{"ha":831,"x_min":69,"x_max":764,"o":"m 69 747 l 268 747 l 310 674 q 412 734 350 708 q 532 760 474 760 q 713 688 663 760 q 764 488 764 615 l 764 0 l 524 0 l 524 456 q 436 544 524 544 q 310 496 368 544 l 310 0 l 69 0 l 69 747 m 221 -167 l 619 -167 l 619 -307 l 221 -307 l 221 -167 z "},"ñ":{"ha":831,"x_min":69,"x_max":764,"o":"m 69 747 l 268 747 l 310 674 q 412 734 350 708 q 532 760 474 760 q 713 688 663 760 q 764 488 764 615 l 764 0 l 524 0 l 524 456 q 436 544 524 544 q 310 496 368 544 l 310 0 l 69 0 l 69 747 m 160 865 q 206 1011 165 965 q 310 1057 247 1057 q 370 1049 344 1057 q 431 1024 396 1040 q 508 999 475 999 q 560 1065 556 999 l 678 1065 q 532 867 669 867 q 469 876 497 867 q 406 901 440 885 q 364 919 381 914 q 332 925 347 925 q 295 909 308 925 q 279 865 282 893 l 160 865 z "},"o":{"ha":799,"x_min":49,"x_max":750,"o":"m 399 -7 q 192 30 268 -7 q 83 149 117 67 q 49 375 49 232 q 83 609 49 526 q 192 726 117 692 q 399 760 267 760 q 606 725 531 760 q 716 607 682 690 q 750 375 750 524 q 717 146 750 228 q 609 28 685 64 q 399 -7 533 -7 m 399 183 q 467 196 444 183 q 499 249 489 208 q 510 376 510 290 q 499 503 510 463 q 467 556 489 543 q 399 568 444 568 q 331 556 353 568 q 299 503 310 543 q 289 376 289 464 q 299 249 289 289 q 332 196 310 208 q 399 183 354 183 z "},"ó":{"ha":799,"x_min":49,"x_max":750,"o":"m 399 -7 q 192 30 268 -7 q 83 149 117 67 q 49 375 49 232 q 83 609 49 526 q 192 726 117 692 q 399 760 267 760 q 606 725 531 760 q 716 607 682 690 q 750 375 750 524 q 717 146 750 228 q 609 28 685 64 q 399 -7 533 -7 m 399 183 q 467 196 444 183 q 499 249 489 208 q 510 376 510 290 q 499 503 510 463 q 467 556 489 543 q 399 568 444 568 q 331 556 353 568 q 299 503 310 543 q 289 376 289 464 q 299 249 289 289 q 332 196 310 208 q 399 183 354 183 m 438 1074 l 629 1074 l 475 876 l 333 876 l 438 1074 z "},"ŏ":{"ha":799,"x_min":49,"x_max":750,"o":"m 399 -7 q 192 30 268 -7 q 83 149 117 67 q 49 375 49 232 q 83 609 49 526 q 192 726 117 692 q 399 760 267 760 q 606 725 531 760 q 716 607 682 690 q 750 375 750 524 q 717 146 750 228 q 609 28 685 64 q 399 -7 533 -7 m 399 183 q 467 196 444 183 q 499 249 489 208 q 510 376 510 290 q 499 503 510 463 q 467 556 489 543 q 399 568 444 568 q 331 556 353 568 q 299 503 310 543 q 289 376 289 464 q 299 249 289 289 q 332 196 310 208 q 399 183 354 183 m 389 864 q 244 917 294 864 q 193 1078 193 971 l 303 1078 q 326 997 303 1022 q 386 972 350 972 q 452 997 429 972 q 475 1078 475 1021 l 589 1078 q 389 864 589 864 z "},"ô":{"ha":799,"x_min":49,"x_max":750,"o":"m 399 -7 q 192 30 268 -7 q 83 149 117 67 q 49 375 49 232 q 83 609 49 526 q 192 726 117 692 q 399 760 267 760 q 606 725 531 760 q 716 607 682 690 q 750 375 750 524 q 717 146 750 228 q 609 28 685 64 q 399 -7 533 -7 m 399 183 q 467 196 444 183 q 499 249 489 208 q 510 376 510 290 q 499 503 510 463 q 467 556 489 543 q 399 568 444 568 q 331 556 353 568 q 299 503 310 543 q 289 376 289 464 q 299 249 289 289 q 332 196 310 208 q 399 183 354 183 m 322 1076 l 485 1076 l 617 876 l 478 876 l 400 971 l 317 876 l 178 876 l 322 1076 z "},"ố":{"ha":799,"x_min":49,"x_max":768,"o":"m 399 -7 q 192 30 268 -7 q 83 149 117 67 q 49 375 49 232 q 83 609 49 526 q 192 726 117 692 q 399 760 267 760 q 606 725 531 760 q 716 607 682 690 q 750 375 750 524 q 717 146 750 228 q 609 28 685 64 q 399 -7 533 -7 m 399 183 q 467 196 444 183 q 499 249 489 208 q 510 376 510 290 q 499 503 510 463 q 467 556 489 543 q 399 568 444 568 q 331 556 353 568 q 299 503 310 543 q 289 376 289 464 q 299 249 289 289 q 332 196 310 208 q 399 183 354 183 m 768 1171 l 674 999 l 533 999 l 576 1171 l 768 1171 m 485 1033 l 615 876 l 478 876 l 399 928 l 317 876 l 178 876 l 322 1033 l 485 1033 z "},"ộ":{"ha":799,"x_min":49,"x_max":750,"o":"m 399 -7 q 192 30 268 -7 q 83 149 117 67 q 49 375 49 232 q 83 609 49 526 q 192 726 117 692 q 399 760 267 760 q 606 725 531 760 q 716 607 682 690 q 750 375 750 524 q 717 146 750 228 q 609 28 685 64 q 399 -7 533 -7 m 399 183 q 467 196 444 183 q 499 249 489 208 q 510 376 510 290 q 499 503 510 463 q 467 556 489 543 q 399 568 444 568 q 331 556 353 568 q 299 503 310 543 q 289 376 289 464 q 299 249 289 289 q 332 196 310 208 q 399 183 354 183 m 322 1076 l 485 1076 l 617 876 l 478 876 l 400 971 l 317 876 l 178 876 l 322 1076 m 336 -321 q 314 -313 322 -321 q 306 -292 306 -306 l 306 -146 q 313 -122 306 -131 q 336 -112 321 -112 l 447 -112 q 469 -122 461 -112 q 478 -146 478 -132 l 478 -292 q 469 -313 478 -306 q 447 -321 461 -321 l 336 -321 z "},"ồ":{"ha":799,"x_min":32,"x_max":750,"o":"m 399 -7 q 192 30 268 -7 q 83 149 117 67 q 49 375 49 232 q 83 609 49 526 q 192 726 117 692 q 399 760 267 760 q 606 725 531 760 q 716 607 682 690 q 750 375 750 524 q 717 146 750 228 q 609 28 685 64 q 399 -7 533 -7 m 399 183 q 467 196 444 183 q 499 249 489 208 q 510 376 510 290 q 499 503 510 463 q 467 556 489 543 q 399 568 444 568 q 331 556 353 568 q 299 503 310 543 q 289 376 289 464 q 299 249 289 289 q 332 196 310 208 q 399 183 354 183 m 224 1171 l 267 999 l 125 999 l 32 1171 l 224 1171 m 485 1033 l 615 876 l 478 876 l 399 928 l 317 876 l 178 876 l 322 1033 l 485 1033 z "},"ổ":{"ha":799,"x_min":49,"x_max":750,"o":"m 399 -7 q 192 30 268 -7 q 83 149 117 67 q 49 375 49 232 q 83 609 49 526 q 192 726 117 692 q 399 760 267 760 q 606 725 531 760 q 716 607 682 690 q 750 375 750 524 q 717 146 750 228 q 609 28 685 64 q 399 -7 533 -7 m 399 183 q 467 196 444 183 q 499 249 489 208 q 510 376 510 290 q 499 503 510 463 q 467 556 489 543 q 399 568 444 568 q 331 556 353 568 q 299 503 310 543 q 289 376 289 464 q 299 249 289 289 q 332 196 310 208 q 399 183 354 183 m 568 1058 q 601 1097 601 1068 q 575 1122 601 1122 q 532 1114 560 1122 l 532 1194 q 607 1206 565 1206 q 714 1113 714 1206 q 679 1015 714 1053 q 568 954 644 976 l 568 1058 m 322 1033 l 485 1033 l 615 876 l 478 876 l 399 928 l 317 876 l 178 876 l 322 1033 z "},"ỗ":{"ha":799,"x_min":49,"x_max":750,"o":"m 399 -7 q 192 30 268 -7 q 83 149 117 67 q 49 375 49 232 q 83 609 49 526 q 192 726 117 692 q 399 760 267 760 q 606 725 531 760 q 716 607 682 690 q 750 375 750 524 q 717 146 750 228 q 609 28 685 64 q 399 -7 533 -7 m 399 183 q 467 196 444 183 q 499 249 489 208 q 510 376 510 290 q 499 503 510 463 q 467 556 489 543 q 399 568 444 568 q 331 556 353 568 q 299 503 310 543 q 289 376 289 464 q 299 249 289 289 q 332 196 310 208 q 399 183 354 183 m 290 1236 q 339 1231 314 1236 q 385 1218 364 1225 q 443 1204 426 1204 q 478 1215 465 1204 q 490 1244 490 1225 l 608 1244 q 574 1123 601 1156 q 488 1090 546 1090 q 382 1110 446 1090 q 322 1122 339 1122 q 298 1113 307 1122 q 286 1088 289 1103 l 167 1088 q 206 1206 175 1175 q 290 1236 236 1236 m 615 876 l 478 876 l 399 928 l 317 876 l 178 876 l 322 1033 l 485 1033 l 615 876 z "},"ȍ":{"ha":799,"x_min":49,"x_max":750,"o":"m 399 -7 q 192 30 268 -7 q 83 149 117 67 q 49 375 49 232 q 83 609 49 526 q 192 726 117 692 q 399 760 267 760 q 606 725 531 760 q 716 607 682 690 q 750 375 750 524 q 717 146 750 228 q 609 28 685 64 q 399 -7 533 -7 m 399 183 q 467 196 444 183 q 499 249 489 208 q 510 376 510 290 q 499 503 510 463 q 467 556 489 543 q 399 568 444 568 q 331 556 353 568 q 299 503 310 543 q 289 376 289 464 q 299 249 289 289 q 332 196 310 208 q 399 183 354 183 m 65 1074 l 257 1074 l 361 876 l 219 876 l 65 1074 m 329 1074 l 521 1074 l 625 876 l 483 876 l 329 1074 z "},"ö":{"ha":799,"x_min":49,"x_max":750,"o":"m 399 -7 q 192 30 268 -7 q 83 149 117 67 q 49 375 49 232 q 83 609 49 526 q 192 726 117 692 q 399 760 267 760 q 606 725 531 760 q 716 607 682 690 q 750 375 750 524 q 717 146 750 228 q 609 28 685 64 q 399 -7 533 -7 m 399 183 q 467 196 444 183 q 499 249 489 208 q 510 376 510 290 q 499 503 510 463 q 467 556 489 543 q 399 568 444 568 q 331 556 353 568 q 299 503 310 543 q 289 376 289 464 q 299 249 289 289 q 332 196 310 208 q 399 183 354 183 m 200 878 q 177 886 186 878 q 168 908 168 894 l 168 1053 q 200 1086 168 1086 l 311 1086 q 333 1077 325 1086 q 342 1053 342 1068 l 342 908 q 311 878 342 878 l 200 878 m 472 878 q 450 886 458 878 q 442 908 442 894 l 442 1053 q 472 1086 442 1086 l 585 1086 q 606 1077 599 1086 q 614 1053 614 1068 l 614 908 q 585 878 614 878 l 472 878 z "},"ȫ":{"ha":799,"x_min":49,"x_max":750,"o":"m 399 -7 q 192 30 268 -7 q 83 149 117 67 q 49 375 49 232 q 83 609 49 526 q 192 726 117 692 q 399 760 267 760 q 606 725 531 760 q 716 607 682 690 q 750 375 750 524 q 717 146 750 228 q 609 28 685 64 q 399 -7 533 -7 m 399 183 q 467 196 444 183 q 499 249 489 208 q 510 376 510 290 q 499 503 510 463 q 467 556 489 543 q 399 568 444 568 q 331 556 353 568 q 299 503 310 543 q 289 376 289 464 q 299 249 289 289 q 332 196 310 208 q 399 183 354 183 m 200 878 q 177 886 186 878 q 168 908 168 894 l 168 1053 q 200 1086 168 1086 l 311 1086 q 333 1077 325 1086 q 342 1053 342 1068 l 342 908 q 311 878 342 878 l 200 878 m 472 878 q 450 886 458 878 q 442 908 442 894 l 442 1053 q 472 1086 442 1086 l 585 1086 q 606 1077 599 1086 q 614 1053 614 1068 l 614 908 q 585 878 614 878 l 472 878 m 193 1297 l 592 1297 l 592 1157 l 193 1157 l 193 1297 z "},"ȱ":{"ha":799,"x_min":49,"x_max":750,"o":"m 399 -7 q 192 30 268 -7 q 83 149 117 67 q 49 375 49 232 q 83 609 49 526 q 192 726 117 692 q 399 760 267 760 q 606 725 531 760 q 716 607 682 690 q 750 375 750 524 q 717 146 750 228 q 609 28 685 64 q 399 -7 533 -7 m 399 183 q 467 196 444 183 q 499 249 489 208 q 510 376 510 290 q 499 503 510 463 q 467 556 489 543 q 399 568 444 568 q 331 556 353 568 q 299 503 310 543 q 289 376 289 464 q 299 249 289 289 q 332 196 310 208 q 399 183 354 183 m 340 888 q 317 896 326 888 q 308 918 308 904 l 308 1063 q 340 1096 308 1096 l 451 1096 q 474 1087 465 1096 q 482 1063 482 1078 l 482 918 q 451 888 482 888 l 340 888 m 193 1296 l 592 1296 l 592 1156 l 193 1156 l 193 1296 z "},"ọ":{"ha":799,"x_min":49,"x_max":750,"o":"m 399 -7 q 192 30 268 -7 q 83 149 117 67 q 49 375 49 232 q 83 609 49 526 q 192 726 117 692 q 399 760 267 760 q 606 725 531 760 q 716 607 682 690 q 750 375 750 524 q 717 146 750 228 q 609 28 685 64 q 399 -7 533 -7 m 399 183 q 467 196 444 183 q 499 249 489 208 q 510 376 510 290 q 499 503 510 463 q 467 556 489 543 q 399 568 444 568 q 331 556 353 568 q 299 503 310 543 q 289 376 289 464 q 299 249 289 289 q 332 196 310 208 q 399 183 354 183 m 336 -321 q 314 -313 322 -321 q 306 -292 306 -306 l 306 -146 q 313 -122 306 -131 q 336 -112 321 -112 l 447 -112 q 469 -122 461 -112 q 478 -146 478 -132 l 478 -292 q 469 -313 478 -306 q 447 -321 461 -321 l 336 -321 z "},"ò":{"ha":799,"x_min":49,"x_max":750,"o":"m 399 -7 q 192 30 268 -7 q 83 149 117 67 q 49 375 49 232 q 83 609 49 526 q 192 726 117 692 q 399 760 267 760 q 606 725 531 760 q 716 607 682 690 q 750 375 750 524 q 717 146 750 228 q 609 28 685 64 q 399 -7 533 -7 m 399 183 q 467 196 444 183 q 499 249 489 208 q 510 376 510 290 q 499 503 510 463 q 467 556 489 543 q 399 568 444 568 q 331 556 353 568 q 299 503 310 543 q 289 376 289 464 q 299 249 289 289 q 332 196 310 208 q 399 183 354 183 m 207 1074 l 399 1074 l 503 876 l 361 876 l 207 1074 z "},"ỏ":{"ha":799,"x_min":49,"x_max":750,"o":"m 399 -7 q 192 30 268 -7 q 83 149 117 67 q 49 375 49 232 q 83 609 49 526 q 192 726 117 692 q 399 760 267 760 q 606 725 531 760 q 716 607 682 690 q 750 375 750 524 q 717 146 750 228 q 609 28 685 64 q 399 -7 533 -7 m 399 183 q 467 196 444 183 q 499 249 489 208 q 510 376 510 290 q 499 503 510 463 q 467 556 489 543 q 399 568 444 568 q 331 556 353 568 q 299 503 310 543 q 289 376 289 464 q 299 249 289 289 q 332 196 310 208 q 399 183 354 183 m 356 925 q 403 972 403 939 q 363 1001 403 1001 q 319 993 350 1001 l 319 1086 q 394 1097 353 1097 q 494 1067 461 1097 q 526 981 526 1038 q 486 883 526 921 q 356 821 446 846 l 356 925 z "},"ơ":{"ha":799,"x_min":49,"x_max":792,"o":"m 792 899 q 765 748 792 811 q 692 651 739 685 q 750 375 750 565 q 717 146 750 228 q 609 28 685 64 q 399 -7 533 -7 q 192 30 268 -7 q 83 149 117 67 q 49 375 49 232 q 83 609 49 526 q 192 726 117 692 q 399 760 267 760 q 538 747 478 760 q 605 785 583 750 q 626 899 626 819 l 792 899 m 399 183 q 467 196 444 183 q 499 249 489 208 q 510 376 510 290 q 499 503 510 463 q 467 556 489 543 q 399 568 444 568 q 331 556 353 568 q 299 503 310 543 q 289 376 289 464 q 299 249 289 289 q 332 196 310 208 q 399 183 354 183 z "},"ớ":{"ha":799,"x_min":49,"x_max":792,"o":"m 792 899 q 765 748 792 811 q 692 651 739 685 q 750 375 750 565 q 717 146 750 228 q 609 28 685 64 q 399 -7 533 -7 q 192 30 268 -7 q 83 149 117 67 q 49 375 49 232 q 83 609 49 526 q 192 726 117 692 q 399 760 267 760 q 538 747 478 760 q 605 785 583 750 q 626 899 626 819 l 792 899 m 399 183 q 467 196 444 183 q 499 249 489 208 q 510 376 510 290 q 499 503 510 463 q 467 556 489 543 q 399 568 444 568 q 331 556 353 568 q 299 503 310 543 q 289 376 289 464 q 299 249 289 289 q 332 196 310 208 q 399 183 354 183 m 410 1074 l 601 1074 l 447 876 l 306 876 l 410 1074 z "},"ợ":{"ha":799,"x_min":49,"x_max":792,"o":"m 792 899 q 765 748 792 811 q 692 651 739 685 q 750 375 750 565 q 717 146 750 228 q 609 28 685 64 q 399 -7 533 -7 q 192 30 268 -7 q 83 149 117 67 q 49 375 49 232 q 83 609 49 526 q 192 726 117 692 q 399 760 267 760 q 538 747 478 760 q 605 785 583 750 q 626 899 626 819 l 792 899 m 399 183 q 467 196 444 183 q 499 249 489 208 q 510 376 510 290 q 499 503 510 463 q 467 556 489 543 q 399 568 444 568 q 331 556 353 568 q 299 503 310 543 q 289 376 289 464 q 299 249 289 289 q 332 196 310 208 q 399 183 354 183 m 344 -321 q 322 -313 331 -321 q 314 -292 314 -306 l 314 -146 q 322 -122 314 -131 q 344 -112 329 -112 l 456 -112 q 478 -122 469 -112 q 486 -146 486 -132 l 486 -292 q 478 -313 486 -306 q 456 -321 469 -321 l 344 -321 z "},"ờ":{"ha":799,"x_min":49,"x_max":792,"o":"m 792 899 q 765 748 792 811 q 692 651 739 685 q 750 375 750 565 q 717 146 750 228 q 609 28 685 64 q 399 -7 533 -7 q 192 30 268 -7 q 83 149 117 67 q 49 375 49 232 q 83 609 49 526 q 192 726 117 692 q 399 760 267 760 q 538 747 478 760 q 605 785 583 750 q 626 899 626 819 l 792 899 m 399 183 q 467 196 444 183 q 499 249 489 208 q 510 376 510 290 q 499 503 510 463 q 467 556 489 543 q 399 568 444 568 q 331 556 353 568 q 299 503 310 543 q 289 376 289 464 q 299 249 289 289 q 332 196 310 208 q 399 183 354 183 m 176 1074 l 368 1074 l 472 876 l 331 876 l 176 1074 z "},"ở":{"ha":799,"x_min":49,"x_max":792,"o":"m 792 899 q 765 748 792 811 q 692 651 739 685 q 750 375 750 565 q 717 146 750 228 q 609 28 685 64 q 399 -7 533 -7 q 192 30 268 -7 q 83 149 117 67 q 49 375 49 232 q 83 609 49 526 q 192 726 117 692 q 399 760 267 760 q 538 747 478 760 q 605 785 583 750 q 626 899 626 819 l 792 899 m 399 183 q 467 196 444 183 q 499 249 489 208 q 510 376 510 290 q 499 503 510 463 q 467 556 489 543 q 399 568 444 568 q 331 556 353 568 q 299 503 310 543 q 289 376 289 464 q 299 249 289 289 q 332 196 310 208 q 399 183 354 183 m 360 925 q 407 972 407 939 q 367 1001 407 1001 q 324 993 354 1001 l 324 1086 q 399 1097 357 1097 q 498 1067 465 1097 q 531 981 531 1038 q 490 883 531 921 q 360 821 450 846 l 360 925 z "},"ỡ":{"ha":799,"x_min":49,"x_max":792,"o":"m 792 899 q 765 748 792 811 q 692 651 739 685 q 750 375 750 565 q 717 146 750 228 q 609 28 685 64 q 399 -7 533 -7 q 192 30 268 -7 q 83 149 117 67 q 49 375 49 232 q 83 609 49 526 q 192 726 117 692 q 399 760 267 760 q 538 747 478 760 q 605 785 583 750 q 626 899 626 819 l 792 899 m 399 183 q 467 196 444 183 q 499 249 489 208 q 510 376 510 290 q 499 503 510 463 q 467 556 489 543 q 399 568 444 568 q 331 556 353 568 q 299 503 310 543 q 289 376 289 464 q 299 249 289 289 q 332 196 310 208 q 399 183 354 183 m 110 865 q 156 1011 115 965 q 260 1057 197 1057 q 320 1049 294 1057 q 381 1024 346 1040 q 458 999 425 999 q 510 1065 506 999 l 628 1065 q 482 867 619 867 q 419 876 447 867 q 356 901 390 885 q 314 919 331 914 q 282 925 297 925 q 245 909 258 925 q 229 865 232 893 l 110 865 z "},"ő":{"ha":799,"x_min":49,"x_max":750,"o":"m 399 -7 q 192 30 268 -7 q 83 149 117 67 q 49 375 49 232 q 83 609 49 526 q 192 726 117 692 q 399 760 267 760 q 606 725 531 760 q 716 607 682 690 q 750 375 750 524 q 717 146 750 228 q 609 28 685 64 q 399 -7 533 -7 m 399 183 q 467 196 444 183 q 499 249 489 208 q 510 376 510 290 q 499 503 510 463 q 467 556 489 543 q 399 568 444 568 q 331 556 353 568 q 299 503 310 543 q 289 376 289 464 q 299 249 289 289 q 332 196 310 208 q 399 183 354 183 m 290 1074 l 469 1074 l 340 876 l 199 876 l 290 1074 m 525 1074 l 704 1074 l 574 876 l 433 876 l 525 1074 z "},"ȏ":{"ha":799,"x_min":49,"x_max":750,"o":"m 399 -7 q 192 30 268 -7 q 83 149 117 67 q 49 375 49 232 q 83 609 49 526 q 192 726 117 692 q 399 760 267 760 q 606 725 531 760 q 716 607 682 690 q 750 375 750 524 q 717 146 750 228 q 609 28 685 64 q 399 -7 533 -7 m 399 183 q 467 196 444 183 q 499 249 489 208 q 510 376 510 290 q 499 503 510 463 q 467 556 489 543 q 399 568 444 568 q 331 556 353 568 q 299 503 310 543 q 289 376 289 464 q 299 249 289 289 q 332 196 310 208 q 399 183 354 183 m 404 1081 q 549 1027 499 1081 q 600 867 600 974 l 490 867 q 467 947 490 922 q 407 972 443 972 q 341 948 364 972 q 318 867 318 924 l 204 867 q 404 1081 204 1081 z "},"ō":{"ha":799,"x_min":49,"x_max":750,"o":"m 399 -7 q 192 30 268 -7 q 83 149 117 67 q 49 375 49 232 q 83 609 49 526 q 192 726 117 692 q 399 760 267 760 q 606 725 531 760 q 716 607 682 690 q 750 375 750 524 q 717 146 750 228 q 609 28 685 64 q 399 -7 533 -7 m 399 183 q 467 196 444 183 q 499 249 489 208 q 510 376 510 290 q 499 503 510 463 q 467 556 489 543 q 399 568 444 568 q 331 556 353 568 q 299 503 310 543 q 289 376 289 464 q 299 249 289 289 q 332 196 310 208 q 399 183 354 183 m 193 1028 l 592 1028 l 592 888 l 193 888 l 193 1028 z "},"ṓ":{"ha":799,"x_min":49,"x_max":750,"o":"m 399 -7 q 192 30 268 -7 q 83 149 117 67 q 49 375 49 232 q 83 609 49 526 q 192 726 117 692 q 399 760 267 760 q 606 725 531 760 q 716 607 682 690 q 750 375 750 524 q 717 146 750 228 q 609 28 685 64 q 399 -7 533 -7 m 399 183 q 467 196 444 183 q 499 249 489 208 q 510 376 510 290 q 499 503 510 463 q 467 556 489 543 q 399 568 444 568 q 331 556 353 568 q 299 503 310 543 q 289 376 289 464 q 299 249 289 289 q 332 196 310 208 q 399 183 354 183 m 193 1028 l 592 1028 l 592 888 l 193 888 l 193 1028 m 425 1265 l 617 1265 l 463 1068 l 321 1068 l 425 1265 z "},"ṑ":{"ha":799,"x_min":49,"x_max":750,"o":"m 399 -7 q 192 30 268 -7 q 83 149 117 67 q 49 375 49 232 q 83 609 49 526 q 192 726 117 692 q 399 760 267 760 q 606 725 531 760 q 716 607 682 690 q 750 375 750 524 q 717 146 750 228 q 609 28 685 64 q 399 -7 533 -7 m 399 183 q 467 196 444 183 q 499 249 489 208 q 510 376 510 290 q 499 503 510 463 q 467 556 489 543 q 399 568 444 568 q 331 556 353 568 q 299 503 310 543 q 289 376 289 464 q 299 249 289 289 q 332 196 310 208 q 399 183 354 183 m 193 1028 l 592 1028 l 592 888 l 193 888 l 193 1028 m 183 1265 l 375 1265 l 479 1068 l 338 1068 l 183 1265 z "},"ǫ":{"ha":799,"x_min":49,"x_max":750,"o":"m 488 -3 q 445 -44 458 -24 q 432 -87 432 -64 q 451 -134 432 -117 q 500 -151 471 -151 l 514 -151 l 514 -264 q 467 -269 501 -269 q 354 -232 390 -269 q 318 -143 318 -194 q 394 -7 318 -54 q 190 31 265 -6 q 82 151 115 68 q 49 375 49 233 q 83 609 49 526 q 192 726 117 692 q 399 760 267 760 q 606 725 531 760 q 716 607 682 690 q 750 375 750 524 q 725 167 750 246 q 643 49 700 89 q 488 -3 586 8 m 289 376 q 299 249 289 289 q 332 196 310 208 q 399 183 354 183 q 467 196 444 183 q 499 249 489 208 q 510 376 510 290 q 499 503 510 463 q 467 556 489 543 q 399 568 444 568 q 331 556 353 568 q 299 503 310 543 q 289 376 289 464 z "},"ø":{"ha":799,"x_min":28,"x_max":769,"o":"m 690 654 q 750 375 750 568 q 717 146 750 228 q 609 28 685 64 q 399 -7 533 -7 q 171 42 250 -7 l 136 0 l 28 0 l 111 99 q 63 210 78 143 q 49 375 49 278 q 83 609 49 526 q 192 726 117 692 q 399 760 267 760 q 631 711 553 760 l 661 747 l 769 747 l 690 654 m 289 376 q 290 310 289 329 l 485 539 q 452 563 472 557 q 399 568 432 568 q 331 556 353 568 q 299 503 310 543 q 289 376 289 464 m 510 376 q 508 439 510 421 l 315 211 q 347 189 326 194 q 399 183 367 183 q 467 196 444 183 q 499 249 489 208 q 510 376 510 290 z "},"ǿ":{"ha":799,"x_min":28,"x_max":769,"o":"m 690 654 q 750 375 750 568 q 717 146 750 228 q 609 28 685 64 q 399 -7 533 -7 q 171 42 250 -7 l 136 0 l 28 0 l 111 99 q 63 210 78 143 q 49 375 49 278 q 83 609 49 526 q 192 726 117 692 q 399 760 267 760 q 631 711 553 760 l 661 747 l 769 747 l 690 654 m 289 376 q 290 310 289 329 l 485 539 q 452 563 472 557 q 399 568 432 568 q 331 556 353 568 q 299 503 310 543 q 289 376 289 464 m 510 376 q 508 439 510 421 l 315 211 q 347 189 326 194 q 399 183 367 183 q 467 196 444 183 q 499 249 489 208 q 510 376 510 290 m 438 1074 l 629 1074 l 475 876 l 333 876 l 438 1074 z "},"õ":{"ha":799,"x_min":49,"x_max":750,"o":"m 399 -7 q 192 30 268 -7 q 83 149 117 67 q 49 375 49 232 q 83 609 49 526 q 192 726 117 692 q 399 760 267 760 q 606 725 531 760 q 716 607 682 690 q 750 375 750 524 q 717 146 750 228 q 609 28 685 64 q 399 -7 533 -7 m 399 183 q 467 196 444 183 q 499 249 489 208 q 510 376 510 290 q 499 503 510 463 q 467 556 489 543 q 399 568 444 568 q 331 556 353 568 q 299 503 310 543 q 289 376 289 464 q 299 249 289 289 q 332 196 310 208 q 399 183 354 183 m 143 865 q 190 1011 149 965 q 293 1057 231 1057 q 353 1049 328 1057 q 414 1024 379 1040 q 492 999 458 999 q 543 1065 539 999 l 661 1065 q 515 867 653 867 q 452 876 481 867 q 389 901 424 885 q 347 919 364 914 q 315 925 331 925 q 278 909 292 925 q 263 865 265 893 l 143 865 z "},"ṍ":{"ha":799,"x_min":49,"x_max":750,"o":"m 399 -7 q 192 30 268 -7 q 83 149 117 67 q 49 375 49 232 q 83 609 49 526 q 192 726 117 692 q 399 760 267 760 q 606 725 531 760 q 716 607 682 690 q 750 375 750 524 q 717 146 750 228 q 609 28 685 64 q 399 -7 533 -7 m 399 183 q 467 196 444 183 q 499 249 489 208 q 510 376 510 290 q 499 503 510 463 q 467 556 489 543 q 399 568 444 568 q 331 556 353 568 q 299 503 310 543 q 289 376 289 464 q 299 249 289 289 q 332 196 310 208 q 399 183 354 183 m 143 865 q 190 1011 149 965 q 293 1057 231 1057 q 353 1049 328 1057 q 414 1024 379 1040 q 492 999 458 999 q 543 1065 539 999 l 661 1065 q 515 867 653 867 q 452 876 481 867 q 389 901 424 885 q 347 919 364 914 q 315 925 331 925 q 278 909 292 925 q 263 865 265 893 l 143 865 m 425 1294 l 617 1294 l 463 1097 l 321 1097 l 425 1294 z "},"ṏ":{"ha":799,"x_min":49,"x_max":750,"o":"m 399 -7 q 192 30 268 -7 q 83 149 117 67 q 49 375 49 232 q 83 609 49 526 q 192 726 117 692 q 399 760 267 760 q 606 725 531 760 q 716 607 682 690 q 750 375 750 524 q 717 146 750 228 q 609 28 685 64 q 399 -7 533 -7 m 399 183 q 467 196 444 183 q 499 249 489 208 q 510 376 510 290 q 499 503 510 463 q 467 556 489 543 q 399 568 444 568 q 331 556 353 568 q 299 503 310 543 q 289 376 289 464 q 299 249 289 289 q 332 196 310 208 q 399 183 354 183 m 143 865 q 190 1011 149 965 q 293 1057 231 1057 q 353 1049 328 1057 q 414 1024 379 1040 q 492 999 458 999 q 543 1065 539 999 l 661 1065 q 515 867 653 867 q 452 876 481 867 q 389 901 424 885 q 347 919 364 914 q 315 925 331 925 q 278 909 292 925 q 263 865 265 893 l 143 865 m 214 1111 q 191 1119 200 1111 q 182 1142 182 1128 l 182 1286 q 214 1319 182 1319 l 325 1319 q 347 1310 339 1319 q 356 1286 356 1301 l 356 1142 q 325 1111 356 1111 l 214 1111 m 486 1111 q 464 1119 472 1111 q 456 1142 456 1128 l 456 1286 q 486 1319 456 1319 l 599 1319 q 620 1310 613 1319 q 628 1286 628 1301 l 628 1142 q 599 1111 628 1111 l 486 1111 z "},"ȭ":{"ha":799,"x_min":49,"x_max":750,"o":"m 399 -7 q 192 30 268 -7 q 83 149 117 67 q 49 375 49 232 q 83 609 49 526 q 192 726 117 692 q 399 760 267 760 q 606 725 531 760 q 716 607 682 690 q 750 375 750 524 q 717 146 750 228 q 609 28 685 64 q 399 -7 533 -7 m 399 183 q 467 196 444 183 q 499 249 489 208 q 510 376 510 290 q 499 503 510 463 q 467 556 489 543 q 399 568 444 568 q 331 556 353 568 q 299 503 310 543 q 289 376 289 464 q 299 249 289 289 q 332 196 310 208 q 399 183 354 183 m 193 1297 l 592 1297 l 592 1157 l 193 1157 l 193 1297 m 118 865 q 165 1011 124 965 q 268 1057 206 1057 q 328 1049 303 1057 q 389 1024 354 1040 q 467 999 433 999 q 518 1065 514 999 l 636 1065 q 490 867 628 867 q 427 876 456 867 q 364 901 399 885 q 322 919 339 914 q 290 925 306 925 q 253 909 267 925 q 238 865 240 893 l 118 865 z "},"œ":{"ha":1196,"x_min":49,"x_max":1147,"o":"m 738 290 q 776 197 739 224 q 899 171 813 171 l 1121 171 l 1121 31 q 826 -7 986 -7 q 629 60 696 -7 q 537 8 593 24 q 399 -7 481 -7 q 192 30 268 -7 q 83 149 117 67 q 49 375 49 232 q 83 609 49 526 q 192 726 117 692 q 399 760 267 760 q 534 744 478 760 q 626 694 590 729 q 833 760 693 760 q 1021 735 954 760 q 1117 650 1088 711 q 1147 474 1147 589 q 1083 336 1147 382 q 921 290 1019 290 l 738 290 m 835 588 q 757 553 779 588 q 735 432 735 518 l 874 432 q 921 448 906 432 q 936 500 936 464 q 913 567 936 546 q 835 588 889 588 m 399 172 q 467 185 444 172 q 499 242 489 199 q 510 376 510 285 q 499 511 510 468 q 467 567 489 554 q 399 581 444 581 q 331 567 353 581 q 299 511 310 554 q 289 376 289 468 q 299 242 289 285 q 331 185 310 199 q 399 172 353 172 z "},"p":{"ha":817,"x_min":69,"x_max":768,"o":"m 69 747 l 271 747 l 310 678 q 401 738 357 717 q 504 760 446 760 q 703 662 639 760 q 768 372 768 564 q 710 85 768 182 q 504 -11 653 -11 q 401 -1 453 -11 q 310 31 349 10 l 310 -329 l 69 -329 l 69 747 m 424 186 q 528 372 528 186 q 501 524 528 481 q 425 567 475 567 q 310 533 364 567 l 310 214 q 360 194 329 201 q 424 186 392 186 z "},"ṗ":{"ha":817,"x_min":69,"x_max":768,"o":"m 69 747 l 271 747 l 310 678 q 401 738 357 717 q 504 760 446 760 q 703 662 639 760 q 768 372 768 564 q 710 85 768 182 q 504 -11 653 -11 q 401 -1 453 -11 q 310 31 349 10 l 310 -329 l 69 -329 l 69 747 m 424 186 q 528 372 528 186 q 501 524 528 481 q 425 567 475 567 q 310 533 364 567 l 310 214 q 360 194 329 201 q 424 186 392 186 m 338 888 q 315 896 324 888 q 306 918 306 904 l 306 1063 q 338 1096 306 1096 l 449 1096 q 471 1087 463 1096 q 479 1063 479 1078 l 479 918 q 449 888 479 888 l 338 888 z "},"þ":{"ha":817,"x_min":69,"x_max":768,"o":"m 69 1060 l 310 1060 l 310 678 q 401 738 357 717 q 504 760 446 760 q 700 660 632 760 q 768 372 768 561 q 706 88 768 186 q 504 -11 644 -11 q 401 -1 453 -11 q 310 31 349 10 l 310 -329 l 69 -329 l 69 1060 m 424 186 q 528 360 528 186 q 501 521 528 475 q 425 567 475 567 q 310 533 364 567 l 310 214 q 360 194 329 201 q 424 186 392 186 z "},"q":{"ha":814,"x_min":49,"x_max":747,"o":"m 507 69 q 419 14 468 36 q 325 -8 369 -8 q 160 31 221 -8 q 74 153 100 71 q 49 372 49 236 q 79 604 49 519 q 172 724 110 689 q 336 760 235 760 q 542 750 428 760 q 747 726 657 740 l 747 -329 l 507 -329 l 507 69 m 397 183 q 453 194 419 183 q 507 218 488 206 l 507 581 l 413 581 q 316 536 343 581 q 289 381 289 492 q 299 256 289 297 q 332 199 310 214 q 397 183 354 183 z "},"r":{"ha":593,"x_min":69,"x_max":564,"o":"m 69 747 l 256 747 l 310 639 q 399 726 351 694 q 506 758 446 758 q 564 751 540 758 l 564 506 q 474 511 503 511 q 379 494 419 511 q 310 443 339 478 l 310 0 l 69 0 l 69 747 z "},"ŕ":{"ha":593,"x_min":69,"x_max":564,"o":"m 69 747 l 256 747 l 310 639 q 399 726 351 694 q 506 758 446 758 q 564 751 540 758 l 564 506 q 474 511 503 511 q 379 494 419 511 q 310 443 339 478 l 310 0 l 69 0 l 69 747 m 353 1074 l 544 1074 l 390 876 l 249 876 l 353 1074 z "},"ř":{"ha":593,"x_min":69,"x_max":564,"o":"m 69 747 l 256 747 l 310 639 q 399 726 351 694 q 506 758 446 758 q 564 751 540 758 l 564 506 q 474 511 503 511 q 379 494 419 511 q 310 443 339 478 l 310 0 l 69 0 l 69 747 m 97 1076 l 235 1076 l 314 982 l 397 1076 l 536 1076 l 392 876 l 229 876 l 97 1076 z "},"ŗ":{"ha":593,"x_min":68,"x_max":564,"o":"m 69 747 l 256 747 l 310 639 q 399 726 351 694 q 506 758 446 758 q 564 751 540 758 l 564 506 q 474 511 503 511 q 379 494 419 511 q 310 443 339 478 l 310 0 l 69 0 l 69 747 m 68 -208 l 104 -197 q 154 -169 142 -186 q 167 -106 167 -153 l 311 -106 q 275 -261 311 -215 q 146 -307 239 -307 l 68 -307 l 68 -208 z "},"ȑ":{"ha":593,"x_min":-19,"x_max":564,"o":"m 69 747 l 256 747 l 310 639 q 399 726 351 694 q 506 758 446 758 q 564 751 540 758 l 564 506 q 474 511 503 511 q 379 494 419 511 q 310 443 339 478 l 310 0 l 69 0 l 69 747 m -19 1074 l 172 1074 l 276 876 l 135 876 l -19 1074 m 244 1074 l 436 1074 l 540 876 l 399 876 l 244 1074 z "},"ṛ":{"ha":593,"x_min":69,"x_max":564,"o":"m 69 747 l 256 747 l 310 639 q 399 726 351 694 q 506 758 446 758 q 564 751 540 758 l 564 506 q 474 511 503 511 q 379 494 419 511 q 310 443 339 478 l 310 0 l 69 0 l 69 747 m 126 -321 q 104 -313 113 -321 q 96 -292 96 -306 l 96 -146 q 103 -122 96 -131 q 126 -112 111 -112 l 238 -112 q 260 -122 251 -112 q 268 -146 268 -132 l 268 -292 q 260 -313 268 -306 q 238 -321 251 -321 l 126 -321 z "},"ȓ":{"ha":593,"x_min":69,"x_max":564,"o":"m 69 747 l 256 747 l 310 639 q 399 726 351 694 q 506 758 446 758 q 564 751 540 758 l 564 506 q 474 511 503 511 q 379 494 419 511 q 310 443 339 478 l 310 0 l 69 0 l 69 747 m 319 1081 q 465 1027 414 1081 q 515 867 515 974 l 406 867 q 382 947 406 922 q 322 972 358 972 q 256 948 279 972 q 233 867 233 924 l 119 867 q 319 1081 119 1081 z "},"ṟ":{"ha":593,"x_min":-6,"x_max":564,"o":"m 69 747 l 256 747 l 310 639 q 399 726 351 694 q 506 758 446 758 q 564 751 540 758 l 564 506 q 474 511 503 511 q 379 494 419 511 q 310 443 339 478 l 310 0 l 69 0 l 69 747 m -6 -167 l 393 -167 l 393 -307 l -6 -307 l -6 -167 z "},"s":{"ha":704,"x_min":42,"x_max":661,"o":"m 346 -8 q 183 1 263 -8 q 57 31 104 11 l 57 171 l 396 171 q 444 180 431 171 q 458 214 458 189 l 458 235 q 444 267 458 256 q 392 278 429 278 l 269 278 q 103 327 165 278 q 42 486 42 376 l 42 531 q 70 656 42 607 q 167 729 99 704 q 356 754 236 754 q 506 742 426 754 q 626 715 586 731 l 626 575 l 306 575 q 260 565 274 575 q 246 531 246 556 l 246 511 q 262 477 246 486 q 318 468 278 468 l 442 468 q 609 416 557 468 q 661 267 661 364 l 661 196 q 584 38 661 85 q 346 -8 507 -8 z "},"ś":{"ha":704,"x_min":42,"x_max":661,"o":"m 346 -8 q 183 1 263 -8 q 57 31 104 11 l 57 171 l 396 171 q 444 180 431 171 q 458 214 458 189 l 458 235 q 444 267 458 256 q 392 278 429 278 l 269 278 q 103 327 165 278 q 42 486 42 376 l 42 531 q 70 656 42 607 q 167 729 99 704 q 356 754 236 754 q 506 742 426 754 q 626 715 586 731 l 626 575 l 306 575 q 260 565 274 575 q 246 531 246 556 l 246 511 q 262 477 246 486 q 318 468 278 468 l 442 468 q 609 416 557 468 q 661 267 661 364 l 661 196 q 584 38 661 85 q 346 -8 507 -8 m 383 1074 l 575 1074 l 421 876 l 279 876 l 383 1074 z "},"ṥ":{"ha":704,"x_min":42,"x_max":661,"o":"m 346 -8 q 183 1 263 -8 q 57 31 104 11 l 57 171 l 396 171 q 444 180 431 171 q 458 214 458 189 l 458 235 q 444 267 458 256 q 392 278 429 278 l 269 278 q 103 327 165 278 q 42 486 42 376 l 42 531 q 70 656 42 607 q 167 729 99 704 q 356 754 236 754 q 506 742 426 754 q 626 715 586 731 l 626 575 l 306 575 q 260 565 274 575 q 246 531 246 556 l 246 511 q 262 477 246 486 q 318 468 278 468 l 442 468 q 609 416 557 468 q 661 267 661 364 l 661 196 q 584 38 661 85 q 346 -8 507 -8 m 340 1074 l 532 1074 l 378 876 l 236 876 l 340 1074 m 325 1115 q 302 1124 311 1115 q 293 1146 293 1132 l 293 1290 q 325 1324 293 1324 l 436 1324 q 458 1315 450 1324 q 467 1290 467 1306 l 467 1146 q 436 1115 467 1115 l 325 1115 z "},"š":{"ha":704,"x_min":42,"x_max":661,"o":"m 346 -8 q 183 1 263 -8 q 57 31 104 11 l 57 171 l 396 171 q 444 180 431 171 q 458 214 458 189 l 458 235 q 444 267 458 256 q 392 278 429 278 l 269 278 q 103 327 165 278 q 42 486 42 376 l 42 531 q 70 656 42 607 q 167 729 99 704 q 356 754 236 754 q 506 742 426 754 q 626 715 586 731 l 626 575 l 306 575 q 260 565 274 575 q 246 531 246 556 l 246 511 q 262 477 246 486 q 318 468 278 468 l 442 468 q 609 416 557 468 q 661 267 661 364 l 661 196 q 584 38 661 85 q 346 -8 507 -8 m 128 1076 l 265 1076 l 344 982 l 428 1076 l 567 1076 l 422 876 l 260 876 l 128 1076 z "},"ṧ":{"ha":704,"x_min":42,"x_max":661,"o":"m 346 -8 q 183 1 263 -8 q 57 31 104 11 l 57 171 l 396 171 q 444 180 431 171 q 458 214 458 189 l 458 235 q 444 267 458 256 q 392 278 429 278 l 269 278 q 103 327 165 278 q 42 486 42 376 l 42 531 q 70 656 42 607 q 167 729 99 704 q 356 754 236 754 q 506 742 426 754 q 626 715 586 731 l 626 575 l 306 575 q 260 565 274 575 q 246 531 246 556 l 246 511 q 262 477 246 486 q 318 468 278 468 l 442 468 q 609 416 557 468 q 661 267 661 364 l 661 196 q 584 38 661 85 q 346 -8 507 -8 m 128 1076 l 265 1076 l 344 982 l 428 1076 l 567 1076 l 422 876 l 260 876 l 128 1076 m 286 1128 q 263 1136 272 1128 q 254 1158 254 1144 l 254 1303 q 286 1336 254 1336 l 397 1336 q 419 1327 411 1336 q 428 1303 428 1318 l 428 1158 q 397 1128 428 1128 l 286 1128 z "},"ş":{"ha":704,"x_min":42,"x_max":661,"o":"m 442 468 q 609 416 557 468 q 661 267 661 364 l 661 196 q 601 50 661 97 q 414 -6 540 3 l 376 -68 q 440 -98 415 -74 q 465 -162 465 -122 q 427 -249 465 -218 q 313 -279 389 -279 l 238 -279 l 238 -181 l 260 -176 q 311 -135 311 -168 q 257 -87 311 -99 l 307 -8 q 166 4 233 -6 q 57 31 99 14 l 57 171 l 396 171 q 444 180 431 171 q 458 214 458 189 l 458 235 q 444 267 458 256 q 392 278 429 278 l 269 278 q 103 327 165 278 q 42 486 42 376 l 42 531 q 70 656 42 607 q 167 729 99 704 q 356 754 236 754 q 506 742 426 754 q 626 715 586 731 l 626 575 l 306 575 q 260 565 274 575 q 246 531 246 556 l 246 511 q 262 477 246 486 q 318 468 278 468 l 442 468 z "}}}
